<svg id="Group_2143" data-name="Group 2143" xmlns="http://www.w3.org/2000/svg" width="61.931" height="82.413" viewBox="0 0 61.931 82.413">
  <g id="Group_2121" data-name="Group 2121" transform="translate(0 53.479)">
    <rect id="Rectangle_392" data-name="Rectangle 392" width="15.965" height="5.878" transform="translate(22.981 6.929)" fill="#6bb1c5"/>
    <path id="Path_817" data-name="Path 817" d="M82.961,122.094H69.991s.327,8.19-1.261,10.568H84.386C82.8,130.284,82.961,122.094,82.961,122.094Z" transform="translate(-45.592 -122.094)" fill="#f5af80"/>
    <path id="Path_818" data-name="Path 818" d="M70.27,128.281A13.8,13.8,0,0,0,77.1,130.1a16.244,16.244,0,0,0,6.619-1.481,52.76,52.76,0,0,1-.317-6.52H70.434A52.25,52.25,0,0,1,70.27,128.281Z" transform="translate(-46.035 -122.094)" fill="#f7dcd7" style="mix-blend-mode: multiply;isolation: isolate"/>
    <g id="Group_2117" data-name="Group 2117" transform="translate(0 9.5)">
      <path id="Path_819" data-name="Path 819" d="M92.254,142.182l-18.828-6.744H60.942l-18.828,6.744s-6.592,2.17-5.823,12.69H98.076C98.977,143.7,92.254,142.182,92.254,142.182Z" transform="translate(-36.228 -135.438)" fill="#f5af80"/>
    </g>
    <g id="Group_2118" data-name="Group 2118" transform="translate(0 10.644)">
      <path id="Path_820" data-name="Path 820" d="M92.254,142.645l-15.386-5.512-9.674,6.745-9.448-6.834-15.632,5.6s-6.592,2.17-5.823,12.69H98.076C98.977,144.168,92.254,142.645,92.254,142.645Z" transform="translate(-36.228 -137.045)" fill="#3063a4"/>
    </g>
    <g id="Group_2119" data-name="Group 2119" transform="translate(18.758 6.929)">
      <path id="Path_821" data-name="Path 821" d="M76.1,142.375,74.83,135.89l-6.717-4.063-.979,4.089Z" transform="translate(-63.89 -131.827)" fill="#6bb1c5"/>
      <path id="Path_822" data-name="Path 822" d="M73.517,135.89l-3.176,5.818-7.763-5.275,4.223-4.607Z" transform="translate(-62.578 -131.827)" fill="#c2e3e5"/>
    </g>
    <g id="Group_2120" data-name="Group 2120" transform="translate(30.966 6.929)">
      <path id="Path_823" data-name="Path 823" d="M79.725,142.375l1.269-6.485,6.717-4.063.978,4.089Z" transform="translate(-79.725 -131.827)" fill="#6bb1c5"/>
      <path id="Path_824" data-name="Path 824" d="M81.507,135.89l3.176,5.818,7.763-5.275-4.222-4.607Z" transform="translate(-80.239 -131.827)" fill="#c2e3e5"/>
    </g>
  </g>
  <g id="Group_2132" data-name="Group 2132" transform="translate(11.768 33.557)">
    <g id="Group_2126" data-name="Group 2126" transform="translate(33.277)">
      <g id="Group_2125" data-name="Group 2125">
        <path id="Path_825" data-name="Path 825" d="M99.63,98.66c-.448,2.765.329,5.223,1.731,5.486s2.9-1.759,3.344-4.526-.33-5.222-1.734-5.487S100.073,95.895,99.63,98.66Z" transform="translate(-99.503 -94.11)" fill="#f5af80"/>
        <g id="Group_2124" data-name="Group 2124" transform="translate(1.091 1.076)">
          <g id="Group_2122" data-name="Group 2122" transform="translate(0.708)">
            <path id="Path_826" data-name="Path 826" d="M102.043,98.348s.021-.154.076-.407a5.018,5.018,0,0,1,.337-.995c.177-.369.459-.794.815-.817a.753.753,0,0,1,.271.038,1.344,1.344,0,0,1,.136.07.979.979,0,0,1,.1.083,1.429,1.429,0,0,1,.339.6,3.559,3.559,0,0,1,.164.785,3.852,3.852,0,0,1,.01.792c-.044.278-.056.562-.107.8s-.092.478-.133.693c-.057.215-.1.416-.14.594s-.092.328-.125.456c-.073.253-.108.4-.108.4s.072-.127.189-.358c.053-.119.134-.254.2-.425s.151-.36.231-.573.146-.461.221-.719.114-.523.169-.8a3.675,3.675,0,0,0,.035-.947,4.248,4.248,0,0,0-.179-.936,1.94,1.94,0,0,0-.489-.811.994.994,0,0,0-.2-.145,1.259,1.259,0,0,0-.192-.078,1.07,1.07,0,0,0-.423-.021,1.1,1.1,0,0,0-.688.487,2.625,2.625,0,0,0-.332.694,4.416,4.416,0,0,0-.187,1.113A2.747,2.747,0,0,0,102.043,98.348Z" transform="translate(-102.03 -95.622)" fill="#f1986d"/>
          </g>
          <path id="Path_827" data-name="Path 827" d="M101.867,99.3s-.13-.3.794-.364c0,0,1.031.191.424,1.567a4.485,4.485,0,0,0-.308.927c-.092.461.072,1.088-.174,1.5-.32.529-1.133.229-1.181-.377a3.487,3.487,0,0,1,.657-1.587A1.235,1.235,0,0,0,101.867,99.3Z" transform="translate(-101.146 -96.577)" fill="#f1986d"/>
          <g id="Group_2123" data-name="Group 2123" transform="translate(0 5.917)">
            <path id="Path_828" data-name="Path 828" d="M101.311,103.933a.46.46,0,0,0-.071.075.878.878,0,0,0-.136.258.848.848,0,0,0-.048.2.7.7,0,0,0-.016.229c.006.078.008.163.021.246a1.9,1.9,0,0,0,.075.231,1.045,1.045,0,0,0,.1.209,1.811,1.811,0,0,0,.137.16.591.591,0,0,0,.282.2.85.85,0,0,0,.315.078,2.059,2.059,0,0,0-.144-.334.838.838,0,0,0-.078-.13c-.022-.05-.039-.107-.065-.153a1.351,1.351,0,0,0-.076-.146.776.776,0,0,1-.061-.154,1.624,1.624,0,0,1-.112-.3,1.289,1.289,0,0,1-.04-.152c-.007-.052-.03-.1-.035-.15C101.33,104.1,101.311,103.932,101.311,103.933Z" transform="translate(-101.036 -103.933)" fill="#f1986d"/>
          </g>
        </g>
      </g>
    </g>
    <g id="Group_2131" data-name="Group 2131">
      <g id="Group_2130" data-name="Group 2130">
        <path id="Path_829" data-name="Path 829" d="M57.959,98.66c.447,2.765-.33,5.223-1.731,5.486s-2.9-1.759-3.344-4.526.331-5.222,1.733-5.487S57.514,95.895,57.959,98.66Z" transform="translate(-52.759 -94.11)" fill="#f5af80"/>
        <g id="Group_2129" data-name="Group 2129" transform="translate(0.818 1.076)">
          <g id="Group_2127" data-name="Group 2127">
            <path id="Path_830" data-name="Path 830" d="M56.6,98.348s-.021-.154-.077-.407a5.017,5.017,0,0,0-.337-.995c-.175-.369-.458-.794-.814-.817a.754.754,0,0,0-.271.038,1.422,1.422,0,0,0-.135.07.906.906,0,0,0-.1.083,1.42,1.42,0,0,0-.338.6,3.6,3.6,0,0,0-.165.785,3.848,3.848,0,0,0-.009.792c.043.278.056.562.107.8s.091.478.133.693.1.416.14.594.093.328.125.456c.073.253.107.4.107.4s-.073-.127-.189-.358c-.053-.119-.134-.254-.2-.425s-.151-.36-.232-.573-.145-.461-.22-.719-.114-.523-.169-.8a3.675,3.675,0,0,1-.034-.947,4.165,4.165,0,0,1,.179-.936,1.934,1.934,0,0,1,.49-.811.969.969,0,0,1,.2-.145,1.23,1.23,0,0,1,.192-.078,1.071,1.071,0,0,1,.423-.021,1.1,1.1,0,0,1,.688.487,2.56,2.56,0,0,1,.332.694,4.429,4.429,0,0,1,.189,1.113A2.789,2.789,0,0,1,56.6,98.348Z" transform="translate(-53.908 -95.622)" fill="#f1986d"/>
          </g>
          <path id="Path_831" data-name="Path 831" d="M57.124,99.3s.129-.3-.794-.364c0,0-1.032.191-.425,1.567a4.529,4.529,0,0,1,.309.927c.092.461-.073,1.088.174,1.5.32.529,1.133.229,1.18-.377a3.479,3.479,0,0,0-.657-1.587A1.236,1.236,0,0,1,57.124,99.3Z" transform="translate(-54.428 -96.577)" fill="#f1986d"/>
          <g id="Group_2128" data-name="Group 2128" transform="translate(2.477 5.917)">
            <path id="Path_832" data-name="Path 832" d="M58.051,103.933a.41.41,0,0,1,.07.075.861.861,0,0,1,.137.258.848.848,0,0,1,.048.2.7.7,0,0,1,.016.229,2.324,2.324,0,0,1-.022.246,1.585,1.585,0,0,1-.075.231,1.044,1.044,0,0,1-.1.209,1.693,1.693,0,0,1-.136.16.59.59,0,0,1-.281.2.852.852,0,0,1-.315.078,2.135,2.135,0,0,1,.144-.334,1.042,1.042,0,0,1,.077-.13c.023-.05.039-.107.066-.153a1.137,1.137,0,0,1,.076-.146.694.694,0,0,0,.059-.154,1.577,1.577,0,0,0,.112-.3,1.161,1.161,0,0,0,.04-.152c.008-.052.03-.1.034-.15C58.033,104.1,58.051,103.932,58.051,103.933Z" transform="translate(-57.388 -103.933)" fill="#f1986d"/>
          </g>
        </g>
      </g>
    </g>
  </g>
  <path id="Path_833" data-name="Path 833" d="M73.466,58.595v0h-.442v0c-11.146.1-17.408,3.273-15.7,23.59l1.919,16.184a6.732,6.732,0,0,0,3.579,4.719l6.055,4.488s2.877,1.278,4.369,1.151c1.49.127,4.367-1.151,4.367-1.151l6.054-4.489a6.732,6.732,0,0,0,3.579-4.719l2.021-15.809C90.979,62.24,84.611,58.691,73.466,58.595Z" transform="translate(-42.226 -50.32)" fill="#f5af80"/>
  <g id="Group_2139" data-name="Group 2139" transform="translate(22.465 31.272)">
    <g id="Group_2135" data-name="Group 2135">
      <g id="Group_2133" data-name="Group 2133" transform="translate(0.344)">
        <path id="Path_834" data-name="Path 834" d="M68.267,92.821c.006,1.055.6,1.908,1.324,1.9s1.306-.864,1.3-1.921-.6-1.909-1.323-1.905S68.261,91.764,68.267,92.821Z" transform="translate(-68.267 -90.9)" fill="#29180d"/>
      </g>
      <g id="Group_2134" data-name="Group 2134" transform="translate(0 0.743)">
        <path id="Path_835" data-name="Path 835" d="M68.919,92.512a.568.568,0,1,1-.567-.568A.568.568,0,0,1,68.919,92.512Z" transform="translate(-67.784 -91.944)" fill="#fff"/>
      </g>
    </g>
    <g id="Group_2138" data-name="Group 2138" transform="translate(14.242)">
      <g id="Group_2136" data-name="Group 2136">
        <path id="Path_836" data-name="Path 836" d="M90.415,92.821c-.007,1.055-.6,1.908-1.324,1.9s-1.307-.864-1.3-1.921.6-1.909,1.323-1.905S90.42,91.764,90.415,92.821Z" transform="translate(-87.79 -90.9)" fill="#29180d"/>
      </g>
      <g id="Group_2137" data-name="Group 2137" transform="translate(1.833 0.743)">
        <path id="Path_837" data-name="Path 837" d="M90.365,92.512a.567.567,0,1,0,.567-.568A.568.568,0,0,0,90.365,92.512Z" transform="translate(-90.365 -91.944)" fill="#fff"/>
      </g>
    </g>
  </g>
  <g id="Group_2141" data-name="Group 2141" transform="translate(28.097 36.997)">
    <g id="Group_2140" data-name="Group 2140">
      <path id="Path_838" data-name="Path 838" d="M81.139,105.835a2.962,2.962,0,0,1-1.02.824,4.137,4.137,0,0,1-.623.25,4.7,4.7,0,0,1-.671.137,3.62,3.62,0,0,1-1.4-.105,3.572,3.572,0,0,1-.668-.243,5.491,5.491,0,0,1-.614-.351l-.45-.262.122-.535c.256-1.123.554-2.238.906-3.341.08-.277.178-.551.272-.825s.185-.55.295-.822c.206-.545.424-1.088.686-1.622.027.594.011,1.179-.017,1.761-.009.292-.036.58-.058.87s-.042.579-.078.866c-.117,1.152-.288,2.293-.5,3.425l-.328-.8c.147.073.285.167.434.231a4.13,4.13,0,0,0,.448.192c.15.066.31.1.468.154.163.029.325.084.5.1a3.417,3.417,0,0,0,.526.074c.179.014.367.034.557.036s.389.011.588,0S80.918,105.845,81.139,105.835Z" transform="translate(-75.696 -98.942)" fill="#e9946b"/>
    </g>
  </g>
  <path id="Path_839" data-name="Path 839" d="M70.908,87.6a.921.921,0,0,1-1.041.7,10.1,10.1,0,0,0-5.3.444.95.95,0,0,1-1.132-.521h0a.84.84,0,0,1,.46-1.184,11.932,11.932,0,0,1,6.246-.552.933.933,0,0,1,.77,1.11Z" transform="translate(-44.038 -58.304)" fill="#8b473c"/>
  <path id="Path_840" data-name="Path 840" d="M85.054,87.6a.92.92,0,0,0,1.04.7,10.1,10.1,0,0,1,5.3.444.951.951,0,0,0,1.132-.521h0a.84.84,0,0,0-.461-1.184,11.929,11.929,0,0,0-6.245-.552.933.933,0,0,0-.77,1.11Z" transform="translate(-50.288 -58.304)" fill="#8b473c"/>
  <path id="Path_841" data-name="Path 841" d="M87.045,83.608c-.523-1.064-.167-2.773-.4-3.96-.292-1.48-.956-2.784-1.4-4.268-1.051-3.516,1.568-7.84-1.9-10.414-1.688-1.255-5.755.139-10.115.429-5.455.363-8.13-2.851-10.513-1.684a3.67,3.67,0,0,0-2.386,2.7C59.67,68.166,58.2,69.5,57.691,71.32c-1.19,4.224.471,4.9-.894,11.04,0,0,.159-1.083-1.3-1.83,0,0-1.344-.273-1.845.753.35-.717-.361-3.191-.413-3.98a30.7,30.7,0,0,1-.107-5.82c.258-2.073.518-4.061.577-6.157a15.6,15.6,0,0,1,1.56-6.651,11.655,11.655,0,0,1,.66-1.123c1.144-1.738,2.787-1.892,3.594-3.832,1.086-2.613,1.245-4.405,4.007-5.416C67.962,46.683,69.747,46.62,73,47.7c2.02.669,3.52,1.815,5.62,2.232s4.335.187,6.214,1.086c3.788,1.809,5.507,6.554,6.234,10.282.839,4.306.072,6.537.072,10.951,0,1.907-.514,4.761-.864,8.3-.068.689-1.785.224-2.524,1.055a9.232,9.232,0,0,0-.737,2.221Z" transform="translate(-41.068 -46.973)"/>
  <g id="Group_2142" data-name="Group 2142" transform="translate(26.949 48.105)">
    <path id="Path_842" data-name="Path 842" d="M82.325,114.545s-6.154,1.667-8.242,0" transform="translate(-74.083 -114.545)" fill="none" stroke="#e59174" stroke-linecap="round" stroke-linejoin="round" stroke-width="1.5"/>
    <path id="Path_843" data-name="Path 843" d="M79.678,118.126a1.343,1.343,0,0,1-.567-.011.275.275,0,0,0,.312.3S79.646,118.435,79.678,118.126Z" transform="translate(-75.531 -115.573)" fill="#e59174"/>
    <path id="Path_844" data-name="Path 844" d="M80.508,116.967a5.771,5.771,0,0,1-2.958.023" transform="translate(-75.082 -115.243)" fill="none" stroke="#e59174" stroke-linecap="round" stroke-linejoin="round" stroke-width="1.5"/>
  </g>
</svg>
