<svg id="Group_2116" data-name="Group 2116" xmlns="http://www.w3.org/2000/svg" width="53.174" height="79.833" viewBox="0 0 53.174 79.833">
  <rect id="Rectangle_389" data-name="Rectangle 389" width="42.358" height="46.966" transform="translate(6.286 23.773)"/>
  <rect id="Rectangle_390" data-name="Rectangle 390" width="21.646" height="46.966" transform="translate(16.642 23.773)" fill="#221213"/>
  <rect id="Rectangle_391" data-name="Rectangle 391" width="7.939" height="50.937" transform="translate(6.286 21.052)"/>
  <path id="Path_790" data-name="Path 790" d="M184.063,284.789H172.457s.294,8.888-1.128,11.469h14.007C183.915,293.677,184.063,284.789,184.063,284.789Z" transform="translate(-151.746 -233.336)" fill="#f5af80"/>
  <path id="Path_791" data-name="Path 791" d="M172.706,290.251c2.161,1.02,4.34,1.994,6.817,1.759a14.034,14.034,0,0,0,5.018-1.5c-.212-2.915-.165-5.724-.165-5.724H172.77S172.857,287.431,172.706,290.251Z" transform="translate(-152.06 -233.336)" fill="#f7dcd7" style="mix-blend-mode: multiply;isolation: isolate"/>
  <g id="Group_2085" data-name="Group 2085" transform="translate(0 61.648)">
    <path id="Path_792" data-name="Path 792" d="M194.08,304.3l-16.165-6.311h-10.72L151.029,304.3s-5.661,2.029-5,11.874h53.049C199.851,305.724,194.08,304.3,194.08,304.3Z" transform="translate(-145.976 -297.988)" fill="#f5af80"/>
  </g>
  <g id="Group_2090" data-name="Group 2090" transform="translate(41.034 29.701)">
    <g id="Group_2089" data-name="Group 2089">
      <path id="Path_793" data-name="Path 793" d="M199.236,261.485c-.478,2.951.351,5.573,1.848,5.853s3.094-1.876,3.569-4.829-.352-5.573-1.851-5.856S199.71,258.533,199.236,261.485Z" transform="translate(-199.101 -256.629)" fill="#f5af80"/>
      <g id="Group_2088" data-name="Group 2088" transform="translate(1.165 1.148)">
        <g id="Group_2086" data-name="Group 2086" transform="translate(0.755)">
          <path id="Path_794" data-name="Path 794" d="M201.6,261.026s.022-.165.082-.436a5.363,5.363,0,0,1,.36-1.061c.188-.394.49-.847.87-.871a.783.783,0,0,1,.288.04c.016.012.117.052.146.076a1.12,1.12,0,0,1,.106.088,1.512,1.512,0,0,1,.361.643,3.809,3.809,0,0,1,.175.838,4.09,4.09,0,0,1,.01.845c-.046.3-.06.6-.114.857s-.1.511-.142.74c-.061.231-.107.445-.149.634s-.1.352-.134.487c-.076.27-.115.429-.115.429s.076-.135.2-.382c.057-.125.143-.27.215-.453s.161-.384.248-.61.155-.493.236-.769.121-.559.18-.858a3.966,3.966,0,0,0,.037-1.011,4.507,4.507,0,0,0-.192-1,2.071,2.071,0,0,0-.521-.865,1.136,1.136,0,0,0-.213-.154,1.361,1.361,0,0,0-.205-.084,1.147,1.147,0,0,0-.45-.021,1.17,1.17,0,0,0-.735.521,2.684,2.684,0,0,0-.355.74,4.689,4.689,0,0,0-.2,1.188A3.072,3.072,0,0,0,201.6,261.026Z" transform="translate(-201.587 -258.115)" fill="#f1986d"/>
        </g>
        <path id="Path_795" data-name="Path 795" d="M201.464,261.769s-.137-.316.847-.389c0,0,1.1.2.453,1.671a4.793,4.793,0,0,0-.329.989c-.1.493.077,1.161-.187,1.6-.341.563-1.208.242-1.26-.4a3.688,3.688,0,0,1,.7-1.692A1.321,1.321,0,0,0,201.464,261.769Z" transform="translate(-200.695 -258.858)" fill="#f1986d"/>
        <g id="Group_2087" data-name="Group 2087" transform="translate(0 6.314)">
          <path id="Path_796" data-name="Path 796" d="M200.9,266.29a.569.569,0,0,0-.076.08.93.93,0,0,0-.144.276.848.848,0,0,0-.052.209.75.75,0,0,0-.018.243c.007.083.009.175.023.263a1.982,1.982,0,0,0,.08.246,1.2,1.2,0,0,0,.112.225,2,2,0,0,0,.146.17.63.63,0,0,0,.3.214.9.9,0,0,0,.337.083,2.134,2.134,0,0,0-.154-.358.921.921,0,0,0-.083-.138c-.024-.053-.042-.114-.07-.164a1.053,1.053,0,0,0-.082-.155.81.81,0,0,1-.063-.165,1.731,1.731,0,0,1-.12-.321,1.31,1.31,0,0,1-.042-.164c-.007-.054-.032-.109-.036-.161C200.923,266.472,200.9,266.29,200.9,266.29Z" transform="translate(-200.609 -266.29)" fill="#f1986d"/>
        </g>
      </g>
    </g>
  </g>
  <g id="Group_2095" data-name="Group 2095" transform="translate(7.133 29.701)">
    <g id="Group_2094" data-name="Group 2094">
      <path id="Path_797" data-name="Path 797" d="M160.76,261.485c.477,2.951-.351,5.573-1.848,5.853s-3.093-1.876-3.568-4.829.352-5.573,1.85-5.856S160.287,258.533,160.76,261.485Z" transform="translate(-155.211 -256.629)" fill="#f5af80"/>
      <g id="Group_2093" data-name="Group 2093" transform="translate(0.873 1.148)">
        <g id="Group_2091" data-name="Group 2091">
          <path id="Path_798" data-name="Path 798" d="M159.218,261.026s-.022-.165-.081-.436a5.424,5.424,0,0,0-.361-1.061c-.188-.394-.49-.847-.87-.871a.786.786,0,0,0-.288.04c-.015.012-.116.052-.146.076a1.226,1.226,0,0,0-.106.088,1.527,1.527,0,0,0-.361.643,3.808,3.808,0,0,0-.176.838,4.087,4.087,0,0,0-.009.845c.046.3.06.6.114.857s.1.511.142.74c.061.231.107.445.149.634s.1.352.134.487c.077.27.116.429.116.429s-.078-.135-.2-.382c-.057-.125-.142-.27-.215-.453s-.161-.384-.247-.61-.155-.493-.235-.769-.121-.559-.181-.858a3.93,3.93,0,0,1-.036-1.011,4.42,4.42,0,0,1,.191-1,2.072,2.072,0,0,1,.522-.865,1.155,1.155,0,0,1,.212-.154,1.35,1.35,0,0,1,.2-.084,1.152,1.152,0,0,1,.451-.021,1.168,1.168,0,0,1,.735.521,2.688,2.688,0,0,1,.355.74,4.684,4.684,0,0,1,.2,1.188A2.937,2.937,0,0,1,159.218,261.026Z" transform="translate(-156.341 -258.115)" fill="#f1986d"/>
        </g>
        <path id="Path_799" data-name="Path 799" d="M159.623,261.769s.138-.316-.847-.389c0,0-1.1.2-.453,1.671a4.749,4.749,0,0,1,.329.989c.1.493-.077,1.161.187,1.6.341.563,1.209.242,1.259-.4a3.686,3.686,0,0,0-.7-1.692A1.321,1.321,0,0,1,159.623,261.769Z" transform="translate(-156.746 -258.858)" fill="#f1986d"/>
        <g id="Group_2092" data-name="Group 2092" transform="translate(2.644 6.314)">
          <path id="Path_800" data-name="Path 800" d="M160.472,266.29a.458.458,0,0,1,.076.08.93.93,0,0,1,.144.276.882.882,0,0,1,.053.209.772.772,0,0,1,.017.243,2.644,2.644,0,0,1-.023.263,1.984,1.984,0,0,1-.08.246,1.2,1.2,0,0,1-.111.225,1.873,1.873,0,0,1-.147.17.63.63,0,0,1-.3.214.908.908,0,0,1-.337.083,2.3,2.3,0,0,1,.154-.358A.923.923,0,0,1,160,267.8c.024-.053.042-.114.07-.164a1.051,1.051,0,0,1,.082-.155.857.857,0,0,0,.063-.165,1.732,1.732,0,0,0,.12-.321,1.467,1.467,0,0,0,.043-.164c.007-.054.031-.109.036-.161C160.453,266.472,160.472,266.29,160.472,266.29Z" transform="translate(-159.764 -266.29)" fill="#f1986d"/>
        </g>
      </g>
    </g>
  </g>
  <g id="Group_2096" data-name="Group 2096" transform="translate(9.988 4.702)">
    <path id="Path_801" data-name="Path 801" d="M190.556,230.149s-5.092-5.578-15.113-5.886c-10.014.524-15.087,6.3-15.087,6.3-2.725,8.778-.981,19.069.178,27.974.856,6.576,5.279,11.178,10.853,14.381a7.856,7.856,0,0,0,9.156-.1c5.416-3.672,9.562-8.209,10.6-14.893a98.947,98.947,0,0,0,.9-17.976A35.481,35.481,0,0,0,190.556,230.149Z" transform="translate(-158.907 -224.263)" fill="#f5af80"/>
  </g>
  <g id="Group_2102" data-name="Group 2102" transform="translate(14.885 26.383)">
    <g id="Group_2101" data-name="Group 2101">
      <g id="Group_2098" data-name="Group 2098">
        <g id="Group_2097" data-name="Group 2097">
          <path id="Path_802" data-name="Path 802" d="M172.529,254.5a10.776,10.776,0,0,0-7.282.493c.729-3.952,7.572-2.33,7.572-2.33s.452.107.4.814C173.221,253.477,173.041,254.691,172.529,254.5Z" transform="translate(-165.247 -252.333)" fill="#361e21"/>
        </g>
      </g>
      <g id="Group_2100" data-name="Group 2100" transform="translate(14.933)">
        <g id="Group_2099" data-name="Group 2099">
          <path id="Path_803" data-name="Path 803" d="M185.276,254.5a12.347,12.347,0,0,1,7.774.493c-.729-3.952-8.065-2.33-8.065-2.33s-.451.107-.4.814C184.584,253.477,184.765,254.691,185.276,254.5Z" transform="translate(-184.58 -252.333)" fill="#361e21"/>
        </g>
      </g>
    </g>
  </g>
  <g id="Group_2109" data-name="Group 2109" transform="translate(17.25 30.142)">
    <g id="Group_2105" data-name="Group 2105">
      <g id="Group_2103" data-name="Group 2103" transform="translate(0.373)">
        <path id="Path_804" data-name="Path 804" d="M168.792,259.284c.008,1.146.65,2.071,1.436,2.066s1.419-.938,1.411-2.082-.65-2.072-1.435-2.068S168.786,258.138,168.792,259.284Z" transform="translate(-168.792 -257.2)" fill="#29180d"/>
      </g>
      <g id="Group_2104" data-name="Group 2104" transform="translate(0 0.807)">
        <path id="Path_805" data-name="Path 805" d="M169.541,258.862a.616.616,0,1,1-.616-.617A.616.616,0,0,1,169.541,258.862Z" transform="translate(-168.309 -258.245)" fill="#fff"/>
      </g>
    </g>
    <g id="Group_2108" data-name="Group 2108" transform="translate(15.453)">
      <g id="Group_2106" data-name="Group 2106">
        <path id="Path_806" data-name="Path 806" d="M191.163,259.284c-.008,1.146-.65,2.071-1.437,2.066s-1.418-.938-1.411-2.082.65-2.072,1.436-2.068S191.169,258.138,191.163,259.284Z" transform="translate(-188.315 -257.2)" fill="#29180d"/>
      </g>
      <g id="Group_2107" data-name="Group 2107" transform="translate(1.988 0.807)">
        <path id="Path_807" data-name="Path 807" d="M190.889,258.862a.616.616,0,1,0,.616-.617A.616.616,0,0,0,190.889,258.862Z" transform="translate(-190.889 -258.245)" fill="#fff"/>
      </g>
    </g>
  </g>
  <g id="Group_2113" data-name="Group 2113" transform="translate(22.166 44.221)">
    <g id="Group_2112" data-name="Group 2112">
      <path id="Path_808" data-name="Path 808" d="M175.782,276.631c.008,1.108,1.577,2.005,3.513,2.005s3.507-.9,3.514-2.005Z" transform="translate(-174.925 -275.701)" fill="#fff"/>
      <g id="Group_2110" data-name="Group 2110" transform="translate(0.021)">
        <path id="Path_809" data-name="Path 809" d="M182.376,276.666a3.634,3.634,0,0,0,1.145-.423s-.573-.241-1.378-.484c-2.071-.874-1.929.258-3.032.255-.552.017-1.1-.585-1.62-.512a10.213,10.213,0,0,0-1.412.26,6.956,6.956,0,0,0-1.38.482,4.251,4.251,0,0,0,1.251.484,14.377,14.377,0,0,1,2.248.11,3.552,3.552,0,0,0,1.565.04,10.673,10.673,0,0,1,2.612-.211" transform="translate(-174.7 -275.427)" fill="#e8636b"/>
      </g>
      <g id="Group_2111" data-name="Group 2111" transform="translate(0 0.814)">
        <path id="Path_810" data-name="Path 810" d="M182.823,276.481a5.382,5.382,0,0,1-4.028,1.593,5.156,5.156,0,0,1-3.416-1.593h-.706c.025.056.042.109.07.167a7.165,7.165,0,0,0,.6,1.037c.129.174.261.353.4.534a5.477,5.477,0,0,0,.5.5l.268.249.317.211a2.667,2.667,0,0,0,.7.385,5.815,5.815,0,0,0,.806.257l.345.046.174.023.087.012.043.005.117.008.82-.1a5.982,5.982,0,0,0,.766-.255,2.765,2.765,0,0,0,.679-.381l.317-.209.269-.25a5.455,5.455,0,0,0,.5-.5c.137-.182.27-.361.4-.535a6.913,6.913,0,0,0,.6-1.04c.029-.054.046-.107.07-.163Z" transform="translate(-174.673 -276.481)" fill="#e8636b"/>
      </g>
    </g>
    <path id="Path_811" data-name="Path 811" d="M180.274,279.36c2.878-.192,3.411-1.865,3.411-1.865a4.145,4.145,0,0,1-3.411,1.394.222.222,0,0,0-.19.25S180.128,279.372,180.274,279.36Z" transform="translate(-175.904 -275.898)" fill="#fff"/>
  </g>
  <path id="Path_812" data-name="Path 812" d="M199.017,244.1s.879-22.5-16.639-25.692c0,0-12.423-1.984-17.083,5.721l4.66,11.8s-.083,4.215,19.386,8.368c0,0,3.986,1.019,4.232,8.456A13.913,13.913,0,0,1,199.017,244.1Z" transform="translate(-150.373 -218.176)"/>
  <path id="Path_813" data-name="Path 813" d="M177.778,269.939s.026,0,.076-.015.121-.037.2-.049c.168-.037.392-.079.636-.121s.5-.069.756-.081.508-.022.753-.022.484.026.724.049c.122.019.241.026.36.042s.243.037.358.048.236.044.342.056a2.822,2.822,0,0,1,.287.039c.082.008.161.032.209.04s.078.015.078.015l-.02.074a1.366,1.366,0,0,1-.066.2,1.888,1.888,0,0,1-.385.619,1.752,1.752,0,0,1-.358.313,2.047,2.047,0,0,1-.463.256,2.133,2.133,0,0,1-.541.16,2.284,2.284,0,0,1-.575.047,2.694,2.694,0,0,1-.566-.073,2.626,2.626,0,0,1-.517-.175,2.535,2.535,0,0,1-.788-.555,2.21,2.21,0,0,1-.406-.591,1.253,1.253,0,0,1-.076-.2Z" transform="translate(-153.214 -229.891)" fill="#f29776"/>
  <g id="Group_2115" data-name="Group 2115" transform="translate(5.42 62.169)">
    <g id="Group_2114" data-name="Group 2114">
      <path id="Path_814" data-name="Path 814" d="M191.149,316.327c-.044-4.645.256-9.308,4-12.081l-13.982-5.459-7.244,6.673-6.465-6.8-14.46,5.646c2.74,1.552,3.537,5.517,3.753,8.4a33.042,33.042,0,0,1,.087,3.62Z" transform="translate(-152.993 -298.663)" fill="#3063a4"/>
    </g>
  </g>
  <path id="Path_815" data-name="Path 815" d="M169.994,236.467s-10.848,2.3-10.806,17.6c0,0-.463-4.918-3.354-4.253,0,0-8.1-20.333,10.868-26.062Z" transform="translate(-147.829 -219.445)"/>
  <path id="Path_816" data-name="Path 816" d="M168.792,235.972l.96,5.5,1.339-.707Z" transform="translate(-151.169 -222.226)" fill="#f5af80"/>
</svg>
