<svg xmlns="http://www.w3.org/2000/svg" width="32.409" height="21.853" viewBox="0 0 32.409 21.853">
  <g id="Group_2413" data-name="Group 2413" transform="translate(-297.356 -692.19)">
    <g id="Group_2395" data-name="Group 2395" transform="translate(297.356 692.19)">
      <g id="Group_2121" data-name="Group 2121" transform="translate(0 14.01)">
        <rect id="Rectangle_392" data-name="Rectangle 392" width="4.182" height="1.54" transform="translate(6.02 1.815)" fill="#6bb1c5"/>
        <path id="Path_817" data-name="Path 817" d="M72.458,122.094h-3.4a7.458,7.458,0,0,1-.33,2.769h4.1A7.712,7.712,0,0,1,72.458,122.094Z" transform="translate(-62.668 -122.094)" fill="#f5af80"/>
        <path id="Path_818" data-name="Path 818" d="M70.27,123.715a3.616,3.616,0,0,0,1.79.475,4.256,4.256,0,0,0,1.734-.388,13.821,13.821,0,0,1-.083-1.708h-3.4A13.689,13.689,0,0,1,70.27,123.715Z" transform="translate(-63.921 -122.094)" fill="#f7dcd7" style="mix-blend-mode: multiply;isolation: isolate"/>
        <g id="Group_2117" data-name="Group 2117" transform="translate(0 2.489)">
          <path id="Path_819" data-name="Path 819" d="M50.906,137.2l-4.932-1.767H42.7L37.77,137.2s-1.727.568-1.525,3.325H52.431C52.667,137.6,50.906,137.2,50.906,137.2Z" transform="translate(-36.228 -135.438)" fill="#f5af80"/>
        </g>
        <g id="Group_2118" data-name="Group 2118" transform="translate(0 2.788)">
          <path id="Path_820" data-name="Path 820" d="M50.906,138.512l-4.031-1.444-2.534,1.767-2.475-1.79-4.1,1.467s-1.727.568-1.525,3.325H52.431C52.667,138.911,50.906,138.512,50.906,138.512Z" transform="translate(-36.228 -137.045)" fill="#3063a4"/>
        </g>
        <g id="Group_2119" data-name="Group 2119" transform="translate(4.914 1.815)">
          <path id="Path_821" data-name="Path 821" d="M69.483,134.59l-.332-1.7-1.76-1.064-.256,1.071Z" transform="translate(-66.284 -131.827)" fill="#6bb1c5"/>
          <path id="Path_822" data-name="Path 822" d="M65.444,132.891l-.832,1.524-2.034-1.382,1.106-1.207Z" transform="translate(-62.578 -131.827)" fill="#c2e3e5"/>
        </g>
        <g id="Group_2120" data-name="Group 2120" transform="translate(8.112 1.815)">
          <path id="Path_823" data-name="Path 823" d="M79.725,134.59l.332-1.7,1.76-1.064.256,1.071Z" transform="translate(-79.725 -131.827)" fill="#6bb1c5"/>
          <path id="Path_824" data-name="Path 824" d="M81.507,132.891l.832,1.524,2.034-1.382-1.106-1.207Z" transform="translate(-81.175 -131.827)" fill="#c2e3e5"/>
        </g>
      </g>
      <g id="Group_2132" data-name="Group 2132" transform="translate(3.083 8.791)">
        <g id="Group_2126" data-name="Group 2126" transform="translate(8.718)">
          <g id="Group_2125" data-name="Group 2125">
            <path id="Path_825" data-name="Path 825" d="M99.536,95.3c-.117.724.086,1.368.453,1.437s.759-.461.876-1.186-.087-1.368-.454-1.437S99.652,94.578,99.536,95.3Z" transform="translate(-99.503 -94.11)" fill="#f5af80"/>
            <g id="Group_2124" data-name="Group 2124" transform="translate(0.286 0.282)">
              <g id="Group_2122" data-name="Group 2122" transform="translate(0.185)">
                <path id="Path_826" data-name="Path 826" d="M102.033,96.336s.005-.04.02-.107a1.314,1.314,0,0,1,.088-.261c.046-.1.12-.208.214-.214a.2.2,0,0,1,.071.01.353.353,0,0,1,.036.018.256.256,0,0,1,.026.022.374.374,0,0,1,.089.158.933.933,0,0,1,.043.206,1.01,1.01,0,0,1,0,.208c-.012.073-.015.147-.028.21l-.035.182c-.015.056-.026.109-.037.156s-.024.086-.033.119c-.019.066-.028.105-.028.105s.019-.033.049-.094c.014-.031.035-.067.053-.111s.04-.094.061-.15.038-.121.058-.188.03-.137.044-.211a.962.962,0,0,0,.009-.248,1.113,1.113,0,0,0-.047-.245.508.508,0,0,0-.128-.212.26.26,0,0,0-.052-.038.33.33,0,0,0-.05-.02.28.28,0,0,0-.111-.005.289.289,0,0,0-.18.128.688.688,0,0,0-.087.182,1.157,1.157,0,0,0-.049.291A.719.719,0,0,0,102.033,96.336Z" transform="translate(-102.03 -95.622)" fill="#f1986d"/>
              </g>
              <path id="Path_827" data-name="Path 827" d="M101.537,99.034s-.034-.077.208-.1c0,0,.27.05.111.41a1.175,1.175,0,0,0-.081.243c-.024.121.019.285-.046.392-.084.139-.3.06-.309-.1a.913.913,0,0,1,.172-.416A.324.324,0,0,0,101.537,99.034Z" transform="translate(-101.348 -98.32)" fill="#f1986d"/>
              <g id="Group_2123" data-name="Group 2123" transform="translate(0 1.55)">
                <path id="Path_828" data-name="Path 828" d="M101.108,103.933a.121.121,0,0,0-.019.02.23.23,0,0,0-.036.068.223.223,0,0,0-.012.051.184.184,0,0,0,0,.06c0,.021,0,.043.006.065a.5.5,0,0,0,.02.06.274.274,0,0,0,.027.055.473.473,0,0,0,.036.042.155.155,0,0,0,.074.052.223.223,0,0,0,.082.02.54.54,0,0,0-.038-.087.22.22,0,0,0-.02-.034c-.006-.013-.01-.028-.017-.04a.353.353,0,0,0-.02-.038.2.2,0,0,1-.016-.04.425.425,0,0,1-.029-.079.336.336,0,0,1-.01-.04c0-.014-.008-.027-.009-.039C101.113,103.977,101.108,103.933,101.108,103.933Z" transform="translate(-101.036 -103.933)" fill="#f1986d"/>
              </g>
            </g>
          </g>
        </g>
        <g id="Group_2131" data-name="Group 2131">
          <g id="Group_2130" data-name="Group 2130">
            <path id="Path_829" data-name="Path 829" d="M54.121,95.3c.117.724-.086,1.368-.454,1.437s-.759-.461-.876-1.186.087-1.368.454-1.437S54,94.578,54.121,95.3Z" transform="translate(-52.759 -94.11)" fill="#f5af80"/>
            <g id="Group_2129" data-name="Group 2129" transform="translate(0.214 0.282)">
              <g id="Group_2127" data-name="Group 2127">
                <path id="Path_830" data-name="Path 830" d="M54.614,96.336s-.006-.04-.02-.107a1.314,1.314,0,0,0-.088-.261c-.046-.1-.12-.208-.213-.214a.2.2,0,0,0-.071.01.374.374,0,0,0-.035.018.238.238,0,0,0-.026.022.372.372,0,0,0-.089.158.943.943,0,0,0-.043.206,1.008,1.008,0,0,0,0,.208c.011.073.015.147.028.21l.035.182c.015.056.026.109.037.156s.024.086.033.119c.019.066.028.105.028.105s-.019-.033-.049-.094c-.014-.031-.035-.067-.053-.111s-.04-.094-.061-.15-.038-.121-.058-.188-.03-.137-.044-.211a.963.963,0,0,1-.009-.248,1.091,1.091,0,0,1,.047-.245.507.507,0,0,1,.128-.212.254.254,0,0,1,.052-.038.322.322,0,0,1,.05-.02.28.28,0,0,1,.111-.005.288.288,0,0,1,.18.128.671.671,0,0,1,.087.182,1.16,1.16,0,0,1,.049.291A.731.731,0,0,1,54.614,96.336Z" transform="translate(-53.908 -95.622)" fill="#f1986d"/>
              </g>
              <path id="Path_831" data-name="Path 831" d="M56.084,99.034s.034-.077-.208-.1c0,0-.27.05-.111.41a1.186,1.186,0,0,1,.081.243c.024.121-.019.285.046.392.084.139.3.06.309-.1a.911.911,0,0,0-.172-.416A.324.324,0,0,1,56.084,99.034Z" transform="translate(-55.378 -98.32)" fill="#f1986d"/>
              <g id="Group_2128" data-name="Group 2128" transform="translate(0.649 1.55)">
                <path id="Path_832" data-name="Path 832" d="M57.562,103.933a.108.108,0,0,1,.018.02.225.225,0,0,1,.036.068.222.222,0,0,1,.012.051.184.184,0,0,1,0,.06.607.607,0,0,1-.006.065.416.416,0,0,1-.02.06.274.274,0,0,1-.027.055.444.444,0,0,1-.036.042.155.155,0,0,1-.074.052.223.223,0,0,1-.083.02.56.56,0,0,1,.038-.087.274.274,0,0,1,.02-.034c.006-.013.01-.028.017-.04a.3.3,0,0,1,.02-.038.181.181,0,0,0,.015-.04.413.413,0,0,0,.029-.079.3.3,0,0,0,.01-.04c0-.014.008-.027.009-.039C57.557,103.977,57.562,103.933,57.562,103.933Z" transform="translate(-57.388 -103.933)" fill="#f1986d"/>
              </g>
            </g>
          </g>
        </g>
      </g>
      <path id="Path_833" data-name="Path 833" d="M61.349,58.592h-.116c-2.92.026-4.561.857-4.112,6.18l.5,4.24a1.764,1.764,0,0,0,.938,1.236l1.586,1.176a2.322,2.322,0,0,0,2.289,0l1.586-1.176a1.764,1.764,0,0,0,.938-1.236l.529-4.142C65.937,59.547,64.269,58.617,61.349,58.592Z" transform="translate(-53.165 -56.424)" fill="#f5af80"/>
      <g id="Group_2139" data-name="Group 2139" transform="translate(5.885 8.192)">
        <g id="Group_2135" data-name="Group 2135">
          <g id="Group_2133" data-name="Group 2133" transform="translate(0.09)">
            <path id="Path_834" data-name="Path 834" d="M68.267,91.4c0,.276.157.5.347.5s.342-.226.341-.5-.157-.5-.347-.5S68.265,91.126,68.267,91.4Z" transform="translate(-68.267 -90.9)" fill="#29180d"/>
          </g>
          <g id="Group_2134" data-name="Group 2134" transform="translate(0 0.195)">
            <path id="Path_835" data-name="Path 835" d="M68.081,92.093a.149.149,0,1,1-.149-.149A.149.149,0,0,1,68.081,92.093Z" transform="translate(-67.784 -91.944)" fill="#fff"/>
          </g>
        </g>
        <g id="Group_2138" data-name="Group 2138" transform="translate(3.731)">
          <g id="Group_2136" data-name="Group 2136">
            <path id="Path_836" data-name="Path 836" d="M88.478,91.4c0,.276-.157.5-.347.5s-.342-.226-.341-.5.157-.5.347-.5S88.479,91.126,88.478,91.4Z" transform="translate(-87.79 -90.9)" fill="#29180d"/>
          </g>
          <g id="Group_2137" data-name="Group 2137" transform="translate(0.48 0.195)">
            <path id="Path_837" data-name="Path 837" d="M90.365,92.093a.149.149,0,1,0,.149-.149A.149.149,0,0,0,90.365,92.093Z" transform="translate(-90.365 -91.944)" fill="#fff"/>
          </g>
        </g>
      </g>
      <g id="Group_2141" data-name="Group 2141" transform="translate(7.361 9.692)">
        <g id="Group_2140" data-name="Group 2140">
          <path id="Path_838" data-name="Path 838" d="M77.122,100.748a.776.776,0,0,1-.267.216,1.084,1.084,0,0,1-.163.065,1.233,1.233,0,0,1-.176.036.949.949,0,0,1-.366-.028.936.936,0,0,1-.175-.064,1.437,1.437,0,0,1-.161-.092l-.118-.069.032-.14c.067-.294.145-.586.237-.875.021-.073.047-.144.071-.216s.048-.144.077-.215c.054-.143.111-.285.18-.425.007.156,0,.309,0,.461,0,.076-.01.152-.015.228s-.011.152-.021.227c-.031.3-.075.6-.131.9l-.086-.209c.039.019.075.044.114.061a1.082,1.082,0,0,0,.117.05c.039.017.081.025.123.04s.085.022.13.027a.9.9,0,0,0,.138.019c.047,0,.1.009.146.009s.1,0,.154,0S77.064,100.751,77.122,100.748Z" transform="translate(-75.696 -98.942)" fill="#e9946b"/>
        </g>
      </g>
      <path id="Path_839" data-name="Path 839" d="M65.32,86.643a.241.241,0,0,1-.273.184,2.645,2.645,0,0,0-1.389.116.249.249,0,0,1-.3-.137h0a.22.22,0,0,1,.12-.31,3.126,3.126,0,0,1,1.636-.145.244.244,0,0,1,.2.291Z" transform="translate(-58.281 -78.968)" fill="#8b473c"/>
      <path id="Path_840" data-name="Path 840" d="M85.036,86.643a.241.241,0,0,0,.272.184,2.646,2.646,0,0,1,1.389.116.249.249,0,0,0,.3-.137h0a.22.22,0,0,0-.121-.31,3.125,3.125,0,0,0-1.636-.145.244.244,0,0,0-.2.291Z" transform="translate(-75.929 -78.968)" fill="#8b473c"/>
      <path id="Path_841" data-name="Path 841" d="M61.938,56.571c-.137-.279-.044-.726-.105-1.038-.076-.388-.25-.729-.366-1.118-.275-.921.411-2.054-.5-2.728-.442-.329-1.508.036-2.65.112-1.429.1-2.13-.747-2.754-.441a.961.961,0,0,0-.625.708c-.174.459-.558.808-.693,1.286-.312,1.107.123,1.283-.234,2.892,0,0,.042-.284-.34-.479,0,0-.352-.072-.483.2.092-.188-.095-.836-.108-1.043a8.042,8.042,0,0,1-.028-1.525c.068-.543.136-1.064.151-1.613a4.086,4.086,0,0,1,.409-1.742,3.054,3.054,0,0,1,.173-.294c.3-.455.73-.5.941-1,.285-.684.326-1.154,1.05-1.419a3.1,3.1,0,0,1,2.479-.159,12.083,12.083,0,0,0,1.472.585,6.8,6.8,0,0,1,1.628.284,3.672,3.672,0,0,1,1.633,2.694,12.518,12.518,0,0,1,.019,2.869c0,.5-.135,1.247-.226,2.173-.018.181-.468.059-.661.276a2.418,2.418,0,0,0-.193.582Z" transform="translate(-49.893 -46.973)"/>
      <g id="Group_2142" data-name="Group 2142" transform="translate(7.06 12.602)">
        <path id="Path_842" data-name="Path 842" d="M76.242,114.545s-1.612.437-2.159,0" transform="translate(-74.083 -114.545)" fill="none" stroke="#e59174" stroke-linecap="round" stroke-linejoin="round" stroke-width="1.5"/>
        <path id="Path_843" data-name="Path 843" d="M79.259,118.118a.352.352,0,0,1-.149,0,.072.072,0,0,0,.082.078S79.25,118.2,79.259,118.118Z" transform="translate(-78.172 -117.449)" fill="#e59174"/>
        <path id="Path_844" data-name="Path 844" d="M78.325,116.967a1.512,1.512,0,0,1-.775.006" transform="translate(-76.903 -116.515)" fill="none" stroke="#e59174" stroke-linecap="round" stroke-linejoin="round" stroke-width="1.5"/>
      </g>
    </g>
    <g id="Group_2394" data-name="Group 2394" transform="translate(315.835 693.129)">
      <rect id="Rectangle_389" data-name="Rectangle 389" width="11.097" height="12.304" transform="translate(1.647 6.228)"/>
      <rect id="Rectangle_390" data-name="Rectangle 390" width="5.671" height="12.304" transform="translate(4.36 6.228)" fill="#221213"/>
      <rect id="Rectangle_391" data-name="Rectangle 391" width="2.08" height="13.344" transform="translate(1.647 5.515)"/>
      <path id="Path_790" data-name="Path 790" d="M174.665,284.789h-3.041a9.732,9.732,0,0,1-.3,3H175A10.052,10.052,0,0,1,174.665,284.789Z" transform="translate(-166.199 -271.31)" fill="#f5af80"/>
      <path id="Path_791" data-name="Path 791" d="M172.706,286.22a3.406,3.406,0,0,0,1.786.461,3.677,3.677,0,0,0,1.314-.392c-.055-.764-.043-1.5-.043-1.5h-3.04S172.745,285.481,172.706,286.22Z" transform="translate(-167.297 -271.31)" fill="#f7dcd7" style="mix-blend-mode: multiply;isolation: isolate"/>
      <g id="Group_2085" data-name="Group 2085" transform="translate(0 16.15)">
        <path id="Path_792" data-name="Path 792" d="M158.578,299.641l-4.235-1.653h-2.808l-4.235,1.653s-1.483.532-1.31,3.111h13.9C160.09,300.015,158.578,299.641,158.578,299.641Z" transform="translate(-145.976 -297.988)" fill="#f5af80"/>
      </g>
      <g id="Group_2090" data-name="Group 2090" transform="translate(10.75 7.781)">
        <g id="Group_2089" data-name="Group 2089">
          <path id="Path_793" data-name="Path 793" d="M199.136,257.9c-.125.773.092,1.46.484,1.533s.81-.492.935-1.265-.092-1.46-.485-1.534S199.26,257.128,199.136,257.9Z" transform="translate(-199.101 -256.629)" fill="#f5af80"/>
          <g id="Group_2088" data-name="Group 2088" transform="translate(0.305 0.301)">
            <g id="Group_2086" data-name="Group 2086" transform="translate(0.198)">
              <path id="Path_794" data-name="Path 794" d="M201.591,258.878s.006-.043.021-.114a1.4,1.4,0,0,1,.094-.278c.049-.1.128-.222.228-.228a.2.2,0,0,1,.075.011s.031.014.038.02a.289.289,0,0,1,.028.023.4.4,0,0,1,.095.169,1,1,0,0,1,.046.22,1.072,1.072,0,0,1,0,.221c-.012.078-.016.157-.03.225s-.025.134-.037.194-.028.117-.039.166-.026.092-.035.127c-.02.071-.03.112-.03.112s.02-.035.053-.1c.015-.033.037-.071.056-.119s.042-.1.065-.16.041-.129.062-.2.032-.147.047-.225a1.038,1.038,0,0,0,.01-.265,1.181,1.181,0,0,0-.05-.262.542.542,0,0,0-.137-.227.3.3,0,0,0-.056-.04.355.355,0,0,0-.054-.022.3.3,0,0,0-.118-.005.307.307,0,0,0-.192.136.7.7,0,0,0-.093.194,1.23,1.23,0,0,0-.053.311A.8.8,0,0,0,201.591,258.878Z" transform="translate(-201.587 -258.115)" fill="#f1986d"/>
            </g>
            <path id="Path_795" data-name="Path 795" d="M201.112,261.482s-.036-.083.222-.1c0,0,.288.053.119.438a1.258,1.258,0,0,0-.086.259c-.026.129.02.3-.049.419-.089.148-.316.063-.33-.106a.966.966,0,0,1,.184-.443A.346.346,0,0,0,201.112,261.482Z" transform="translate(-200.911 -260.719)" fill="#f1986d"/>
            <g id="Group_2087" data-name="Group 2087" transform="translate(0 1.654)">
              <path id="Path_796" data-name="Path 796" d="M200.686,266.29a.147.147,0,0,0-.02.021.244.244,0,0,0-.038.072.222.222,0,0,0-.014.055.2.2,0,0,0,0,.064c0,.022,0,.046.006.069a.514.514,0,0,0,.021.064.314.314,0,0,0,.029.059.526.526,0,0,0,.038.045.165.165,0,0,0,.079.056.237.237,0,0,0,.088.022.559.559,0,0,0-.04-.094.241.241,0,0,0-.022-.036c-.006-.014-.011-.03-.018-.043a.275.275,0,0,0-.021-.04.211.211,0,0,1-.017-.043.453.453,0,0,1-.031-.084.342.342,0,0,1-.011-.043c0-.014-.008-.029-.01-.042C200.691,266.338,200.686,266.29,200.686,266.29Z" transform="translate(-200.609 -266.29)" fill="#f1986d"/>
            </g>
          </g>
        </g>
      </g>
      <g id="Group_2095" data-name="Group 2095" transform="translate(1.869 7.781)">
        <g id="Group_2094" data-name="Group 2094">
          <path id="Path_797" data-name="Path 797" d="M156.665,257.9c.125.773-.092,1.46-.484,1.533s-.81-.492-.935-1.265.092-1.46.485-1.534S156.541,257.128,156.665,257.9Z" transform="translate(-155.211 -256.629)" fill="#f5af80"/>
          <g id="Group_2093" data-name="Group 2093" transform="translate(0.229 0.301)">
            <g id="Group_2091" data-name="Group 2091">
              <path id="Path_798" data-name="Path 798" d="M157.095,258.878s-.006-.043-.021-.114a1.422,1.422,0,0,0-.094-.278c-.049-.1-.128-.222-.228-.228a.205.205,0,0,0-.075.011s-.03.014-.038.02a.316.316,0,0,0-.028.023.4.4,0,0,0-.095.169,1,1,0,0,0-.046.22,1.069,1.069,0,0,0,0,.221c.012.078.016.157.03.225l.037.194c.016.06.028.117.039.166s.026.092.035.127c.02.071.03.112.03.112s-.02-.035-.053-.1c-.015-.033-.037-.071-.056-.119s-.042-.1-.065-.16-.041-.129-.062-.2-.032-.147-.047-.225a1.029,1.029,0,0,1-.01-.265,1.158,1.158,0,0,1,.05-.262.543.543,0,0,1,.137-.227.3.3,0,0,1,.056-.04.352.352,0,0,1,.054-.022.3.3,0,0,1,.118-.005.306.306,0,0,1,.192.136.7.7,0,0,1,.093.194,1.227,1.227,0,0,1,.053.311A.767.767,0,0,1,157.095,258.878Z" transform="translate(-156.341 -258.115)" fill="#f1986d"/>
            </g>
            <path id="Path_799" data-name="Path 799" d="M158.512,261.482s.036-.083-.222-.1c0,0-.288.053-.119.438a1.246,1.246,0,0,1,.086.259c.026.129-.02.3.049.419.089.148.317.063.33-.106a.965.965,0,0,0-.184-.443A.346.346,0,0,1,158.512,261.482Z" transform="translate(-157.758 -260.719)" fill="#f1986d"/>
            <g id="Group_2092" data-name="Group 2092" transform="translate(0.693 1.654)">
              <path id="Path_800" data-name="Path 800" d="M159.949,266.29a.119.119,0,0,1,.02.021.243.243,0,0,1,.038.072.231.231,0,0,1,.014.055.2.2,0,0,1,0,.064.688.688,0,0,1-.006.069.514.514,0,0,1-.021.064.314.314,0,0,1-.029.059.5.5,0,0,1-.038.045.165.165,0,0,1-.079.056.238.238,0,0,1-.088.022.6.6,0,0,1,.04-.094.244.244,0,0,1,.022-.036c.006-.014.011-.03.018-.043a.276.276,0,0,1,.021-.04.224.224,0,0,0,.016-.043.453.453,0,0,0,.031-.084.385.385,0,0,0,.011-.043c0-.014.008-.029.009-.042C159.945,266.338,159.95,266.29,159.949,266.29Z" transform="translate(-159.764 -266.29)" fill="#f1986d"/>
            </g>
          </g>
        </g>
      </g>
      <g id="Group_2096" data-name="Group 2096" transform="translate(2.617 1.232)">
        <path id="Path_801" data-name="Path 801" d="M167.2,225.8a5.787,5.787,0,0,0-3.959-1.542,5.858,5.858,0,0,0-3.952,1.65c-.714,2.3-.257,5,.047,7.329a5.173,5.173,0,0,0,2.843,3.767,2.058,2.058,0,0,0,2.4-.026,5.748,5.748,0,0,0,2.776-3.9,25.921,25.921,0,0,0,.235-4.709A9.3,9.3,0,0,0,167.2,225.8Z" transform="translate(-158.907 -224.263)" fill="#f5af80"/>
      </g>
      <g id="Group_2102" data-name="Group 2102" transform="translate(3.899 6.912)">
        <g id="Group_2101" data-name="Group 2101">
          <g id="Group_2098" data-name="Group 2098">
            <g id="Group_2097" data-name="Group 2097">
              <path id="Path_802" data-name="Path 802" d="M167.155,252.9a2.823,2.823,0,0,0-1.908.129c.191-1.035,1.984-.61,1.984-.61s.118.028.105.213C167.336,252.633,167.289,252.951,167.155,252.9Z" transform="translate(-165.247 -252.333)" fill="#361e21"/>
            </g>
          </g>
          <g id="Group_2100" data-name="Group 2100" transform="translate(3.912)">
            <g id="Group_2099" data-name="Group 2099">
              <path id="Path_803" data-name="Path 803" d="M184.762,252.9a3.234,3.234,0,0,1,2.037.129c-.191-1.035-2.113-.61-2.113-.61s-.118.028-.105.213C184.581,252.633,184.628,252.951,184.762,252.9Z" transform="translate(-184.58 -252.333)" fill="#361e21"/>
            </g>
          </g>
        </g>
      </g>
      <g id="Group_2109" data-name="Group 2109" transform="translate(4.519 7.897)">
        <g id="Group_2105" data-name="Group 2105">
          <g id="Group_2103" data-name="Group 2103" transform="translate(0.098)">
            <path id="Path_804" data-name="Path 804" d="M168.792,257.746c0,.3.17.543.376.541s.372-.246.37-.546-.17-.543-.376-.542S168.79,257.446,168.792,257.746Z" transform="translate(-168.792 -257.2)" fill="#29180d"/>
          </g>
          <g id="Group_2104" data-name="Group 2104" transform="translate(0 0.211)">
            <path id="Path_805" data-name="Path 805" d="M168.632,258.407a.161.161,0,1,1-.161-.162A.161.161,0,0,1,168.632,258.407Z" transform="translate(-168.309 -258.245)" fill="#fff"/>
          </g>
        </g>
        <g id="Group_2108" data-name="Group 2108" transform="translate(4.048)">
          <g id="Group_2106" data-name="Group 2106">
            <path id="Path_806" data-name="Path 806" d="M189.061,257.746c0,.3-.17.543-.376.541s-.372-.246-.37-.546.17-.543.376-.542S189.063,257.446,189.061,257.746Z" transform="translate(-188.315 -257.2)" fill="#29180d"/>
          </g>
          <g id="Group_2107" data-name="Group 2107" transform="translate(0.521 0.211)">
            <path id="Path_807" data-name="Path 807" d="M190.889,258.407a.161.161,0,1,0,.161-.162A.161.161,0,0,0,190.889,258.407Z" transform="translate(-190.889 -258.245)" fill="#fff"/>
          </g>
        </g>
      </g>
      <g id="Group_2113" data-name="Group 2113" transform="translate(5.807 11.585)">
        <g id="Group_2112" data-name="Group 2112">
          <path id="Path_808" data-name="Path 808" d="M175.782,276.631c0,.29.413.525.92.525s.919-.235.921-.525Z" transform="translate(-175.558 -276.387)" fill="#fff"/>
          <g id="Group_2110" data-name="Group 2110" transform="translate(0.005)">
            <path id="Path_809" data-name="Path 809" d="M176.711,275.752a.951.951,0,0,0,.3-.111s-.15-.063-.361-.127c-.543-.229-.505.068-.794.067-.145,0-.289-.153-.424-.134a2.677,2.677,0,0,0-.37.068,1.822,1.822,0,0,0-.361.126,1.114,1.114,0,0,0,.328.127,3.765,3.765,0,0,1,.589.029.93.93,0,0,0,.41.01,2.8,2.8,0,0,1,.684-.055" transform="translate(-174.7 -275.427)" fill="#e8636b"/>
          </g>
          <g id="Group_2111" data-name="Group 2111" transform="translate(0 0.213)">
            <path id="Path_810" data-name="Path 810" d="M176.808,276.481a1.41,1.41,0,0,1-1.055.417,1.351,1.351,0,0,1-.895-.417h-.185c.006.015.011.029.018.044a1.876,1.876,0,0,0,.156.272l.1.14a1.435,1.435,0,0,0,.132.131l.07.065.083.055a.7.7,0,0,0,.182.1,1.522,1.522,0,0,0,.211.067l.09.012.046.006.023,0h.011l.031,0,.215-.027a1.562,1.562,0,0,0,.2-.067.725.725,0,0,0,.178-.1l.083-.055.07-.066a1.426,1.426,0,0,0,.131-.131l.1-.14a1.81,1.81,0,0,0,.156-.272c.007-.014.012-.028.018-.043Z" transform="translate(-174.673 -276.481)" fill="#e8636b"/>
          </g>
        </g>
        <path id="Path_811" data-name="Path 811" d="M180.134,277.984c.754-.05.894-.489.894-.489a1.086,1.086,0,0,1-.894.365.058.058,0,0,0-.05.066S180.1,277.987,180.134,277.984Z" transform="translate(-178.989 -277.077)" fill="#fff"/>
      </g>
      <path id="Path_812" data-name="Path 812" d="M174.13,224.967s.23-5.894-4.359-6.731c0,0-3.254-.52-4.475,1.5l1.221,3.09s-.022,1.1,5.079,2.192c0,0,1.044.267,1.109,2.215A3.645,3.645,0,0,1,174.13,224.967Z" transform="translate(-161.387 -218.176)"/>
      <path id="Path_813" data-name="Path 813" d="M177.778,269.725l.02,0c.012,0,.032-.01.053-.013.044-.01.1-.021.167-.032s.132-.018.2-.021.133-.006.2-.006.127.007.19.013c.032.005.063.007.094.011s.064.01.094.013.062.012.09.015a.734.734,0,0,1,.075.01c.021,0,.042.008.055.01l.02,0-.005.019a.361.361,0,0,1-.017.053.5.5,0,0,1-.1.162.459.459,0,0,1-.094.082.536.536,0,0,1-.121.067.558.558,0,0,1-.142.042.6.6,0,0,1-.151.012.7.7,0,0,1-.148-.019.687.687,0,0,1-.135-.046.664.664,0,0,1-.206-.146.579.579,0,0,1-.106-.155.329.329,0,0,1-.02-.053Z" transform="translate(-171.343 -259.234)" fill="#f29776"/>
      <g id="Group_2115" data-name="Group 2115" transform="translate(1.42 16.287)">
        <g id="Group_2114" data-name="Group 2114">
          <path id="Path_814" data-name="Path 814" d="M162.989,303.291c-.012-1.217.067-2.439,1.047-3.165l-3.663-1.43-1.9,1.748-1.694-1.78-3.788,1.479a2.735,2.735,0,0,1,.983,2.2,8.653,8.653,0,0,1,.023.948Z" transform="translate(-152.993 -298.663)" fill="#3063a4"/>
        </g>
      </g>
      <path id="Path_815" data-name="Path 815" d="M158.275,227.082s-2.842.6-2.831,4.61c0,0-.121-1.288-.879-1.114,0,0-2.122-5.327,2.847-6.828Z" transform="translate(-152.468 -222.622)"/>
      <path id="Path_816" data-name="Path 816" d="M168.792,235.972l.252,1.441.351-.185Z" transform="translate(-164.175 -232.371)" fill="#f5af80"/>
    </g>
  </g>
</svg>
