<svg xmlns="http://www.w3.org/2000/svg" width="22.908" height="23" viewBox="0 0 22.908 23">
  <g id="home_1_" data-name="home (1)" transform="translate(-1.025)">
    <path id="Path_1322" data-name="Path 1322" d="M80.052,96.775H67.114A2.114,2.114,0,0,1,65,94.664V85.826a.674.674,0,0,1,.2-.476l7.906-7.906a.674.674,0,0,1,.953,0l7.906,7.906a.674.674,0,0,1,.2.476v8.838A2.114,2.114,0,0,1,80.052,96.775Z" transform="translate(-61.104 -73.775)" fill="#e6eeff"/>
    <path id="Path_1323" data-name="Path 1323" d="M256.477,77.443a.672.672,0,0,0-.477-.2v19.53h6.469a2.114,2.114,0,0,0,2.111-2.111V85.826a.674.674,0,0,0-.2-.476Z" transform="translate(-243.521 -73.776)" fill="#dae2f2"/>
    <path id="Path_1324" data-name="Path 1324" d="M21.823,13.566a2.1,2.1,0,0,1-1.493-.619L12.479,5.1l-7.43,7.43-.422.421A2.111,2.111,0,0,1,1.643,9.962L10.986.618a2.111,2.111,0,0,1,2.986,0l9.344,9.344a2.113,2.113,0,0,1,0,2.985h0A2.1,2.1,0,0,1,21.823,13.566Z" transform="translate(0 0)" fill="#45c1f1"/>
    <path id="Path_1325" data-name="Path 1325" d="M256,5.1l7.85,7.85a2.111,2.111,0,1,0,2.986-2.985L257.493.618A2.1,2.1,0,0,0,256,0V5.1Z" transform="translate(-243.521 0)" fill="#44a4ec"/>
    <path id="Path_1326" data-name="Path 1326" d="M197.99,196.22h-4.313a.674.674,0,0,1-.674-.674v-.719a2.83,2.83,0,0,1,5.66,0v.719A.674.674,0,0,1,197.99,196.22Z" transform="translate(-183.355 -183.372)" fill="#2ee6c7"/>
    <path id="Path_1327" data-name="Path 1327" d="M256,196.22h2.156a.674.674,0,0,0,.674-.674v-.719A2.833,2.833,0,0,0,256,192h0v4.223Z" transform="translate(-243.52 -183.372)" fill="#29ccb1"/>
    <path id="Path_1328" data-name="Path 1328" d="M198.664,328.623H193v-5.752a2.83,2.83,0,1,1,5.66-.043v5.795Z" transform="translate(-183.355 -305.623)" fill="#5c5f66"/>
    <path id="Path_1329" data-name="Path 1329" d="M256,328.64h2.83v-5.795a2.833,2.833,0,0,0-2.83-2.829v8.624Z" transform="translate(-243.521 -305.64)" fill="#53565c"/>
  </g>
</svg>
