<svg xmlns="http://www.w3.org/2000/svg" width="19.019" height="21.117" viewBox="0 0 19.019 21.117">
  <path id="Icon_awesome-chess-queen" data-name="Icon awesome-chess-queen" d="M9.51,4.619a2.2,2.2,0,0,0,2.08-2.31A2.2,2.2,0,0,0,9.51,0a2.2,2.2,0,0,0-2.08,2.31A2.2,2.2,0,0,0,9.51,4.619Zm6.538,13.858H2.972a.63.63,0,0,0-.594.66v1.32a.63.63,0,0,0,.594.66H16.047a.63.63,0,0,0,.594-.66v-1.32A.63.63,0,0,0,16.047,18.477ZM18.754,7.6,17.7,6.939a.571.571,0,0,0-.828.193,1.685,1.685,0,0,1-1.754.752A2.023,2.023,0,0,1,13.67,5.832a.527.527,0,0,0-.5-.553h-1.44a.5.5,0,0,0-.478.409A1.839,1.839,0,0,1,9.51,7.26,1.839,1.839,0,0,1,7.765,5.688a.494.494,0,0,0-.478-.409H5.847a.527.527,0,0,0-.5.553A1.988,1.988,0,0,1,3.69,7.914a1.7,1.7,0,0,1-1.543-.79.566.566,0,0,0-.821-.187L.265,7.6a.7.7,0,0,0-.2.844l3.809,8.716H15.147L18.956,8.44a.7.7,0,0,0-.2-.844Z" transform="translate(0)" fill="#fee101"/>
</svg>
