<svg xmlns="http://www.w3.org/2000/svg" width="21.619" height="21.619" viewBox="0 0 21.619 21.619">
  <g id="phone-call" transform="translate(0 0)">
    <g id="Group_2371" data-name="Group 2371" transform="translate(0 0)">
      <path id="Path_1312" data-name="Path 1312" d="M300.611,7.064a.718.718,0,0,0-.188-.331l-.477-.477a1.982,1.982,0,0,1,0-2.807L302.812.583a1.983,1.983,0,0,1,2.807,0l.955.955.035.037a.633.633,0,0,1-.025.869l-4.911,4.912A.634.634,0,0,1,300.611,7.064Z" transform="translate(-286.723 -0.002)" fill="#3063a4"/>
      <path id="Path_1313" data-name="Path 1313" d="M1.573,306.611l-.034-.032,0,0-.954-.955a1.983,1.983,0,0,1,0-2.806l2.866-2.866a1.983,1.983,0,0,1,2.807,0l.476.476a.721.721,0,0,0,.332.189.634.634,0,0,1,.292,1.063l-4.826,4.805a.642.642,0,0,1-.06.079A.633.633,0,0,1,1.573,306.611Z" transform="translate(0.001 -286.725)" fill="#3063a4"/>
    </g>
    <path id="Path_1314" data-name="Path 1314" d="M36.7,52.512a6,6,0,0,1-4.258-1.757.633.633,0,0,1,0-.9l4.912-4.912a.633.633,0,0,1,.6-.166.714.714,0,0,0,.685-.188L44.6,38.639a.714.714,0,0,0,.188-.685.634.634,0,0,1,.166-.6l4.911-4.911a.633.633,0,0,1,.448-.186h0a.633.633,0,0,1,.448.187,6.038,6.038,0,0,1-.011,8.527h0l-9.775,9.775a6,6,0,0,1-4.262,1.768Z" transform="translate(-30.897 -30.893)" fill="#00a4fd"/>
    <path id="Path_1315" data-name="Path 1315" d="M36.711,264.84a6,6,0,0,0,4.262-1.769l4.887-4.887-4.241-4.24-2.976,2.976a.714.714,0,0,1-.685.188.633.633,0,0,0-.6.166l-4.911,4.912a.633.633,0,0,0,0,.9A6,6,0,0,0,36.7,264.84Z" transform="translate(-30.897 -243.221)" fill="#00a4fd"/>
    <path id="Path_1316" data-name="Path 1316" d="M.643,11.406a.633.633,0,0,1-.633-.633A10.767,10.767,0,0,1,10.777.005a.633.633,0,1,1,0,1.267,9.511,9.511,0,0,0-9.5,9.5A.633.633,0,0,1,.643,11.406Z" transform="translate(-0.01 -0.005)" fill="#3063a4"/>
    <path id="Path_1317" data-name="Path 1317" d="M3.164,74.691A10.7,10.7,0,0,0,.01,82.3a.633.633,0,0,0,1.267,0A9.471,9.471,0,0,1,4.063,75.59Z" transform="translate(-0.01 -71.537)" fill="#29ccb1"/>
    <path id="Path_1318" data-name="Path 1318" d="M64.641,72.7a.633.633,0,0,1-.633-.633A8.074,8.074,0,0,1,72.073,64a.633.633,0,0,1,0,1.267,6.806,6.806,0,0,0-6.8,6.8A.633.633,0,0,1,64.641,72.7Z" transform="translate(-61.305 -61.301)" fill="#2ee6c7"/>
    <path id="Path_1319" data-name="Path 1319" d="M67.269,120.9l-.9-.9a8.04,8.04,0,0,0-2.365,5.7.633.633,0,0,0,1.267,0A6.777,6.777,0,0,1,67.269,120.9Z" transform="translate(-61.306 -114.941)" fill="#29ccb1"/>
    <path id="Path_1320" data-name="Path 1320" d="M128.64,134a.633.633,0,0,1-.633-.633A5.369,5.369,0,0,1,133.369,128a.633.633,0,0,1,0,1.267,4.1,4.1,0,0,0-4.1,4.1A.633.633,0,0,1,128.64,134Z" transform="translate(-122.602 -122.597)" fill="#3063a4"/>
    <path id="Path_1321" data-name="Path 1321" d="M128.641,169.663a.633.633,0,0,0,.633-.633,4.083,4.083,0,0,1,1.2-2.895l-.9-.9a5.346,5.346,0,0,0-1.572,3.79A.633.633,0,0,0,128.641,169.663Z" transform="translate(-122.603 -158.263)" fill="#29ccb1"/>
  </g>
</svg>
