<svg xmlns="http://www.w3.org/2000/svg" width="39.249" height="25.934" viewBox="0 0 39.249 25.934">
  <g id="wave" transform="translate(0 -79.935)">
    <g id="Group_2398" data-name="Group 2398" transform="translate(0 79.935)">
      <path id="Path_1433" data-name="Path 1433" d="M196.7,184.245a1.282,1.282,0,0,1-1.305-1.305v-7.658a1.305,1.305,0,1,1,2.611,0v7.658A1.282,1.282,0,0,1,196.7,184.245Z" transform="translate(-179.122 -166.144)" fill="#00a4fd"/>
      <path id="Path_1434" data-name="Path 1434" d="M148.114,143.751a1.282,1.282,0,0,1-1.305-1.305V126.693a1.305,1.305,0,1,1,2.611,0v15.752A1.282,1.282,0,0,1,148.114,143.751Z" transform="translate(-134.582 -121.602)" fill="#00a4fd"/>
      <path id="Path_1435" data-name="Path 1435" d="M99,105.869a1.282,1.282,0,0,1-1.305-1.305V81.24a1.305,1.305,0,0,1,2.611,0v23.323A1.282,1.282,0,0,1,99,105.869Z" transform="translate(-89.561 -79.935)" fill="#00a4fd"/>
      <path id="Path_1436" data-name="Path 1436" d="M50.416,143.751a1.282,1.282,0,0,1-1.305-1.305V126.693a1.305,1.305,0,0,1,2.611,0v15.752A1.282,1.282,0,0,1,50.416,143.751Z" transform="translate(-45.021 -121.602)" fill="#00a4fd"/>
      <path id="Path_1437" data-name="Path 1437" d="M1.305,181.633A1.282,1.282,0,0,1,0,180.328v-8.18a1.282,1.282,0,0,1,1.305-1.305,1.282,1.282,0,0,1,1.305,1.305v8.18A1.282,1.282,0,0,1,1.305,181.633Z" transform="translate(0 -163.271)" fill="#00a4fd"/>
    </g>
    <g id="Group_2399" data-name="Group 2399" transform="translate(20.364 79.935)">
      <path id="Path_1438" data-name="Path 1438" d="M343.51,105.869a1.282,1.282,0,0,1-1.305-1.305V81.24a1.305,1.305,0,0,1,2.611,0v23.323A1.282,1.282,0,0,1,343.51,105.869Z" transform="translate(-334.068 -79.935)" fill="#3063a4"/>
      <path id="Path_1439" data-name="Path 1439" d="M294.4,143.751a1.282,1.282,0,0,1-1.305-1.305V126.693a1.305,1.305,0,1,1,2.611,0v15.752A1.282,1.282,0,0,1,294.4,143.751Z" transform="translate(-289.047 -121.602)" fill="#3063a4"/>
      <path id="Path_1440" data-name="Path 1440" d="M245.812,164.215a1.282,1.282,0,0,1-1.305-1.305V151.248a1.305,1.305,0,0,1,2.611,0V162.91A1.282,1.282,0,0,1,245.812,164.215Z" transform="translate(-244.507 -144.112)" fill="#3063a4"/>
      <path id="Path_1441" data-name="Path 1441" d="M392.1,143.751a1.282,1.282,0,0,1-1.305-1.305V126.693a1.305,1.305,0,0,1,2.611,0v15.752A1.282,1.282,0,0,1,392.1,143.751Z" transform="translate(-378.608 -121.602)" fill="#3063a4"/>
      <path id="Path_1442" data-name="Path 1442" d="M441.208,181.633a1.282,1.282,0,0,1-1.305-1.305v-8.18a1.305,1.305,0,0,1,2.611,0v8.18A1.282,1.282,0,0,1,441.208,181.633Z" transform="translate(-423.629 -163.271)" fill="#3063a4"/>
    </g>
  </g>
</svg>
