<svg xmlns="http://www.w3.org/2000/svg" width="22.349" height="20.808" viewBox="0 0 22.349 20.808">
  <g id="building_2_" data-name="building (2)" transform="translate(0 -16)">
    <path id="Path_1387" data-name="Path 1387" d="M144,48h8.477V67.266H144Z" transform="translate(-137.064 -30.459)" fill="#fdbd40"/>
    <path id="Path_1388" data-name="Path 1388" d="M208,352h2.312v4.624H208Z" transform="translate(-197.981 -319.816)" fill="#5a6470"/>
    <path id="Path_1389" data-name="Path 1389" d="M0,224H6.936v10.019H0Z" transform="translate(0 -197.981)" fill="#a7c6d3"/>
    <path id="Path_1390" data-name="Path 1390" d="M16,128h4.624v4.624H16Z" transform="translate(-15.229 -106.605)" fill="#cfdfe8"/>
    <path id="Path_1391" data-name="Path 1391" d="M32,72h3.083v2.7H32Z" transform="translate(-30.459 -53.303)" fill="#a7c6d3"/>
    <path id="Path_1392" data-name="Path 1392" d="M56,16h.771v2.7H56Z" transform="translate(-53.303)" fill="#5a6470"/>
    <path id="Path_1393" data-name="Path 1393" d="M320,224h6.936v10.019H320Z" transform="translate(-304.587 -197.981)" fill="#e9686a"/>
    <path id="Path_1394" data-name="Path 1394" d="M356.624,79.321H352V72l4.624,1.541Z" transform="translate(-335.046 -53.303)" fill="#f98c96"/>
    <g id="Group_2393" data-name="Group 2393" transform="translate(1.156 19.853)">
      <path id="Path_1395" data-name="Path 1395" d="M376,120h.771v5.009H376Z" transform="translate(-359.046 -118.844)" fill="#5a6470"/>
      <path id="Path_1396" data-name="Path 1396" d="M408,120h.771v5.009H408Z" transform="translate(-389.504 -118.844)" fill="#5a6470"/>
      <path id="Path_1397" data-name="Path 1397" d="M24,248h4.624v.771H24Z" transform="translate(-24 -240.679)" fill="#5a6470"/>
      <path id="Path_1398" data-name="Path 1398" d="M24,280h4.624v.771H24Z" transform="translate(-24 -271.137)" fill="#5a6470"/>
      <path id="Path_1399" data-name="Path 1399" d="M24,312h4.624v.771H24Z" transform="translate(-24 -301.596)" fill="#5a6470"/>
      <path id="Path_1400" data-name="Path 1400" d="M24,344h4.624v.771H24Z" transform="translate(-24 -332.055)" fill="#5a6470"/>
      <path id="Path_1401" data-name="Path 1401" d="M184,96h1.541v1.541H184Z" transform="translate(-176.293 -96)" fill="#5a6470"/>
      <path id="Path_1402" data-name="Path 1402" d="M248,96h1.541v1.541H248Z" transform="translate(-237.211 -96)" fill="#5a6470"/>
      <path id="Path_1403" data-name="Path 1403" d="M184,160h1.541v1.541H184Z" transform="translate(-176.293 -156.917)" fill="#5a6470"/>
      <path id="Path_1404" data-name="Path 1404" d="M248,160h1.541v1.541H248Z" transform="translate(-237.211 -156.917)" fill="#5a6470"/>
      <path id="Path_1405" data-name="Path 1405" d="M184,224h1.541v1.541H184Z" transform="translate(-176.293 -217.835)" fill="#5a6470"/>
      <path id="Path_1406" data-name="Path 1406" d="M248,224h1.541v1.541H248Z" transform="translate(-237.211 -217.835)" fill="#5a6470"/>
      <path id="Path_1407" data-name="Path 1407" d="M184,288h1.541v1.541H184Z" transform="translate(-176.293 -278.752)" fill="#5a6470"/>
      <path id="Path_1408" data-name="Path 1408" d="M248,288h1.541v1.541H248Z" transform="translate(-237.211 -278.752)" fill="#5a6470"/>
      <path id="Path_1409" data-name="Path 1409" d="M368,384h2.312v2.312H368Z" transform="translate(-351.431 -370.128)" fill="#5a6470"/>
      <path id="Path_1410" data-name="Path 1410" d="M344,248h.771v.771H344Z" transform="translate(-328.587 -240.679)" fill="#5a6470"/>
      <path id="Path_1411" data-name="Path 1411" d="M376,248h1.541v.771H376Z" transform="translate(-359.046 -240.679)" fill="#5a6470"/>
      <path id="Path_1412" data-name="Path 1412" d="M424,248h.771v.771H424Z" transform="translate(-404.734 -240.679)" fill="#5a6470"/>
      <path id="Path_1413" data-name="Path 1413" d="M344,280h.771v.771H344Z" transform="translate(-328.587 -271.137)" fill="#5a6470"/>
      <path id="Path_1414" data-name="Path 1414" d="M376,280h1.541v.771H376Z" transform="translate(-359.046 -271.137)" fill="#5a6470"/>
      <path id="Path_1415" data-name="Path 1415" d="M424,280h.771v.771H424Z" transform="translate(-404.734 -271.137)" fill="#5a6470"/>
      <path id="Path_1416" data-name="Path 1416" d="M344,312h.771v.771H344Z" transform="translate(-328.587 -301.596)" fill="#5a6470"/>
      <path id="Path_1417" data-name="Path 1417" d="M376,312h1.541v.771H376Z" transform="translate(-359.046 -301.596)" fill="#5a6470"/>
      <path id="Path_1418" data-name="Path 1418" d="M424,312h.771v.771H424Z" transform="translate(-404.734 -301.596)" fill="#5a6470"/>
      <path id="Path_1419" data-name="Path 1419" d="M344,344h.771v.771H344Z" transform="translate(-328.587 -332.055)" fill="#5a6470"/>
      <path id="Path_1420" data-name="Path 1420" d="M376,344h1.541v.771H376Z" transform="translate(-359.046 -332.055)" fill="#5a6470"/>
      <path id="Path_1421" data-name="Path 1421" d="M424,344h.771v.771H424Z" transform="translate(-404.734 -332.055)" fill="#5a6470"/>
    </g>
  </g>
</svg>
