<svg id="Group_2394" data-name="Group 2394" xmlns="http://www.w3.org/2000/svg" width="13.93" height="20.914" viewBox="0 0 13.93 20.914">
  <rect id="Rectangle_389" data-name="Rectangle 389" width="11.097" height="12.304" transform="translate(1.647 6.228)"/>
  <rect id="Rectangle_390" data-name="Rectangle 390" width="5.671" height="12.304" transform="translate(4.36 6.228)" fill="#221213"/>
  <rect id="Rectangle_391" data-name="Rectangle 391" width="2.08" height="13.344" transform="translate(1.647 5.515)"/>
  <path id="Path_790" data-name="Path 790" d="M174.665,284.789h-3.041a9.732,9.732,0,0,1-.3,3H175A10.052,10.052,0,0,1,174.665,284.789Z" transform="translate(-166.199 -271.31)" fill="#f5af80"/>
  <path id="Path_791" data-name="Path 791" d="M172.706,286.22a3.406,3.406,0,0,0,1.786.461,3.677,3.677,0,0,0,1.314-.392c-.055-.764-.043-1.5-.043-1.5h-3.04S172.745,285.481,172.706,286.22Z" transform="translate(-167.297 -271.31)" fill="#f7dcd7" style="mix-blend-mode: multiply;isolation: isolate"/>
  <g id="Group_2085" data-name="Group 2085" transform="translate(0 16.15)">
    <path id="Path_792" data-name="Path 792" d="M158.578,299.641l-4.235-1.653h-2.808l-4.235,1.653s-1.483.532-1.31,3.111h13.9C160.09,300.015,158.578,299.641,158.578,299.641Z" transform="translate(-145.976 -297.988)" fill="#f5af80"/>
  </g>
  <g id="Group_2090" data-name="Group 2090" transform="translate(10.75 7.781)">
    <g id="Group_2089" data-name="Group 2089">
      <path id="Path_793" data-name="Path 793" d="M199.136,257.9c-.125.773.092,1.46.484,1.533s.81-.492.935-1.265-.092-1.46-.485-1.534S199.26,257.128,199.136,257.9Z" transform="translate(-199.101 -256.629)" fill="#f5af80"/>
      <g id="Group_2088" data-name="Group 2088" transform="translate(0.305 0.301)">
        <g id="Group_2086" data-name="Group 2086" transform="translate(0.198)">
          <path id="Path_794" data-name="Path 794" d="M201.591,258.878s.006-.043.021-.114a1.4,1.4,0,0,1,.094-.278c.049-.1.128-.222.228-.228a.2.2,0,0,1,.075.011s.031.014.038.02a.289.289,0,0,1,.028.023.4.4,0,0,1,.095.169,1,1,0,0,1,.046.22,1.072,1.072,0,0,1,0,.221c-.012.078-.016.157-.03.225s-.025.134-.037.194-.028.117-.039.166-.026.092-.035.127c-.02.071-.03.112-.03.112s.02-.035.053-.1c.015-.033.037-.071.056-.119s.042-.1.065-.16.041-.129.062-.2.032-.147.047-.225a1.038,1.038,0,0,0,.01-.265,1.181,1.181,0,0,0-.05-.262.542.542,0,0,0-.137-.227.3.3,0,0,0-.056-.04.355.355,0,0,0-.054-.022.3.3,0,0,0-.118-.005.307.307,0,0,0-.192.136.7.7,0,0,0-.093.194,1.23,1.23,0,0,0-.053.311A.8.8,0,0,0,201.591,258.878Z" transform="translate(-201.587 -258.115)" fill="#f1986d"/>
        </g>
        <path id="Path_795" data-name="Path 795" d="M201.112,261.482s-.036-.083.222-.1c0,0,.288.053.119.438a1.258,1.258,0,0,0-.086.259c-.026.129.02.3-.049.419-.089.148-.316.063-.33-.106a.966.966,0,0,1,.184-.443A.346.346,0,0,0,201.112,261.482Z" transform="translate(-200.911 -260.719)" fill="#f1986d"/>
        <g id="Group_2087" data-name="Group 2087" transform="translate(0 1.654)">
          <path id="Path_796" data-name="Path 796" d="M200.686,266.29a.147.147,0,0,0-.02.021.244.244,0,0,0-.038.072.222.222,0,0,0-.014.055.2.2,0,0,0,0,.064c0,.022,0,.046.006.069a.514.514,0,0,0,.021.064.314.314,0,0,0,.029.059.526.526,0,0,0,.038.045.165.165,0,0,0,.079.056.237.237,0,0,0,.088.022.559.559,0,0,0-.04-.094.241.241,0,0,0-.022-.036c-.006-.014-.011-.03-.018-.043a.275.275,0,0,0-.021-.04.211.211,0,0,1-.017-.043.453.453,0,0,1-.031-.084.342.342,0,0,1-.011-.043c0-.014-.008-.029-.01-.042C200.691,266.338,200.686,266.29,200.686,266.29Z" transform="translate(-200.609 -266.29)" fill="#f1986d"/>
        </g>
      </g>
    </g>
  </g>
  <g id="Group_2095" data-name="Group 2095" transform="translate(1.869 7.781)">
    <g id="Group_2094" data-name="Group 2094">
      <path id="Path_797" data-name="Path 797" d="M156.665,257.9c.125.773-.092,1.46-.484,1.533s-.81-.492-.935-1.265.092-1.46.485-1.534S156.541,257.128,156.665,257.9Z" transform="translate(-155.211 -256.629)" fill="#f5af80"/>
      <g id="Group_2093" data-name="Group 2093" transform="translate(0.229 0.301)">
        <g id="Group_2091" data-name="Group 2091">
          <path id="Path_798" data-name="Path 798" d="M157.095,258.878s-.006-.043-.021-.114a1.422,1.422,0,0,0-.094-.278c-.049-.1-.128-.222-.228-.228a.205.205,0,0,0-.075.011s-.03.014-.038.02a.316.316,0,0,0-.028.023.4.4,0,0,0-.095.169,1,1,0,0,0-.046.22,1.069,1.069,0,0,0,0,.221c.012.078.016.157.03.225l.037.194c.016.06.028.117.039.166s.026.092.035.127c.02.071.03.112.03.112s-.02-.035-.053-.1c-.015-.033-.037-.071-.056-.119s-.042-.1-.065-.16-.041-.129-.062-.2-.032-.147-.047-.225a1.029,1.029,0,0,1-.01-.265,1.158,1.158,0,0,1,.05-.262.543.543,0,0,1,.137-.227.3.3,0,0,1,.056-.04.352.352,0,0,1,.054-.022.3.3,0,0,1,.118-.005.306.306,0,0,1,.192.136.7.7,0,0,1,.093.194,1.227,1.227,0,0,1,.053.311A.767.767,0,0,1,157.095,258.878Z" transform="translate(-156.341 -258.115)" fill="#f1986d"/>
        </g>
        <path id="Path_799" data-name="Path 799" d="M158.512,261.482s.036-.083-.222-.1c0,0-.288.053-.119.438a1.246,1.246,0,0,1,.086.259c.026.129-.02.3.049.419.089.148.317.063.33-.106a.965.965,0,0,0-.184-.443A.346.346,0,0,1,158.512,261.482Z" transform="translate(-157.758 -260.719)" fill="#f1986d"/>
        <g id="Group_2092" data-name="Group 2092" transform="translate(0.693 1.654)">
          <path id="Path_800" data-name="Path 800" d="M159.949,266.29a.119.119,0,0,1,.02.021.243.243,0,0,1,.038.072.231.231,0,0,1,.014.055.2.2,0,0,1,0,.064.688.688,0,0,1-.006.069.514.514,0,0,1-.021.064.314.314,0,0,1-.029.059.5.5,0,0,1-.038.045.165.165,0,0,1-.079.056.238.238,0,0,1-.088.022.6.6,0,0,1,.04-.094.244.244,0,0,1,.022-.036c.006-.014.011-.03.018-.043a.276.276,0,0,1,.021-.04.224.224,0,0,0,.016-.043.453.453,0,0,0,.031-.084.385.385,0,0,0,.011-.043c0-.014.008-.029.009-.042C159.945,266.338,159.95,266.29,159.949,266.29Z" transform="translate(-159.764 -266.29)" fill="#f1986d"/>
        </g>
      </g>
    </g>
  </g>
  <g id="Group_2096" data-name="Group 2096" transform="translate(2.617 1.232)">
    <path id="Path_801" data-name="Path 801" d="M167.2,225.8a5.787,5.787,0,0,0-3.959-1.542,5.858,5.858,0,0,0-3.952,1.65c-.714,2.3-.257,5,.047,7.329a5.173,5.173,0,0,0,2.843,3.767,2.058,2.058,0,0,0,2.4-.026,5.748,5.748,0,0,0,2.776-3.9,25.921,25.921,0,0,0,.235-4.709A9.3,9.3,0,0,0,167.2,225.8Z" transform="translate(-158.907 -224.263)" fill="#f5af80"/>
  </g>
  <g id="Group_2102" data-name="Group 2102" transform="translate(3.899 6.912)">
    <g id="Group_2101" data-name="Group 2101">
      <g id="Group_2098" data-name="Group 2098">
        <g id="Group_2097" data-name="Group 2097">
          <path id="Path_802" data-name="Path 802" d="M167.155,252.9a2.823,2.823,0,0,0-1.908.129c.191-1.035,1.984-.61,1.984-.61s.118.028.105.213C167.336,252.633,167.289,252.951,167.155,252.9Z" transform="translate(-165.247 -252.333)" fill="#361e21"/>
        </g>
      </g>
      <g id="Group_2100" data-name="Group 2100" transform="translate(3.912)">
        <g id="Group_2099" data-name="Group 2099">
          <path id="Path_803" data-name="Path 803" d="M184.762,252.9a3.234,3.234,0,0,1,2.037.129c-.191-1.035-2.113-.61-2.113-.61s-.118.028-.105.213C184.581,252.633,184.628,252.951,184.762,252.9Z" transform="translate(-184.58 -252.333)" fill="#361e21"/>
        </g>
      </g>
    </g>
  </g>
  <g id="Group_2109" data-name="Group 2109" transform="translate(4.519 7.897)">
    <g id="Group_2105" data-name="Group 2105">
      <g id="Group_2103" data-name="Group 2103" transform="translate(0.098)">
        <path id="Path_804" data-name="Path 804" d="M168.792,257.746c0,.3.17.543.376.541s.372-.246.37-.546-.17-.543-.376-.542S168.79,257.446,168.792,257.746Z" transform="translate(-168.792 -257.2)" fill="#29180d"/>
      </g>
      <g id="Group_2104" data-name="Group 2104" transform="translate(0 0.211)">
        <path id="Path_805" data-name="Path 805" d="M168.632,258.407a.161.161,0,1,1-.161-.162A.161.161,0,0,1,168.632,258.407Z" transform="translate(-168.309 -258.245)" fill="#fff"/>
      </g>
    </g>
    <g id="Group_2108" data-name="Group 2108" transform="translate(4.048)">
      <g id="Group_2106" data-name="Group 2106">
        <path id="Path_806" data-name="Path 806" d="M189.061,257.746c0,.3-.17.543-.376.541s-.372-.246-.37-.546.17-.543.376-.542S189.063,257.446,189.061,257.746Z" transform="translate(-188.315 -257.2)" fill="#29180d"/>
      </g>
      <g id="Group_2107" data-name="Group 2107" transform="translate(0.521 0.211)">
        <path id="Path_807" data-name="Path 807" d="M190.889,258.407a.161.161,0,1,0,.161-.162A.161.161,0,0,0,190.889,258.407Z" transform="translate(-190.889 -258.245)" fill="#fff"/>
      </g>
    </g>
  </g>
  <g id="Group_2113" data-name="Group 2113" transform="translate(5.807 11.585)">
    <g id="Group_2112" data-name="Group 2112">
      <path id="Path_808" data-name="Path 808" d="M175.782,276.631c0,.29.413.525.92.525s.919-.235.921-.525Z" transform="translate(-175.558 -276.387)" fill="#fff"/>
      <g id="Group_2110" data-name="Group 2110" transform="translate(0.005)">
        <path id="Path_809" data-name="Path 809" d="M176.711,275.752a.951.951,0,0,0,.3-.111s-.15-.063-.361-.127c-.543-.229-.505.068-.794.067-.145,0-.289-.153-.424-.134a2.677,2.677,0,0,0-.37.068,1.822,1.822,0,0,0-.361.126,1.114,1.114,0,0,0,.328.127,3.765,3.765,0,0,1,.589.029.93.93,0,0,0,.41.01,2.8,2.8,0,0,1,.684-.055" transform="translate(-174.7 -275.427)" fill="#e8636b"/>
      </g>
      <g id="Group_2111" data-name="Group 2111" transform="translate(0 0.213)">
        <path id="Path_810" data-name="Path 810" d="M176.808,276.481a1.41,1.41,0,0,1-1.055.417,1.351,1.351,0,0,1-.895-.417h-.185c.006.015.011.029.018.044a1.876,1.876,0,0,0,.156.272l.1.14a1.435,1.435,0,0,0,.132.131l.07.065.083.055a.7.7,0,0,0,.182.1,1.522,1.522,0,0,0,.211.067l.09.012.046.006.023,0h.011l.031,0,.215-.027a1.562,1.562,0,0,0,.2-.067.725.725,0,0,0,.178-.1l.083-.055.07-.066a1.426,1.426,0,0,0,.131-.131l.1-.14a1.81,1.81,0,0,0,.156-.272c.007-.014.012-.028.018-.043Z" transform="translate(-174.673 -276.481)" fill="#e8636b"/>
      </g>
    </g>
    <path id="Path_811" data-name="Path 811" d="M180.134,277.984c.754-.05.894-.489.894-.489a1.086,1.086,0,0,1-.894.365.058.058,0,0,0-.05.066S180.1,277.987,180.134,277.984Z" transform="translate(-178.989 -277.077)" fill="#fff"/>
  </g>
  <path id="Path_812" data-name="Path 812" d="M174.13,224.967s.23-5.894-4.359-6.731c0,0-3.254-.52-4.475,1.5l1.221,3.09s-.022,1.1,5.079,2.192c0,0,1.044.267,1.109,2.215A3.645,3.645,0,0,1,174.13,224.967Z" transform="translate(-161.387 -218.176)"/>
  <path id="Path_813" data-name="Path 813" d="M177.778,269.725l.02,0c.012,0,.032-.01.053-.013.044-.01.1-.021.167-.032s.132-.018.2-.021.133-.006.2-.006.127.007.19.013c.032.005.063.007.094.011s.064.01.094.013.062.012.09.015a.734.734,0,0,1,.075.01c.021,0,.042.008.055.01l.02,0-.005.019a.361.361,0,0,1-.017.053.5.5,0,0,1-.1.162.459.459,0,0,1-.094.082.536.536,0,0,1-.121.067.558.558,0,0,1-.142.042.6.6,0,0,1-.151.012.7.7,0,0,1-.148-.019.687.687,0,0,1-.135-.046.664.664,0,0,1-.206-.146.579.579,0,0,1-.106-.155.329.329,0,0,1-.02-.053Z" transform="translate(-171.343 -259.234)" fill="#f29776"/>
  <g id="Group_2115" data-name="Group 2115" transform="translate(1.42 16.287)">
    <g id="Group_2114" data-name="Group 2114">
      <path id="Path_814" data-name="Path 814" d="M162.989,303.291c-.012-1.217.067-2.439,1.047-3.165l-3.663-1.43-1.9,1.748-1.694-1.78-3.788,1.479a2.735,2.735,0,0,1,.983,2.2,8.653,8.653,0,0,1,.023.948Z" transform="translate(-152.993 -298.663)" fill="#3063a4"/>
    </g>
  </g>
  <path id="Path_815" data-name="Path 815" d="M158.275,227.082s-2.842.6-2.831,4.61c0,0-.121-1.288-.879-1.114,0,0-2.122-5.327,2.847-6.828Z" transform="translate(-152.468 -222.622)"/>
  <path id="Path_816" data-name="Path 816" d="M168.792,235.972l.252,1.441.351-.185Z" transform="translate(-164.175 -232.371)" fill="#f5af80"/>
</svg>
