<svg xmlns="http://www.w3.org/2000/svg" width="396.672" height="390.669" viewBox="0 0 396.672 390.669">
  <g id="Group_2026" data-name="Group 2026" transform="translate(-963.989 -834.462)">
    <g id="Group_2246" data-name="Group 2246" transform="matrix(0.839, -0.545, 0.545, 0.839, 928.653, 982.027)">
      <g id="Background_Simple" data-name="Background Simple" transform="translate(22.56 30.141)">
        <g id="Group_2244" data-name="Group 2244" opacity="0.6">
          <path id="Path_1112" data-name="Path 1112" d="M25.833,124.387S38.271,71.8,87.314,46.19s107.522-14.7,155.131-7.173,77.913,43.958,74.672,87.661-41.642,47.85-70.967,91.655-30.84,60.087-78.074,80.261-107.9-13-131.255-71.735S25.833,124.387,25.833,124.387Z" transform="translate(-22.56 -30.141)" fill="#9e9e9e" opacity="0.33"/>
          <path id="Path_1113" data-name="Path 1113" d="M25.833,124.387S38.271,71.8,87.314,46.19s107.522-14.7,155.131-7.173,77.913,43.958,74.672,87.661-41.642,47.85-70.967,91.655-30.84,60.087-78.074,80.261-107.9-13-131.255-71.735S25.833,124.387,25.833,124.387Z" transform="translate(-22.56 -30.141)" fill="#9e9e9e" opacity="0.29"/>
        </g>
      </g>
      <g id="Graphics" transform="translate(28.005 37.025)">
        <g id="Group_2245" data-name="Group 2245">
          <path id="Path_1114" data-name="Path 1114" d="M412.876,146.385a.978.978,0,1,1,.979-.979A.98.98,0,0,1,412.876,146.385Z" transform="translate(-165.665 -77.434)" fill="#888e92"/>
          <path id="Path_1115" data-name="Path 1115" d="M428.756,146.385a.978.978,0,1,1,.979-.979A.98.98,0,0,1,428.756,146.385Z" transform="translate(-171.279 -77.434)" fill="#888e92"/>
          <path id="Path_1116" data-name="Path 1116" d="M443.865,146.385a.978.978,0,1,1,.979-.979A.98.98,0,0,1,443.865,146.385Z" transform="translate(-176.622 -77.434)" fill="#888e92"/>
          <path id="Path_1117" data-name="Path 1117" d="M412.876,161.566a.978.978,0,1,1,.979-.978A.979.979,0,0,1,412.876,161.566Z" transform="translate(-165.665 -82.802)" fill="#888e92"/>
          <path id="Path_1118" data-name="Path 1118" d="M428.756,161.566a.978.978,0,1,1,.979-.978A.98.98,0,0,1,428.756,161.566Z" transform="translate(-171.279 -82.802)" fill="#888e92"/>
          <path id="Path_1119" data-name="Path 1119" d="M443.865,161.566a.978.978,0,1,1,.979-.978A.979.979,0,0,1,443.865,161.566Z" transform="translate(-176.622 -82.802)" fill="#888e92"/>
          <path id="Path_1120" data-name="Path 1120" d="M412.876,176.748a.978.978,0,1,1,.979-.978A.979.979,0,0,1,412.876,176.748Z" transform="translate(-165.665 -88.17)" fill="#888e92"/>
          <path id="Path_1121" data-name="Path 1121" d="M428.756,176.748a.978.978,0,1,1,.979-.978A.98.98,0,0,1,428.756,176.748Z" transform="translate(-171.279 -88.17)" fill="#888e92"/>
          <circle id="Ellipse_18" data-name="Ellipse 18" cx="0.978" cy="0.978" r="0.978" transform="translate(266.265 86.621)" fill="#888e92"/>
          <path id="Path_1122" data-name="Path 1122" d="M428.756,191.93a.978.978,0,1,1,.979-.979A.98.98,0,0,1,428.756,191.93Z" transform="translate(-171.279 -93.538)" fill="#888e92"/>
          <path id="Path_1123" data-name="Path 1123" d="M412.876,42.748a.978.978,0,1,1,.979-.978A.98.98,0,0,1,412.876,42.748Z" transform="translate(-165.665 -40.791)" fill="#888e92"/>
          <path id="Path_1124" data-name="Path 1124" d="M428.756,42.748a.978.978,0,1,1,.979-.978A.98.98,0,0,1,428.756,42.748Z" transform="translate(-171.279 -40.791)" fill="#888e92"/>
          <circle id="Ellipse_19" data-name="Ellipse 19" cx="0.978" cy="0.978" r="0.978" transform="translate(266.265)" fill="#888e92"/>
          <path id="Path_1125" data-name="Path 1125" d="M412.876,57.93a.978.978,0,1,1,.979-.979A.98.98,0,0,1,412.876,57.93Z" transform="translate(-165.665 -46.159)" fill="#888e92"/>
          <path id="Path_1126" data-name="Path 1126" d="M428.756,57.93a.978.978,0,1,1,.979-.979A.98.98,0,0,1,428.756,57.93Z" transform="translate(-171.279 -46.159)" fill="#888e92"/>
          <path id="Path_1127" data-name="Path 1127" d="M443.865,57.93a.978.978,0,1,1,.979-.979A.979.979,0,0,1,443.865,57.93Z" transform="translate(-176.622 -46.159)" fill="#888e92"/>
          <path id="Path_1128" data-name="Path 1128" d="M412.876,73.112a.978.978,0,1,1,.979-.979A.98.98,0,0,1,412.876,73.112Z" transform="translate(-165.665 -51.527)" fill="#888e92"/>
          <path id="Path_1129" data-name="Path 1129" d="M428.756,73.112a.978.978,0,1,1,.979-.979A.98.98,0,0,1,428.756,73.112Z" transform="translate(-171.279 -51.527)" fill="#888e92"/>
          <path id="Path_1130" data-name="Path 1130" d="M443.865,73.112a.978.978,0,1,1,.979-.979A.979.979,0,0,1,443.865,73.112Z" transform="translate(-176.622 -51.527)" fill="#888e92"/>
          <path id="Path_1131" data-name="Path 1131" d="M428.756,88.293a.979.979,0,1,1,.979-.979A.98.98,0,0,1,428.756,88.293Z" transform="translate(-171.279 -56.894)" fill="#888e92"/>
          <path id="Path_1132" data-name="Path 1132" d="M31.962,217.262a.978.978,0,1,1,.979-.979A.98.98,0,0,1,31.962,217.262Z" transform="translate(-30.984 -102.494)" fill="#888e92"/>
          <path id="Path_1133" data-name="Path 1133" d="M47.842,217.262a.978.978,0,1,1,.979-.979A.98.98,0,0,1,47.842,217.262Z" transform="translate(-36.599 -102.494)" fill="#888e92"/>
          <path id="Path_1134" data-name="Path 1134" d="M62.951,217.262a.978.978,0,1,1,.979-.979A.98.98,0,0,1,62.951,217.262Z" transform="translate(-41.941 -102.494)" fill="#888e92"/>
          <path id="Path_1135" data-name="Path 1135" d="M31.962,232.443a.979.979,0,1,1,.979-.979A.98.98,0,0,1,31.962,232.443Z" transform="translate(-30.984 -107.862)" fill="#888e92"/>
          <path id="Path_1136" data-name="Path 1136" d="M47.842,232.443a.979.979,0,1,1,.979-.979A.98.98,0,0,1,47.842,232.443Z" transform="translate(-36.599 -107.862)" fill="#888e92"/>
          <path id="Path_1137" data-name="Path 1137" d="M62.951,232.443a.979.979,0,1,1,.979-.979A.98.98,0,0,1,62.951,232.443Z" transform="translate(-41.941 -107.862)" fill="#888e92"/>
          <path id="Path_1138" data-name="Path 1138" d="M31.962,247.625a.978.978,0,1,1,.979-.978A.979.979,0,0,1,31.962,247.625Z" transform="translate(-30.984 -113.23)" fill="#888e92"/>
          <path id="Path_1139" data-name="Path 1139" d="M47.842,247.625a.978.978,0,1,1,.979-.978A.979.979,0,0,1,47.842,247.625Z" transform="translate(-36.599 -113.23)" fill="#888e92"/>
          <path id="Path_1140" data-name="Path 1140" d="M62.951,247.625a.978.978,0,1,1,.979-.978A.979.979,0,0,1,62.951,247.625Z" transform="translate(-41.941 -113.23)" fill="#888e92"/>
          <path id="Path_1141" data-name="Path 1141" d="M47.842,262.807a.978.978,0,1,1,.979-.979A.979.979,0,0,1,47.842,262.807Z" transform="translate(-36.599 -118.598)" fill="#888e92"/>
          <path id="Path_1142" data-name="Path 1142" d="M135.962,63.262a.978.978,0,1,1,.979-.979A.98.98,0,0,1,135.962,63.262Z" transform="translate(-67.756 -48.044)" fill="#888e92"/>
          <path id="Path_1143" data-name="Path 1143" d="M151.842,63.262a.978.978,0,1,1,.979-.979A.98.98,0,0,1,151.842,63.262Z" transform="translate(-73.37 -48.044)" fill="#888e92"/>
          <path id="Path_1144" data-name="Path 1144" d="M166.951,63.262a.978.978,0,1,1,.979-.979A.98.98,0,0,1,166.951,63.262Z" transform="translate(-78.712 -48.044)" fill="#888e92"/>
          <path id="Path_1145" data-name="Path 1145" d="M135.962,78.443a.979.979,0,1,1,.979-.979A.98.98,0,0,1,135.962,78.443Z" transform="translate(-67.756 -53.412)" fill="#888e92"/>
          <path id="Path_1146" data-name="Path 1146" d="M151.842,78.443a.979.979,0,1,1,.979-.979A.98.98,0,0,1,151.842,78.443Z" transform="translate(-73.37 -53.412)" fill="#888e92"/>
          <path id="Path_1147" data-name="Path 1147" d="M166.951,78.443a.979.979,0,1,1,.979-.979A.98.98,0,0,1,166.951,78.443Z" transform="translate(-78.712 -53.412)" fill="#888e92"/>
          <path id="Path_1148" data-name="Path 1148" d="M135.962,93.625a.978.978,0,1,1,.979-.978A.979.979,0,0,1,135.962,93.625Z" transform="translate(-67.756 -58.78)" fill="#888e92"/>
          <path id="Path_1149" data-name="Path 1149" d="M151.842,93.625a.978.978,0,1,1,.979-.978A.979.979,0,0,1,151.842,93.625Z" transform="translate(-73.37 -58.78)" fill="#888e92"/>
          <path id="Path_1150" data-name="Path 1150" d="M166.951,93.625a.978.978,0,1,1,.979-.978A.979.979,0,0,1,166.951,93.625Z" transform="translate(-78.712 -58.78)" fill="#888e92"/>
          <path id="Path_1151" data-name="Path 1151" d="M151.842,108.807a.978.978,0,1,1,.979-.978A.979.979,0,0,1,151.842,108.807Z" transform="translate(-73.37 -64.148)" fill="#888e92"/>
        </g>
      </g>
    </g>
    <g id="Group_2021" data-name="Group 2021" transform="translate(1129.674 996.402)">
      <path id="Path_699" data-name="Path 699" d="M1388.416,1162.313a307.521,307.521,0,0,1,3.551-37.71c2.547-14.724,4.839-23.2,4.866-23.286.335-1.3,5.181-6.534,15.955-6.373s9.752,7.033,9.752,7.033h0a2.222,2.222,0,0,1-.077.611c-.1.354-9.994,36.213-9.566,82.513.006.65.079,1.774.033,2.522,0,0-24.967.644-24.974,0C1387.086,1183.577,1387.511,1172.364,1388.416,1162.313Z" transform="translate(-1324.286 -1094.94)"/>
      <path id="Path_700" data-name="Path 700" d="M1381.247,1184.873c.007.645.348,1.162.763,1.162h.01c.415-.01.746-.526.751-1.162h21.4c.007.645.348,1.162.763,1.162h.01c.422-.01.758-.543.753-1.2a323.087,323.087,0,0,1,1.775-36.553c2.844-27.24,8.1-45.446,8.177-45.7a2.274,2.274,0,0,0,.077-.611s1.022-6.871-9.751-7.033-15.621,5.079-15.957,6.374c-.02.068-1.318,4.865-3.043,13.489-.572,2.857-1.189,6.134-1.823,9.8a307.777,307.777,0,0,0-3.55,37.71C1380.695,1172.363,1380.377,1180.828,1381.247,1184.873Z" transform="translate(-1320.256 -1094.94)"/>
      <path id="Path_701" data-name="Path 701" d="M1381.247,1214.347c.007.645.348,1.162.763,1.162h.01c.415-.01.746-.526.751-1.162h21.4c.007.645.348,1.162.763,1.162h.01c.422-.01.758-.543.753-1.2a323.087,323.087,0,0,1,1.775-36.553c-3.538-17.287-17.21-30.509-20.5-33.48-.572,2.857-1.189,6.134-1.823,9.8a307.777,307.777,0,0,0-3.55,37.71C1380.695,1201.837,1380.377,1210.3,1381.247,1214.347Z" transform="translate(-1320.256 -1124.414)"/>
      <g id="Group_2016" data-name="Group 2016" transform="translate(62.083 2.728)">
        <path id="Path_702" data-name="Path 702" d="M1405.192,1188.7l-.06-.042c-.018-.012-.031-.021-.039-.107h-.013a.584.584,0,0,0-.172-.453c-.68-.694-3.268-.665-6.545-.627a67.564,67.564,0,0,1-12.483-.688c-2.3-.4-.747-18.088.885-34.633.277-2.813.5-5.035.6-6.342,1.058-14,7.206-39.062,7.264-39.26.273-1.053,3.968-4.955,11.981-4.825,3.012.045,5.153.79,6.362,2.214a4.236,4.236,0,0,1,1.008,3.155,1.687,1.687,0,0,1-.061.47c-.033.136-5.57,32.45-6.476,40.21-1.49,12.772-2.086,39.25-2.112,40.723,0,.018,0,.037,0,.055l0,.073Zm-4.779-1.493c2.39,0,4.077.11,4.671.717l.005.006c.01-.61.041-1.751.1-3.9.07-2.531.191-6.483.367-10.94.308-7.8.842-18.528,1.638-25.349.925-7.931,6.454-40.15,6.484-40.251a1.524,1.524,0,0,0,.052-.419,4.072,4.072,0,0,0-.953-2.982c-1.162-1.365-3.24-2.08-6.176-2.124l-.363,0c-7.621,0-11.118,3.647-11.378,4.648-.061.23-6.192,25.122-7.256,39.214l-.122-.01.122.01c-.1,1.31-.318,3.533-.6,6.347-1.088,11.026-3.351,33.971-1.086,34.368a67.319,67.319,0,0,0,12.438.684C1399.09,1187.214,1399.776,1187.206,1400.413,1187.206Z" transform="translate(-1384.72 -1101.715)"/>
      </g>
      <path id="Path_703" data-name="Path 703" d="M1322.194,1311.029h-83.887s1.954-7.906,50.536-6.729C1323.223,1305.134,1322.194,1311.029,1322.194,1311.029Z" transform="translate(-1235.175 -1219.933)"/>
      <g id="Group_2017" data-name="Group 2017" transform="translate(79.626 92.32)">
        <path id="Path_704" data-name="Path 704" d="M1442.513,1405.578c-9.726-49.239-7.225-79.454-7.213-79.834.024-.758-1.373-1.447-2.124-1.471s-4.119-.224-4.507.425c-.509.85-2.468,38.077,12.028,80.88Z" transform="translate(-1428.292 -1324.229)"/>
      </g>
      <g id="Group_2018" data-name="Group 2018" transform="translate(15.522 92.32)">
        <path id="Path_705" data-name="Path 705" d="M1269.081,1405.578c9.726-49.239,7.225-79.454,7.213-79.834-.025-.758,1.373-1.447,2.124-1.471s4.118-.224,4.507.425c.509.85,2.468,38.077-12.029,80.88Z" transform="translate(-1269.081 -1324.229)"/>
      </g>
      <g id="Group_2019" data-name="Group 2019" transform="translate(0 92.32)">
        <path id="Path_706" data-name="Path 706" d="M1230.529,1405.578c9.726-49.239,7.226-79.454,7.213-79.834-.025-.758,1.373-1.447,2.124-1.471s4.118-.224,4.507.425c.509.85,2.468,38.077-12.028,80.88Z" transform="translate(-1230.529 -1324.229)"/>
      </g>
      <g id="Group_2020" data-name="Group 2020" transform="translate(64 92.32)">
        <path id="Path_707" data-name="Path 707" d="M1403.7,1405.578c-9.726-49.239-7.225-79.454-7.213-79.834.024-.758-1.373-1.447-2.125-1.471s-4.118-.224-4.506.425c-.509.85-2.468,38.077,12.028,80.88Z" transform="translate(-1389.481 -1324.229)"/>
      </g>
      <rect id="Rectangle_369" data-name="Rectangle 369" width="87.324" height="4.566" rx="2.283" transform="translate(88.688 93.618) rotate(180)"/>
    </g>
    <g id="Group_2025" data-name="Group 2025" transform="translate(1061.696 929.985)">
      <g id="Group_2022" data-name="Group 2022">
        <path id="Path_708" data-name="Path 708" d="M1275.312,1419.128a2.478,2.478,0,0,1,.442,2.65.023.023,0,0,1-.007.013c-.639,1.766-2.751,3.739-5.2,5.708-.313.253-.592.484-.835.7-.064.056-.128.112-.188.168s-.1.089-.144.13c-2.287,2.109-1.427,2.592-5.536,6.871-4.686,4.875-7.912,4.963-8.83,4.519-.776-.379.8-2.964,2.549-5.87.085-.14.168-.282.255-.424.233-.386.464-.778.695-1.167,2.049-3.5,1.523-5.139,1.037-10.344-.4-4.23-6.581-23.632-6.581-23.632l8.98-1.547s2.7,15.45,5.684,17.829c1.593,1.268,3.377,1.284,4.908,2.224q.162.1.318.2A11.786,11.786,0,0,1,1275.312,1419.128Z" transform="translate(-1175.953 -1208.903)" fill="#ffb27d"/>
        <path id="Path_709" data-name="Path 709" d="M1278.044,1448.88a2.478,2.478,0,0,1,.442,2.65.024.024,0,0,1-.007.013c-.783,1.764-2.841,3.727-5.213,5.69-.31.257-.583.494-.827.714-.064.056-.128.112-.188.168s-.1.089-.144.13c-2.287,2.109-1.427,2.592-5.536,6.871-4.686,4.875-7.912,4.963-8.83,4.519-.776-.378.8-2.964,2.549-5.87a19.962,19.962,0,0,0,8.353-6.155c2.822-3.6,4.7-8.227,6.625-10.906.108.065.215.132.319.2A11.785,11.785,0,0,1,1278.044,1448.88Z" transform="translate(-1178.686 -1238.656)"/>
        <path id="Path_710" data-name="Path 710" d="M1088.647,1409.466c-.554,2.772-4.505,2.309-8.92,1.23s-3.365.2-9.648-.492-8.186-3.038-8.377-3.972c-.171-.829,2.933-1.121,6.263-1.5.419-.047.839-.1,1.26-.151,3.759-.472,6.512-2.9,9.927-4.889,3.234-1.888,8.061-9.576,8.061-9.576l8.616.682s-4.521,6.867-6.27,9.853c-1.028,1.756-.974,4.078-.846,5.871A11.038,11.038,0,0,1,1088.647,1409.466Z" transform="translate(-1061.696 -1204.849)" fill="#ffb27d"/>
        <path id="Path_711" data-name="Path 711" d="M1079.728,1432.381c-4.414-1.078-3.365.2-9.648-.492s-8.186-3.038-8.377-3.972c-.171-.829,2.933-1.121,6.263-1.5l.031.064a17.715,17.715,0,0,0,9,2.8c4.262.1,8.777-1.118,11.72-1.071a11.038,11.038,0,0,1-.066,2.948C1088.093,1433.922,1084.142,1433.459,1079.728,1432.381Z" transform="translate(-1061.696 -1226.533)"/>
        <path id="Path_712" data-name="Path 712" d="M1154.795,1115.035s-2.053-5.03-4.311-5.235-9.443-1.334-9.956-.308,0,4.722,1.539,6.056,11.085,3.49,11.085,3.49Z" transform="translate(-1108.673 -1036.963)" fill="#ffb27d"/>
        <path id="Path_713" data-name="Path 713" d="M1210.638,1280.862l18.569,49.971a17.011,17.011,0,0,0,5.587-.512,24.058,24.058,0,0,0,5.4-2.63s-4.607-47.982-13.051-57.962S1210.638,1280.862,1210.638,1280.862Z" transform="translate(-1150.669 -1131.336)"/>
        <path id="Path_714" data-name="Path 714" d="M1225.569,1229.276s-53.355-18.041-65.255-14.2-47.627,74.921-47.627,74.921a6.9,6.9,0,0,0,3.007,1.9c2.047.768,7,.719,7,.719s32.243-27.637,36.082-35.7,5.374-15.738,9.213-14.97,49.517,18.809,59.881,8.061,7.654-24.712,7.654-24.712Z" transform="translate(-1092.156 -1099.967)"/>
        <path id="Path_715" data-name="Path 715" d="M1304.567,975.365c-.852-1.759-1.8-4.884-2.271-10.454.072.553,1.032,7.578,3.733,11.555,11.1,7.285,32.365,31.611,31.944,36.22,0,0,7.491-12.706,7.62-12.782,0,0,13.819-17.573-2.559-27.639-8.324-5.116-8.282-11.682-7.934-17.385s-2.27-30.257-18.946-23.832c0,0-2.675-1.189-3.874-1.011a3.276,3.276,0,0,1,1.477.7,12.942,12.942,0,0,0-7,1.34C1300.641,935.552,1295.171,966.718,1304.567,975.365Z" transform="translate(-1203.76 -929.985)"/>
        <path id="Path_716" data-name="Path 716" d="M1317.327,1021.954c-.056.025,5.357,2.836,9.429,1.722,3.83-1.044,6.333-6.01,6.28-6.021-1.622-.322-2.09-2.551-2.056-12.129l-.733.145-12.329,2.441s.281,3.88.289,7.535C1318.216,1018.715,1318.03,1021.626,1317.327,1021.954Z" transform="translate(-1214.401 -975.11)" fill="#ffb27d"/>
        <path id="Path_717" data-name="Path 717" d="M1318.8,1008.326s.281,3.88.289,7.535c6.9-.194,10.546-6.488,12.04-9.976Z" transform="translate(-1215.279 -975.325)" fill="#ed975d"/>
        <path id="Path_718" data-name="Path 718" d="M1320.879,964.967s3.616-5.713,4.483-10.6c.62-3.487-1.157-16.414-14.147-14.552a17.645,17.645,0,0,0-7.319,2.767c-2.82,1.9-6.891,6.017-2.34,17.3l1.182,3.811Z" transform="translate(-1203.76 -935.749)"/>
        <path id="Path_719" data-name="Path 719" d="M1305.009,979.679s16.323.269,16.334-9.9,2.125-16.981-8.3-17.583-12.451,3.276-13.28,6.669S1300.763,979.347,1305.009,979.679Z" transform="translate(-1203.795 -943.217)" fill="#ffb27d"/>
        <path id="Path_720" data-name="Path 720" d="M1314.575,948.6s4.469,11.929,11.328,13.693,9.834-.074,9.834-.074a19.423,19.423,0,0,1-6.353-11.475S1317.946,942.927,1314.575,948.6Z" transform="translate(-1212.757 -939.874)"/>
        <path id="Path_721" data-name="Path 721" d="M1305.064,951.191s-3.338,2.663-4.151,5.252-1.18,7.919-2.734,7.738c0,0-3.367-8.108.417-12.695C1302.609,946.623,1305.064,951.191,1305.064,951.191Z" transform="translate(-1202.138 -941.491)"/>
        <path id="Path_722" data-name="Path 722" d="M1343.278,1122.685c-.88,2.444-3.58,3.073-7.2,2.648-6.9-.806-17.149-5.438-24.535-8.642-11.26-4.88-16.378-.294-19.961-3.4s4.095-10.014-2.559-42.088c-2.257-10.876,12.043-34.195,12.043-34.195s1.236,6.751,14.917-1.369c.484-.286,5.868,7.688,11.056,17.517,5.717,10.846,11.194,23.946,9.584,30.7C1333.554,1096.722,1345.838,1115.583,1343.278,1122.685Z" transform="translate(-1197.35 -993.094)" fill="#3063a4"/>
        <path id="Path_723" data-name="Path 723" d="M1228.636,1039.05l-8.435,34.6s-1.049,1.869-2.695,4.528c-3.862,6.244-11.009,16.851-15.585,17.929-2.257.532-7.058-1.346-12.371-4.03a251.264,251.264,0,0,1-21.922-13.029c-.768-4.607,3.24-8.361,3.24-8.361s24.056,9.042,26.446,9.213c5.208.371,10.508-24.765,15.375-33.141C1216.209,1040.7,1228.636,1039.05,1228.636,1039.05Z" transform="translate(-1124.918 -995.137)" fill="#3063a4"/>
        <path id="Path_724" data-name="Path 724" d="M1312.985,1004.01s-.3,1.292-3.517,1.093c0,0-2.7-.167-2.616-1.586A8.679,8.679,0,0,1,1312.985,1004.01Z" transform="translate(-1208.143 -973.712)" fill="#fff"/>
        <path id="Path_725" data-name="Path 725" d="M1376.1,1167.361c-.88,2.444-3.58,3.073-7.2,2.648-4.776-2.08-25.405-10.073-25.174-15.488.343-8.018,3.967-8.274,1.408-18.17-2.055-7.946,17.006-22.721,20.046-25.933,5.717,10.845,5.875,11.358,4.266,18.11C1366.372,1141.4,1378.656,1160.259,1376.1,1167.361Z" transform="translate(-1230.169 -1037.77)" fill="#3063a4"/>
        <path id="Path_726" data-name="Path 726" d="M1250.176,1134.181c-3.862,6.244-11.009,16.851-15.585,17.929-2.257.532-7.058-1.346-12.371-4.03a32.134,32.134,0,0,0,11.3.619c3.967-.384,5.118-5.246,11.388-12.54C1248.978,1131.43,1249.976,1132.62,1250.176,1134.181Z" transform="translate(-1157.588 -1051.141)" fill="#4a75cb"/>
        <path id="Path_727" data-name="Path 727" d="M1322.118,1171.166s-3.455-2.687-6.718-2.047-4.862,2.879-4.734,3.9,1.855,3.9,4.35,4.158,9.6-1.535,9.6-1.535Z" transform="translate(-1210.418 -1072.777)" fill="#ffb27d"/>
        <path id="Path_728" data-name="Path 728" d="M1344.124,1035.649s13.3.82,17.909,7.243c6.483,9.042,17.743,45.958,14.673,54.4l-40.477-.17s-.981-4.585.384-6.8,23.544-5.8,24.568-6.824-12.8-19.961-12.8-23.032S1344.124,1035.649,1344.124,1035.649Z" transform="translate(-1225.489 -993.105)" fill="#3063a4"/>
      </g>
      <g id="Group_2024" data-name="Group 2024" transform="translate(50.39 82.701)">
        <g id="Group_2023" data-name="Group 2023">
          <path id="Path_729" data-name="Path 729" d="M1244.684,1166.192h-49l-8.834-30.806h48.928Z" transform="translate(-1186.846 -1135.386)" fill="#00a4fd"/>
          <rect id="Rectangle_370" data-name="Rectangle 370" width="64.063" height="1.2" transform="translate(9.002 29.606)" fill="#163560"/>
        </g>
        <path id="Path_730" data-name="Path 730" d="M1247.316,1169.49a1.427,1.427,0,0,1,1.4-1.961,2.809,2.809,0,0,1,2.523,1.961,1.427,1.427,0,0,1-1.4,1.961A2.81,2.81,0,0,1,1247.316,1169.49Z" transform="translate(-1222.921 -1154.587)" fill="#163560"/>
      </g>
    </g>
  </g>
</svg>
