<svg xmlns="http://www.w3.org/2000/svg" xmlns:xlink="http://www.w3.org/1999/xlink" width="396.672" height="390.669" viewBox="0 0 396.672 390.669">
  <defs>
    <linearGradient id="linear-gradient" y1="0.5" x2="1" y2="0.5" gradientUnits="objectBoundingBox">
      <stop offset="0" stop-color="#09005d"/>
      <stop offset="1" stop-color="#1a0f91"/>
    </linearGradient>
    <linearGradient id="linear-gradient-2" x1="1.261" y1="-3.62" x2="0.46" y2="-2.739" gradientUnits="objectBoundingBox">
      <stop offset="0" stop-color="#febbba"/>
      <stop offset="1" stop-color="#ff928e"/>
    </linearGradient>
    <linearGradient id="linear-gradient-3" x1="1.341" y1="-12.069" x2="0.276" y2="-11.122" xlink:href="#linear-gradient-2"/>
    <linearGradient id="linear-gradient-4" x1="1.489" y1="-0.231" x2="3.809" y2="-2.093" gradientUnits="objectBoundingBox">
      <stop offset="0" stop-color="#3063a4"/>
      <stop offset="1" stop-color="#4042e2"/>
    </linearGradient>
    <linearGradient id="linear-gradient-5" x1="-86.942" y1="7.099" x2="-86.717" y2="6.189" xlink:href="#linear-gradient-2"/>
    <linearGradient id="linear-gradient-6" x1="18.461" y1="0.478" x2="19.456" y2="0.478" gradientUnits="objectBoundingBox">
      <stop offset="0"/>
      <stop offset="1" stop-color="#4042e2"/>
    </linearGradient>
    <linearGradient id="linear-gradient-7" x1="17.22" y1="0.391" x2="13.323" y2="0.721" xlink:href="#linear-gradient-2"/>
    <linearGradient id="linear-gradient-8" x1="17.15" y1="0.478" x2="18.143" y2="0.478" xlink:href="#linear-gradient-6"/>
    <linearGradient id="linear-gradient-9" x1="-50.352" y1="5.127" x2="-49.142" y2="6.29" xlink:href="#linear-gradient-2"/>
    <linearGradient id="linear-gradient-10" x1="1.611" y1="1.445" x2="7.127" y2="7.424" gradientUnits="objectBoundingBox">
      <stop offset="0"/>
      <stop offset="1" stop-color="#e9605a"/>
    </linearGradient>
    <linearGradient id="linear-gradient-11" x1="-142.013" y1="16.527" x2="-138.637" y2="20.846" xlink:href="#linear-gradient-2"/>
    <linearGradient id="linear-gradient-12" x1="-18.864" y1="1.252" x2="-16.648" y2="0.185" xlink:href="#linear-gradient-2"/>
    <linearGradient id="linear-gradient-13" x1="-40.859" y1="0.5" x2="-39.859" y2="0.5" xlink:href="#linear-gradient-2"/>
    <linearGradient id="linear-gradient-14" x1="19.973" y1="12.411" x2="19.631" y2="16.82" gradientUnits="objectBoundingBox">
      <stop offset="0" stop-color="#50e7b7"/>
      <stop offset="0.996" stop-color="#323992"/>
    </linearGradient>
    <linearGradient id="linear-gradient-15" x1="22.598" y1="11.046" x2="22.256" y2="15.455" xlink:href="#linear-gradient-14"/>
  </defs>
  <g id="Group_2412" data-name="Group 2412" transform="translate(10.836 -137.477)">
    <g id="Group_2246" data-name="Group 2246" transform="matrix(0.839, -0.545, 0.545, 0.839, -46.172, 285.042)">
      <g id="Background_Simple" data-name="Background Simple" transform="translate(22.56 30.141)">
        <g id="Group_2244" data-name="Group 2244" opacity="0.6">
          <path id="Path_1112" data-name="Path 1112" d="M25.833,124.387S38.271,71.8,87.314,46.19s107.522-14.7,155.131-7.173,77.913,43.958,74.672,87.661-41.642,47.85-70.967,91.655-30.84,60.087-78.074,80.261-107.9-13-131.255-71.735S25.833,124.387,25.833,124.387Z" transform="translate(-22.56 -30.141)" fill="#9e9e9e" opacity="0.33"/>
          <path id="Path_1113" data-name="Path 1113" d="M25.833,124.387S38.271,71.8,87.314,46.19s107.522-14.7,155.131-7.173,77.913,43.958,74.672,87.661-41.642,47.85-70.967,91.655-30.84,60.087-78.074,80.261-107.9-13-131.255-71.735S25.833,124.387,25.833,124.387Z" transform="translate(-22.56 -30.141)" fill="#9e9e9e" opacity="0.29"/>
        </g>
      </g>
      <g id="Graphics" transform="translate(28.005 37.025)">
        <g id="Group_2245" data-name="Group 2245">
          <path id="Path_1114" data-name="Path 1114" d="M412.876,146.385a.978.978,0,1,1,.979-.979A.98.98,0,0,1,412.876,146.385Z" transform="translate(-165.665 -77.434)" fill="#888e92"/>
          <path id="Path_1115" data-name="Path 1115" d="M428.756,146.385a.978.978,0,1,1,.979-.979A.98.98,0,0,1,428.756,146.385Z" transform="translate(-171.279 -77.434)" fill="#888e92"/>
          <path id="Path_1116" data-name="Path 1116" d="M443.865,146.385a.978.978,0,1,1,.979-.979A.98.98,0,0,1,443.865,146.385Z" transform="translate(-176.622 -77.434)" fill="#888e92"/>
          <path id="Path_1117" data-name="Path 1117" d="M412.876,161.566a.978.978,0,1,1,.979-.978A.979.979,0,0,1,412.876,161.566Z" transform="translate(-165.665 -82.802)" fill="#888e92"/>
          <path id="Path_1118" data-name="Path 1118" d="M428.756,161.566a.978.978,0,1,1,.979-.978A.98.98,0,0,1,428.756,161.566Z" transform="translate(-171.279 -82.802)" fill="#888e92"/>
          <path id="Path_1119" data-name="Path 1119" d="M443.865,161.566a.978.978,0,1,1,.979-.978A.979.979,0,0,1,443.865,161.566Z" transform="translate(-176.622 -82.802)" fill="#888e92"/>
          <path id="Path_1120" data-name="Path 1120" d="M412.876,176.748a.978.978,0,1,1,.979-.978A.979.979,0,0,1,412.876,176.748Z" transform="translate(-165.665 -88.17)" fill="#888e92"/>
          <path id="Path_1121" data-name="Path 1121" d="M428.756,176.748a.978.978,0,1,1,.979-.978A.98.98,0,0,1,428.756,176.748Z" transform="translate(-171.279 -88.17)" fill="#888e92"/>
          <circle id="Ellipse_18" data-name="Ellipse 18" cx="0.978" cy="0.978" r="0.978" transform="translate(266.265 86.621)" fill="#888e92"/>
          <path id="Path_1122" data-name="Path 1122" d="M428.756,191.93a.978.978,0,1,1,.979-.979A.98.98,0,0,1,428.756,191.93Z" transform="translate(-171.279 -93.538)" fill="#888e92"/>
          <path id="Path_1123" data-name="Path 1123" d="M412.876,42.748a.978.978,0,1,1,.979-.978A.98.98,0,0,1,412.876,42.748Z" transform="translate(-165.665 -40.791)" fill="#888e92"/>
          <path id="Path_1124" data-name="Path 1124" d="M428.756,42.748a.978.978,0,1,1,.979-.978A.98.98,0,0,1,428.756,42.748Z" transform="translate(-171.279 -40.791)" fill="#888e92"/>
          <circle id="Ellipse_19" data-name="Ellipse 19" cx="0.978" cy="0.978" r="0.978" transform="translate(266.265)" fill="#888e92"/>
          <path id="Path_1125" data-name="Path 1125" d="M412.876,57.93a.978.978,0,1,1,.979-.979A.98.98,0,0,1,412.876,57.93Z" transform="translate(-165.665 -46.159)" fill="#888e92"/>
          <path id="Path_1126" data-name="Path 1126" d="M428.756,57.93a.978.978,0,1,1,.979-.979A.98.98,0,0,1,428.756,57.93Z" transform="translate(-171.279 -46.159)" fill="#888e92"/>
          <path id="Path_1127" data-name="Path 1127" d="M443.865,57.93a.978.978,0,1,1,.979-.979A.979.979,0,0,1,443.865,57.93Z" transform="translate(-176.622 -46.159)" fill="#888e92"/>
          <path id="Path_1128" data-name="Path 1128" d="M412.876,73.112a.978.978,0,1,1,.979-.979A.98.98,0,0,1,412.876,73.112Z" transform="translate(-165.665 -51.527)" fill="#888e92"/>
          <path id="Path_1129" data-name="Path 1129" d="M428.756,73.112a.978.978,0,1,1,.979-.979A.98.98,0,0,1,428.756,73.112Z" transform="translate(-171.279 -51.527)" fill="#888e92"/>
          <path id="Path_1130" data-name="Path 1130" d="M443.865,73.112a.978.978,0,1,1,.979-.979A.979.979,0,0,1,443.865,73.112Z" transform="translate(-176.622 -51.527)" fill="#888e92"/>
          <path id="Path_1131" data-name="Path 1131" d="M428.756,88.293a.979.979,0,1,1,.979-.979A.98.98,0,0,1,428.756,88.293Z" transform="translate(-171.279 -56.894)" fill="#888e92"/>
          <path id="Path_1132" data-name="Path 1132" d="M31.962,217.262a.978.978,0,1,1,.979-.979A.98.98,0,0,1,31.962,217.262Z" transform="translate(-30.984 -102.494)" fill="#888e92"/>
          <path id="Path_1133" data-name="Path 1133" d="M47.842,217.262a.978.978,0,1,1,.979-.979A.98.98,0,0,1,47.842,217.262Z" transform="translate(-36.599 -102.494)" fill="#888e92"/>
          <path id="Path_1134" data-name="Path 1134" d="M62.951,217.262a.978.978,0,1,1,.979-.979A.98.98,0,0,1,62.951,217.262Z" transform="translate(-41.941 -102.494)" fill="#888e92"/>
          <path id="Path_1135" data-name="Path 1135" d="M31.962,232.443a.979.979,0,1,1,.979-.979A.98.98,0,0,1,31.962,232.443Z" transform="translate(-30.984 -107.862)" fill="#888e92"/>
          <path id="Path_1136" data-name="Path 1136" d="M47.842,232.443a.979.979,0,1,1,.979-.979A.98.98,0,0,1,47.842,232.443Z" transform="translate(-36.599 -107.862)" fill="#888e92"/>
          <path id="Path_1137" data-name="Path 1137" d="M62.951,232.443a.979.979,0,1,1,.979-.979A.98.98,0,0,1,62.951,232.443Z" transform="translate(-41.941 -107.862)" fill="#888e92"/>
          <path id="Path_1138" data-name="Path 1138" d="M31.962,247.625a.978.978,0,1,1,.979-.978A.979.979,0,0,1,31.962,247.625Z" transform="translate(-30.984 -113.23)" fill="#888e92"/>
          <path id="Path_1139" data-name="Path 1139" d="M47.842,247.625a.978.978,0,1,1,.979-.978A.979.979,0,0,1,47.842,247.625Z" transform="translate(-36.599 -113.23)" fill="#888e92"/>
          <path id="Path_1140" data-name="Path 1140" d="M62.951,247.625a.978.978,0,1,1,.979-.978A.979.979,0,0,1,62.951,247.625Z" transform="translate(-41.941 -113.23)" fill="#888e92"/>
          <path id="Path_1141" data-name="Path 1141" d="M47.842,262.807a.978.978,0,1,1,.979-.979A.979.979,0,0,1,47.842,262.807Z" transform="translate(-36.599 -118.598)" fill="#888e92"/>
          <path id="Path_1142" data-name="Path 1142" d="M135.962,63.262a.978.978,0,1,1,.979-.979A.98.98,0,0,1,135.962,63.262Z" transform="translate(-67.756 -48.044)" fill="#888e92"/>
          <path id="Path_1143" data-name="Path 1143" d="M151.842,63.262a.978.978,0,1,1,.979-.979A.98.98,0,0,1,151.842,63.262Z" transform="translate(-73.37 -48.044)" fill="#888e92"/>
          <path id="Path_1144" data-name="Path 1144" d="M166.951,63.262a.978.978,0,1,1,.979-.979A.98.98,0,0,1,166.951,63.262Z" transform="translate(-78.712 -48.044)" fill="#888e92"/>
          <path id="Path_1145" data-name="Path 1145" d="M135.962,78.443a.979.979,0,1,1,.979-.979A.98.98,0,0,1,135.962,78.443Z" transform="translate(-67.756 -53.412)" fill="#888e92"/>
          <path id="Path_1146" data-name="Path 1146" d="M151.842,78.443a.979.979,0,1,1,.979-.979A.98.98,0,0,1,151.842,78.443Z" transform="translate(-73.37 -53.412)" fill="#888e92"/>
          <path id="Path_1147" data-name="Path 1147" d="M166.951,78.443a.979.979,0,1,1,.979-.979A.98.98,0,0,1,166.951,78.443Z" transform="translate(-78.712 -53.412)" fill="#888e92"/>
          <path id="Path_1148" data-name="Path 1148" d="M135.962,93.625a.978.978,0,1,1,.979-.978A.979.979,0,0,1,135.962,93.625Z" transform="translate(-67.756 -58.78)" fill="#888e92"/>
          <path id="Path_1149" data-name="Path 1149" d="M151.842,93.625a.978.978,0,1,1,.979-.978A.979.979,0,0,1,151.842,93.625Z" transform="translate(-73.37 -58.78)" fill="#888e92"/>
          <path id="Path_1150" data-name="Path 1150" d="M166.951,93.625a.978.978,0,1,1,.979-.978A.979.979,0,0,1,166.951,93.625Z" transform="translate(-78.712 -58.78)" fill="#888e92"/>
          <path id="Path_1151" data-name="Path 1151" d="M151.842,108.807a.978.978,0,1,1,.979-.978A.979.979,0,0,1,151.842,108.807Z" transform="translate(-73.37 -64.148)" fill="#888e92"/>
        </g>
      </g>
    </g>
    <g id="Group_2296" data-name="Group 2296" transform="translate(-400.853 -179.209)">
      <g id="Group_2249" data-name="Group 2249" transform="translate(525.473 437.966)">
        <g id="Group_2247" data-name="Group 2247" transform="translate(0 0)">
          <path id="Path_1153" data-name="Path 1153" d="M1075.494,457.728c-.712,33.6-3.021,149.5-1.919,190.575.117,4.351,3.1,7.844,6.818,7.986,18.4.7,85.833,2.489,115.922,1.012,6.267-.307,11.251-6.246,11.381-13.583.625-35.269,2-134.465-1.274-179.908-.393-5.445-4.046-9.781-8.693-10.324-20.034-2.345-87.762-8.076-113.757-6.1C1079.284,447.741,1075.61,452.234,1075.494,457.728Z" transform="translate(-1073.282 -446.979)" fill="url(#linear-gradient)"/>
          <path id="Path_1154" data-name="Path 1154" d="M1168.322,612.062c-.99,27.121-4.113,117.346-3.122,150.709.145,4.877,3.43,8.82,7.594,9.1,17.144,1.174,75.635,3.762,100.78,1.406,4.528-.424,8.081-4.708,8.325-10.015,1.274-27.669,4.933-111.681,3.983-144.67-.151-5.263-3.636-9.561-8.119-10.031-18.547-1.948-80.7-6.583-102.068-5.22C1171.684,603.6,1168.494,607.367,1168.322,612.062Z" transform="translate(-1157.902 -591.004)" fill="#040404"/>
          <path id="Path_1155" data-name="Path 1155" d="M1762.047,514.305h0a1.83,1.83,0,0,0,1.567,1.935c4.345.266,16.585,1.02,22.055,1.391a1.852,1.852,0,0,0,1.72-2.3l-.035-.212a1.78,1.78,0,0,0-1.474-1.563c-3.7-.4-14.854-1.5-22.247-1.187A1.824,1.824,0,0,0,1762.047,514.305Z" transform="translate(-1708.687 -507.253)"/>
        </g>
        <path id="Path_1156" data-name="Path 1156" d="M1277.216,1843.138a6.88,6.88,0,0,1-6.668-6.876v-60.745a6.879,6.879,0,0,1,7.116-6.875l90.343.536a6.175,6.175,0,0,1,6.138,6.175v61.527a6.259,6.259,0,0,1-6.259,6.26Z" transform="translate(-1255.265 -1666.245)" fill="#9e9e9e" opacity="0.33"/>
        <path id="Path_1157" data-name="Path 1157" d="M1374.154,796.971a5.491,5.491,0,0,1-5.584,5.49l-92.7-1.57a5.506,5.506,0,0,1-5.311-5.5V731.141a5.506,5.506,0,0,1,5.689-5.5l92.585,3.083a5.506,5.506,0,0,1,5.323,5.5Z" transform="translate(-1255.275 -704.047)" fill="#9e9e9e" opacity="0.33"/>
        <rect id="Rectangle_424" data-name="Rectangle 424" width="47.628" height="4.383" rx="2.191" transform="translate(64.935 34.192)" fill="#fff" opacity="0.77"/>
        <rect id="Rectangle_425" data-name="Rectangle 425" width="47.628" height="4.383" rx="2.191" transform="translate(64.935 41.557)" fill="#fff" opacity="0.77"/>
        <g id="Group_2248" data-name="Group 2248" transform="translate(20.18 107.196)">
          <path id="Path_1158" data-name="Path 1158" d="M1421.486,1894.159h-81.114a4.832,4.832,0,0,1-4.914-4.633l-1.695-53.952a4.673,4.673,0,0,1,1.335-3.423,4.937,4.937,0,0,1,3.579-1.5h82.808a4.855,4.855,0,0,1,4.916,4.779v53.953A4.855,4.855,0,0,1,1421.486,1894.159Zm-82.808-62.736a4.168,4.168,0,0,0-3.022,1.267,3.9,3.9,0,0,0-1.117,2.859l1.695,53.952a4.06,4.06,0,0,0,4.139,3.883h81.114a4.079,4.079,0,0,0,4.141-4v-53.953a4.079,4.079,0,0,0-4.141-4Z" transform="translate(-1333.762 -1830.648)" fill="#fff"/>
          <rect id="Rectangle_426" data-name="Rectangle 426" width="63.076" height="0.775" transform="matrix(0.004, -1, 1, 0.004, 23.737, 63.122)" fill="#fff"/>
          <rect id="Rectangle_427" data-name="Rectangle 427" width="63.076" height="0.775" transform="matrix(0.004, -1, 1, 0.004, 71.431, 63.122)" fill="#fff"/>
          <rect id="Rectangle_428" data-name="Rectangle 428" width="0.775" height="67.889" transform="translate(24.363 14.351) rotate(-89.627)" fill="#fff"/>
          <rect id="Rectangle_429" data-name="Rectangle 429" width="68.068" height="0.775" transform="translate(24.179 33.164)" fill="#fff"/>
          <rect id="Rectangle_430" data-name="Rectangle 430" width="68.068" height="0.775" transform="translate(24.275 48.513)" fill="#fff"/>
        </g>
        <path id="Path_1159" data-name="Path 1159" d="M1430.166,1155.021h-83.3a4.269,4.269,0,0,1-4.264-4.264v-7.486a4.268,4.268,0,0,1,4.264-4.264h83.3a4.268,4.268,0,0,1,4.264,4.264v7.486A4.268,4.268,0,0,1,1430.166,1155.021Zm-83.3-15.238a3.492,3.492,0,0,0-3.489,3.489v7.486a3.492,3.492,0,0,0,3.489,3.488h83.3a3.492,3.492,0,0,0,3.489-3.488v-7.486a3.492,3.492,0,0,0-3.489-3.489Z" transform="translate(-1321.733 -1085.395)" fill="#fff"/>
        <path id="Path_1160" data-name="Path 1160" d="M1430.166,1419.079h-83.3a4.268,4.268,0,0,1-4.264-4.264v-7.486a4.269,4.269,0,0,1,4.264-4.264h83.3a4.269,4.269,0,0,1,4.264,4.264v7.486A4.268,4.268,0,0,1,1430.166,1419.079Zm-83.3-15.238a3.492,3.492,0,0,0-3.489,3.489v7.486a3.492,3.492,0,0,0,3.489,3.488h83.3a3.492,3.492,0,0,0,3.489-3.488v-7.486a3.492,3.492,0,0,0-3.489-3.489Z" transform="translate(-1321.733 -1328.996)" fill="#fff"/>
      </g>
      <g id="Group_2251" data-name="Group 2251" transform="translate(557.611 491.496)">
        <path id="Path_1216" data-name="Path 1216" d="M36.413,0A36.413,36.413,0,1,1,0,36.413,36.413,36.413,0,0,1,36.413,0Z" transform="translate(0 0)" fill="#fff" opacity="0.76"/>
        <g id="Group_2250" data-name="Group 2250" transform="translate(17.905 5.558)">
          <path id="Path_1161" data-name="Path 1161" d="M1729,1214.393c-7.348,2.553-11.427,10.025-9.112,16.688s10.149,10,17.5,7.442Z" transform="translate(-1719.235 -1214.028)" fill="#3063a4"/>
          <path id="Path_1162" data-name="Path 1162" d="M1853.608,1234.175h0l-8.385-24.13h0a6.559,6.559,0,0,1,8.348,4.042l4.079,11.74A6.558,6.558,0,0,1,1853.608,1234.175Z" transform="translate(-1835.462 -1209.68)" fill="#3063a4"/>
          <path id="Path_1163" data-name="Path 1163" d="M1881.173,1665.493c-7.348,2.553-11.427,10.025-9.112,16.688s10.149,10,17.5,7.442Z" transform="translate(-1859.623 -1630.18)" fill="#3063a4"/>
          <path id="Path_1164" data-name="Path 1164" d="M2005.786,1685.276h0l-8.385-24.13h0a6.558,6.558,0,0,1,8.348,4.042l4.079,11.74A6.558,6.558,0,0,1,2005.786,1685.276Z" transform="translate(-1975.851 -1625.833)" fill="#3063a4"/>
          <path id="Path_1165" data-name="Path 1165" d="M1742.654,1416.833l-7.642,2.655q-11.672-15.246-13.219-38.044l7.642-2.656Z" transform="translate(-1721.595 -1365.688)" fill="#3063a4"/>
        </g>
      </g>
      <g id="Group_2254" data-name="Group 2254" transform="translate(614.256 489.949)">
        <path id="Path_1166" data-name="Path 1166" d="M2356.509,1261.749c-.447-2.808-4.856.023-5.987.714-2.855,1.745-5.569,3.2-9.044,3.314a7.174,7.174,0,0,1-5.911-2.36c-5.024-6.366-1.417-11.478,1.165-15.393a3,3,0,0,0,.49-3.408,3.126,3.126,0,0,1-.31-2.234s-1.6.932-1.3,2.121a1.1,1.1,0,0,1-.195.984c-.079-.079-.161-.158-.248-.238-1.735-1.6-1.771,2.494-1.771,2.494s-8.975,8.664-3.361,18.665c2.779,4.951,6.318,6.776,9.192,7.362a8.729,8.729,0,0,0,4.259.089,7.28,7.28,0,0,0,.885-.194l.023-.031C2350.829,1271.755,2356.938,1264.442,2356.509,1261.749Z" transform="translate(-2319.752 -1232.744)" fill="url(#linear-gradient-2)"/>
        <g id="Group_2252" data-name="Group 2252" transform="translate(10.211 0)">
          <path id="Path_1167" data-name="Path 1167" d="M2372.008,1151.672a3.515,3.515,0,0,0,1.2-1.431c.66-1.17,1.443-2.247,2.2-3.352,1.972-2.864,4.024-5.68,5.8-8.676.383-.646.89-1.207,1.271-1.85.968-1.633.313-2.787-1.087-4.273a13.983,13.983,0,0,0-4.044-3.443,1.573,1.573,0,0,0-1.837.1c-1.839,1.976-11.967,16.3-9.393,18.733.869.821,1.714,1.66,2.559,2.5a6.636,6.636,0,0,0,2.179,1.766A1.4,1.4,0,0,0,2372.008,1151.672Z" transform="translate(-2364.568 -1127.594)" fill="#3063a4"/>
          <path id="Path_1168" data-name="Path 1168" d="M2357.4,1141.233a3.515,3.515,0,0,0,1.2-1.431c.66-1.17,1.443-2.247,2.2-3.352,1.971-2.864,4.024-5.68,5.8-8.675.383-.647.89-1.207,1.271-1.85.969-1.633.313-2.787-1.087-4.272a13.976,13.976,0,0,0-4.044-3.443,1.573,1.573,0,0,0-1.837.1c-1.839,1.976-11.967,16.3-9.393,18.733.869.821,1.714,1.66,2.559,2.5a6.633,6.633,0,0,0,2.179,1.766A1.4,1.4,0,0,0,2357.4,1141.233Z" transform="translate(-2351.088 -1117.964)" fill="#3063a4"/>
        </g>
        <path id="Path_1169" data-name="Path 1169" d="M2365.1,1195.6s-.267-.722.81-3.128,1.563-3.981,3.108-4.351,2.889.527,2.162,1.545a48.376,48.376,0,0,0-3.176,4.3C2367.118,1195.538,2364.293,1198.731,2365.1,1195.6Z" transform="translate(-2353.673 -1182.61)" fill="url(#linear-gradient-3)"/>
        <path id="Path_1170" data-name="Path 1170" d="M2497.96,1126.4s-3.561-8.724,9.869-6.965,10.166,6.829,11.227,10.791,6.7,8.452,22.373,14.565,11.03,22.778,3.988,28.309-10.883,1.855-12.52,11.4-8.172,17.3-16.324,9.207-17.418-17.663-14.826-30.212-.343-10.175-5.4-15.932S2502.008,1136.24,2497.96,1126.4Z" transform="translate(-2473.601 -1119.108)"/>
        <path id="Path_1171" data-name="Path 1171" d="M2472.8,1495.987a14.874,14.874,0,0,1,14.558,3.709,3.737,3.737,0,0,1,1.077,3.724c-1.621,5.967-5.394,23.35-1.645,30.978,0,0-7.111,7.532-14.32,1.661,0,0-3.234-14.1-7.471-20.286-2.925-4.273,4.664-16.044,6.584-18.888A2.247,2.247,0,0,1,2472.8,1495.987Z" transform="translate(-2445.351 -1466.164)" fill="url(#linear-gradient-4)"/>
        <path id="Path_1172" data-name="Path 1172" d="M2599.875,1349.891s3.223,9.115,3.465,13.136a6.893,6.893,0,0,1-6.917-1.114s-.352-9.1-.861-10.735Z" transform="translate(-2566.411 -1331.923)" fill="url(#linear-gradient-5)"/>
        <path id="Path_1173" data-name="Path 1173" d="M2439.024,2402.215c.025.64-1.1,5.716-1.71,8.424a4.459,4.459,0,0,0,.48,3.2l21.178,35.643a4.869,4.869,0,0,1,.556,1.386,30.584,30.584,0,0,1,.772,9.5l-1.1,2.275,4.738-1.076,1.031-12.724-1.341-.818a6.372,6.372,0,0,1-2.578-3.018c-1.915-4.652-6.67-16.492-7.9-22.263-1.393-6.558-8.676-11.885-8.676-11.885l1.279-3.025Z" transform="translate(-2420.321 -2302.721)" fill="#ff928e"/>
        <path id="Path_1174" data-name="Path 1174" d="M2714.227,3000.871s-2.559-4.056-2.86-5.635-1.139-4.368-2.716-3.528a92.708,92.708,0,0,0-.487,10.667c.256,3-3.388,2.9-3.388,2.9a3.4,3.4,0,0,0-1.74.876.853.853,0,0,0,.572,1.435,20.511,20.511,0,0,0,5.076-.287,1.553,1.553,0,0,0,1.252-1.433l.525-8.828,3.228,4.075Z" transform="translate(-2665.339 -2846.402)" fill="url(#linear-gradient-6)"/>
        <path id="Path_1175" data-name="Path 1175" d="M2571.529,2465.277s.747,31.883.848,36.411-.715,14.563-5.254,17.563l1.975,1.462a26.4,26.4,0,0,0,4.88-6.136,37.262,37.262,0,0,1,3.528-5.364l-.9-1.841a4.051,4.051,0,0,1-.328-2.6c.979-4.748,4.252-20.54,5.145-23.94,1.053-4.015,1.129-9.375-2.537-13.863S2571.529,2465.277,2571.529,2465.277Z" transform="translate(-2540.175 -2360.106)" fill="url(#linear-gradient-7)"/>
        <path id="Path_1176" data-name="Path 1176" d="M2549.219,3046.459a.278.278,0,0,0,.28-.239,41.251,41.251,0,0,1,1.294-6.428c.59-1.264,2.515-6.583,0-7.034,0,0-6.255,9.139-7.456,10.371a2.354,2.354,0,0,1-2.716.43,4.524,4.524,0,0,0-2.052,1.473.829.829,0,0,0,.653,1.331l4.213.04a2.965,2.965,0,0,0,2.779-1.868c.741-1.853,2.016-4.569,3.5-5.775l-.772,7.388a.281.281,0,0,0,.277.31Z" transform="translate(-2513.673 -2884.415)" fill="url(#linear-gradient-8)"/>
        <path id="Path_1177" data-name="Path 1177" d="M2442.195,1950.94s.949,3.026-.509,8.01l-9.048,31.6a.978.978,0,0,0,.612,1.19,60.356,60.356,0,0,0,23.749,2.88,1.379,1.379,0,0,0,1.257-1.073c.8-3.6,3.531-15.892,4.093-18.417,2.142-9.622,4.534-20-5.989-26.273C2451.51,1950.93,2446.988,1952.154,2442.195,1950.94Z" transform="translate(-2416.073 -1884.482)"/>
        <path id="Path_1178" data-name="Path 1178" d="M2712.268,1175.935a6.948,6.948,0,0,1,3.479,1.837,5.013,5.013,0,0,1,1.067,1.706l.158.484.091.5c.064.337.095.649.149.973a15.214,15.214,0,0,0,3.263,6.988,14.418,14.418,0,0,0,2.843,2.646,22.071,22.071,0,0,0,3.425,1.886q1.781.844,3.615,1.573a35.046,35.046,0,0,0,3.727,1.3,39.876,39.876,0,0,1-7.483-2.558,19.742,19.742,0,0,1-3.516-1.866,14.781,14.781,0,0,1-2.953-2.694,15.222,15.222,0,0,1-3.257-7.217c-.045-.327-.069-.673-.12-.985l-.07-.475-.135-.459a4.83,4.83,0,0,0-.962-1.65A7.089,7.089,0,0,0,2712.268,1175.935Z" transform="translate(-2674.075 -1171.444)" fill="#fff" opacity="0.8"/>
        <path id="Path_1179" data-name="Path 1179" d="M3113.594,1532.76a16.933,16.933,0,0,1,2.317,5.215,15.376,15.376,0,0,1,.388,5.728,13.518,13.518,0,0,1-2.01,5.378c-.278.392-.537.8-.85,1.162-.153.185-.3.376-.456.555l-.489.525c-.319.357-.7.655-1.04.984s-.741.6-1.114.895a19.354,19.354,0,0,0,3.659-4.3,15.393,15.393,0,0,0,1.2-2.535,13.937,13.937,0,0,0,.656-2.721,15.778,15.778,0,0,0-.279-5.589,19.131,19.131,0,0,0-.808-2.709A18.386,18.386,0,0,0,3113.594,1532.76Z" transform="translate(-3041.308 -1500.625)" fill="#fff" opacity="0.8"/>
        <path id="Path_1180" data-name="Path 1180" d="M2533.972,1188.67s-8.428,11.8-3.39,15.222,11.039-4.956,11.039-4.956,1.956-6.456-.089-8.646S2533.972,1188.67,2533.972,1188.67Z" transform="translate(-2504.984 -1183.13)" fill="url(#linear-gradient-9)"/>
        <path id="Path_1181" data-name="Path 1181" d="M2597.4,1153.914c-1.6-3.841-6.561-2.7-6.561-2.7s-3.872.917-4.415,2.669c-.244.788.843,1.551,2.267,2.158a10.407,10.407,0,0,1,6.127,7.589l.15.779S2599,1157.755,2597.4,1153.914Z" transform="translate(-2557.951 -1148.49)" fill="url(#linear-gradient-10)"/>
        <path id="Path_1182" data-name="Path 1182" d="M2671.095,1285.036s3.281-3.8,4.586-1.322-2.953,4.337-4.427,3.12Z" transform="translate(-2636.092 -1270.099)" fill="url(#linear-gradient-11)"/>
        <path id="Path_1183" data-name="Path 1183" d="M2609.747,1555.722s28.993,28.7-13.054,17.244c0,0-.479-3.628.146-3.566,13.635,1.36,19.338,4.482,8.254-6.266-.392-.38-.271-1.814-.019-2.3C2605.842,1559.362,2607.6,1556.434,2609.747,1555.722Z" transform="translate(-2567.292 -1521.808)" fill="url(#linear-gradient-12)"/>
        <g id="Group_2253" data-name="Group 2253" transform="translate(0 29.241)">
          <path id="Path_1184" data-name="Path 1184" d="M2251.4,1552.669l-7.017-24.5a.714.714,0,0,0-.6-.514c-1.271-.148-4.955-.565-9.208-.925a104.487,104.487,0,0,0-14.628-.486.717.717,0,0,0-.586,1.032c2.022,4.09,10.338,20.729,14.5,26.179a.72.72,0,0,0,.579.284l16.28-.151A.717.717,0,0,0,2251.4,1552.669Z" transform="translate(-2219.281 -1523.748)"/>
          <path id="Path_1185" data-name="Path 1185" d="M2341.591,1496.257l-5.087-.848a.365.365,0,0,0-.407.475l.5,1.526a.365.365,0,0,0,.3.247l4.9.654a.365.365,0,0,0,.4-.445l-.312-1.332A.365.365,0,0,0,2341.591,1496.257Z" transform="translate(-2327.03 -1495.404)" fill="#91b3fa"/>
          <path id="Path_1186" data-name="Path 1186" d="M2317.147,1518.717l-.419-2.183a.5.5,0,0,0-.445-.407l-10.275-1.043a.5.5,0,0,0-.542.62l.654,2.72a.5.5,0,0,0,.465.386l10.041.505A.5.5,0,0,0,2317.147,1518.717Z" transform="translate(-2298.777 -1513.557)" fill="#00a4fd"/>
          <path id="Path_1187" data-name="Path 1187" d="M2508.726,1692.8s.978-4.019.583-5.445-1.158-3.259-3.7-2.852a37.241,37.241,0,0,0-5.55,1.48,1.458,1.458,0,0,0,2.087,1.258l-1.2.928s.171,1.487,1.806.693l-1.116,1.231a1.3,1.3,0,0,0,1.9.438C2504.739,1689.749,2505.316,1693.285,2508.726,1692.8Z" transform="translate(-2478.303 -1669.8)" fill="url(#linear-gradient-13)"/>
        </g>
      </g>
      <g id="Group_2282" data-name="Group 2282" transform="translate(483.852 544.634)">
        <g id="Group_2271" data-name="Group 2271" transform="translate(0 16.482)">
          <g id="Group_2270" data-name="Group 2270">
            <rect id="Rectangle_431" data-name="Rectangle 431" width="39.348" height="84.391" transform="translate(0 39.098) rotate(-83.538)" fill="#3063a4"/>
            <path id="Path_1203" data-name="Path 1203" d="M688.408,2120.034l-2.534,22.371a3.542,3.542,0,0,0-3.726,3.265c-.007.063-.022.215-.019.215l-67.685-7.666s.023-.151.031-.214a3.488,3.488,0,0,0-2.88-4,.208.208,0,0,1-.059-.019l2.477-21.868c3.087.35,3.607-1.667,3.833-3.661.007-.063-.018-.078-.022-.079l67.685,7.666s-.007.012-.014.075A3.446,3.446,0,0,0,688.408,2120.034Z" transform="translate(-605.688 -2102.82)" fill="#fff" opacity="0.5"/>
            <g id="Group_2269" data-name="Group 2269" transform="translate(26.688 6.69)">
              <circle id="Ellipse_21" data-name="Ellipse 21" cx="12.379" cy="12.379" r="12.379" transform="translate(0 17.506) rotate(-45)" fill="url(#linear-gradient-14)"/>
              <g id="Group_2268" data-name="Group 2268" transform="translate(11.541 8.4)">
                <path id="Path_1204" data-name="Path 1204" d="M1033.287,2248.631l.147-1.3a10.676,10.676,0,0,1-3.56-1.2.758.758,0,0,1-.315-.936l.468-1.174a.763.763,0,0,1,1.086-.38,8.859,8.859,0,0,0,3.289,1.091c1.306.148,2.33-.185,2.433-1.092.093-.819-.6-1.391-2.365-2.083-2.51-1-4.241-2.341-3.983-4.621.233-2.059,1.916-3.459,4.576-3.584l.147-1.3a.762.762,0,0,1,.844-.672l.764.086a.762.762,0,0,1,.672.843l-.132,1.168a9.744,9.744,0,0,1,2.834.847.759.759,0,0,1,.368.964l-.431,1.086a.761.761,0,0,1-1.056.4,7.942,7.942,0,0,0-2.779-.836c-1.55-.176-2.065.416-2.13.992-.08.708.794,1.3,2.738,2.148,2.78,1.189,3.839,2.52,3.6,4.667-.223,1.97-1.884,3.576-4.768,3.7l-.165,1.456a.762.762,0,0,1-.844.671l-.764-.086A.763.763,0,0,1,1033.287,2248.631Z" transform="translate(-1029.505 -2231.369)" fill="#fff"/>
              </g>
            </g>
          </g>
          <path id="Path_1205" data-name="Path 1205" d="M604.976,2076.691a.167.167,0,0,1,0-.062l.83-7.331a.169.169,0,0,1,.063-.113.167.167,0,0,1,.124-.035l20.707,2.345a.168.168,0,1,1-.038.334l-20.54-2.326-.811,7.164a.168.168,0,0,1-.33.024Z" transform="translate(-599.631 -2066.626)" fill="#bdd0fb"/>
          <path id="Path_1206" data-name="Path 1206" d="M1323.971,2534.356a.178.178,0,0,1,0-.062.168.168,0,0,1,.186-.148l20.282,2.3.87-7.678a.168.168,0,0,1,.335.038l-.889,7.845a.169.169,0,0,1-.062.113.168.168,0,0,1-.124.036l-20.449-2.316A.168.168,0,0,1,1323.971,2534.356Z" transform="translate(-1262.924 -2490.497)" fill="#fff"/>
        </g>
        <g id="Group_2275" data-name="Group 2275" transform="translate(2.027 7.56)">
          <g id="Group_2274" data-name="Group 2274">
            <rect id="Rectangle_432" data-name="Rectangle 432" width="39.607" height="84.391" transform="translate(0 37.241) rotate(-70.095)" fill="#3063a4"/>
            <path id="Path_1207" data-name="Path 1207" d="M738.227,2042.286l-7.665,21.169a3.619,3.619,0,0,0-4.4,2.4c-.022.06,0,.05-.089.294l-64.048-23.192c.091-.242.089-.226.11-.286a3.539,3.539,0,0,0-1.867-4.6c-.025-.009-.047-.078-.047-.078l7.493-20.693c2.921,1.058,3.919-.815,4.6-2.7a.281.281,0,0,0,.021-.115l64.048,23.192a.313.313,0,0,0-.055.1A3.472,3.472,0,0,0,738.227,2042.286Z" transform="translate(-652.625 -2007.268)" fill="#bdd0fb"/>
            <g id="Group_2273" data-name="Group 2273" transform="translate(29.023 15.353)">
              <circle id="Ellipse_22" data-name="Ellipse 22" cx="12.379" cy="12.379" r="12.379" transform="translate(0 17.506) rotate(-45)" fill="url(#linear-gradient-15)"/>
              <g id="Group_2272" data-name="Group 2272" transform="translate(10.52 8.745)">
                <path id="Path_1208" data-name="Path 1208" d="M1075.606,2248.654l.446-1.231a10.669,10.669,0,0,1-3.182-2,.756.756,0,0,1-.089-.983l.728-1.034a.764.764,0,0,1,1.144-.117,8.861,8.861,0,0,0,2.945,1.826c1.236.447,2.309.362,2.62-.5.281-.775-.265-1.493-1.815-2.576-2.208-1.558-3.58-3.263-2.8-5.42.705-1.948,2.668-2.919,5.284-2.422l.446-1.231a.763.763,0,0,1,.977-.458l.723.262a.762.762,0,0,1,.458.977l-.4,1.1a9.738,9.738,0,0,1,2.559,1.483.758.758,0,0,1,.134,1.022l-.671.957a.761.761,0,0,1-1.119.141,7.938,7.938,0,0,0-2.508-1.46c-1.466-.531-2.1-.075-2.3.47-.243.67.47,1.449,2.164,2.726,2.427,1.8,3.149,3.343,2.413,5.375-.675,1.864-2.664,3.039-5.5,2.487l-.5,1.377a.763.763,0,0,1-.977.458l-.723-.262A.763.763,0,0,1,1075.606,2248.654Z" transform="translate(-1072.64 -2232.466)" fill="#fff"/>
              </g>
            </g>
          </g>
          <path id="Path_1209" data-name="Path 1209" d="M719.58,1967.255a.167.167,0,0,1,.01-.061l2.6-7.18a.168.168,0,0,1,.216-.1l19.35,7.007a.168.168,0,1,1-.115.316l-19.192-6.949-2.543,7.022a.168.168,0,0,1-.327-.054Z" transform="translate(-707.389 -1956.922)" fill="#bdd0fb"/>
          <path id="Path_1210" data-name="Path 1210" d="M1315.457,2637.823a.17.17,0,0,1,.01-.061.168.168,0,0,1,.216-.1l19.192,6.949,2.542-7.022a.169.169,0,0,1,.317.115l-2.6,7.18a.168.168,0,0,1-.216.1l-19.351-7.007A.168.168,0,0,1,1315.457,2637.823Z" transform="translate(-1257.101 -2582.003)" fill="#fff"/>
        </g>
        <g id="Group_2281" data-name="Group 2281" transform="translate(8.18 0)">
          <g id="Group_2279" data-name="Group 2279" transform="translate(0)">
            <g id="Group_2278" data-name="Group 2278">
              <rect id="Rectangle_433" data-name="Rectangle 433" width="39.607" height="84.391" transform="matrix(0.608, -0.794, 0.794, 0.608, 0, 31.441)" fill="#3063a4"/>
              <path id="Path_1211" data-name="Path 1211" d="M833.217,1982.92l-13.692,17.873a3.615,3.615,0,0,0-4.925.932c-.039.051-.022.019-.177.226l-54.074-41.424c.16-.2.141-.174.18-.224a3.515,3.515,0,0,0-.382-4.933c-.022-.016-.012-.07-.012-.07l13.384-17.471c2.466,1.889,3.979.377,5.2-1.216a.287.287,0,0,0,.051-.13l54.074,41.424s-.041.058-.079.108A3.5,3.5,0,0,0,833.217,1982.92Z" transform="translate(-750.952 -1927.756)" fill="#bdd0fb"/>
              <g id="Group_2277" data-name="Group 2277" transform="translate(32.194 27.864)">
                <circle id="Ellipse_23" data-name="Ellipse 23" cx="12.379" cy="12.379" r="12.379" transform="translate(0 2.216) rotate(-5.135)" fill="#00a4fd"/>
                <g id="Group_2276" data-name="Group 2276" transform="translate(5.639 5.78)">
                  <path id="Path_1212" data-name="Path 1212" d="M1131.708,2271.63l.8-1.039a10.68,10.68,0,0,1-2.432-2.865.758.758,0,0,1,.212-.965l1.005-.766a.763.763,0,0,1,1.126.233,8.856,8.856,0,0,0,2.258,2.629c1.043.8,2.092,1.042,2.648.317.5-.654.2-1.5-.954-3-1.635-2.151-2.43-4.191-1.035-6.012,1.26-1.645,3.424-1.979,5.768-.717l.8-1.039a.763.763,0,0,1,1.069-.142l.61.468a.763.763,0,0,1,.142,1.069l-.715.933a9.725,9.725,0,0,1,1.993,2.185.759.759,0,0,1-.181,1.016l-.929.709a.761.761,0,0,1-1.109-.2,7.931,7.931,0,0,0-1.951-2.147c-1.238-.948-1.984-.707-2.336-.247-.433.566.011,1.524,1.241,3.252,1.771,2.451,1.994,4.137.68,5.853-1.206,1.574-3.456,2.094-5.991.714l-.891,1.163a.763.763,0,0,1-1.069.142l-.611-.468A.763.763,0,0,1,1131.708,2271.63Z" transform="translate(-1129.981 -2258.104)" fill="#fff"/>
                </g>
              </g>
            </g>
            <path id="Path_1213" data-name="Path 1213" d="M893.663,1870.372a.168.168,0,0,1,.035-.106l4.644-6.062a.169.169,0,0,1,.236-.031l16.543,12.673a.168.168,0,0,1-.2.268l-16.409-12.571-4.542,5.928a.168.168,0,0,1-.3-.1Z" transform="translate(-874.138 -1861.016)" fill="#bdd0fb"/>
            <path id="Path_1214" data-name="Path 1214" d="M1287.426,2684.07a.172.172,0,0,1,.035-.106.169.169,0,0,1,.236-.031l16.2,12.414,4.542-5.929a.168.168,0,1,1,.267.2l-4.644,6.062a.167.167,0,0,1-.236.031l-16.337-12.515A.169.169,0,0,1,1287.426,2684.07Z" transform="translate(-1237.395 -2617.268)" fill="#bdd0fb"/>
          </g>
          <g id="Group_2280" data-name="Group 2280" transform="translate(21.357 23.328)">
            <path id="Path_1215" data-name="Path 1215" d="M923.6,2130.6a3.506,3.506,0,1,1-.651-4.916A3.507,3.507,0,0,1,923.6,2130.6Z" transform="translate(-917.313 -2124.959)" fill="#00a4fd"/>
            <circle id="Ellipse_24" data-name="Ellipse 24" cx="3.506" cy="3.506" r="3.506" transform="matrix(0.842, -0.54, 0.54, 0.842, 40.542, 34.531)" fill="#00a4fd"/>
          </g>
        </g>
      </g>
      <g id="Group_2295" data-name="Group 2295" transform="translate(534.777 617.119)">
        <g id="Group_2291" data-name="Group 2291" transform="translate(0 0)">
          <rect id="Rectangle_441" data-name="Rectangle 441" width="46.395" height="7.975" rx="3.988" fill="#3063a4"/>
        </g>
        <g id="Group_2292" data-name="Group 2292" transform="translate(0 8.599)">
          <path id="Rectangle_442" data-name="Rectangle 442" d="M3.988,0h38.42A3.988,3.988,0,0,1,46.4,3.988v0a3.988,3.988,0,0,1-3.988,3.988H3.988A3.988,3.988,0,0,1,0,3.988v0A3.988,3.988,0,0,1,3.988,0Z" fill="#3063a4"/>
        </g>
        <g id="Group_2293" data-name="Group 2293" transform="translate(0 16.939)">
          <path id="Rectangle_443" data-name="Rectangle 443" d="M3.988,0h38.42A3.988,3.988,0,0,1,46.4,3.988v0a3.988,3.988,0,0,1-3.988,3.988H3.988A3.988,3.988,0,0,1,0,3.988v0A3.988,3.988,0,0,1,3.988,0Z" fill="#3063a4"/>
        </g>
        <g id="Group_2294" data-name="Group 2294" transform="translate(0 25.279)">
          <rect id="Rectangle_444" data-name="Rectangle 444" width="46.395" height="7.975" rx="3.988" fill="#3063a4"/>
        </g>
      </g>
      <g id="Group_2290" data-name="Group 2290" transform="translate(486.475 592.6)">
        <g id="Group_2283" data-name="Group 2283" transform="translate(0 8.457)">
          <rect id="Rectangle_434" data-name="Rectangle 434" width="46.395" height="7.975" rx="3.988" fill="#3063a4"/>
        </g>
        <g id="Group_2284" data-name="Group 2284" transform="translate(0)">
          <rect id="Rectangle_435" data-name="Rectangle 435" width="46.395" height="7.975" rx="3.988" fill="#3063a4"/>
        </g>
        <g id="Group_2285" data-name="Group 2285" transform="translate(0 17.056)">
          <path id="Rectangle_436" data-name="Rectangle 436" d="M3.988,0h38.42A3.988,3.988,0,0,1,46.4,3.988v0a3.988,3.988,0,0,1-3.988,3.988H3.988A3.988,3.988,0,0,1,0,3.988v0A3.988,3.988,0,0,1,3.988,0Z" fill="#3063a4"/>
        </g>
        <g id="Group_2286" data-name="Group 2286" transform="translate(0 25.654)">
          <rect id="Rectangle_437" data-name="Rectangle 437" width="46.395" height="7.975" rx="3.988" fill="#3063a4"/>
        </g>
        <g id="Group_2287" data-name="Group 2287" transform="translate(0 34.253)">
          <path id="Rectangle_438" data-name="Rectangle 438" d="M3.988,0h38.42A3.988,3.988,0,0,1,46.4,3.988v0a3.988,3.988,0,0,1-3.988,3.988H3.988A3.988,3.988,0,0,1,0,3.988v0A3.988,3.988,0,0,1,3.988,0Z" fill="#3063a4"/>
        </g>
        <g id="Group_2288" data-name="Group 2288" transform="translate(0 42.593)">
          <rect id="Rectangle_439" data-name="Rectangle 439" width="46.395" height="7.975" rx="3.988" fill="#3063a4"/>
        </g>
        <g id="Group_2289" data-name="Group 2289" transform="translate(0 50.934)">
          <path id="Rectangle_440" data-name="Rectangle 440" d="M3.988,0h38.42A3.988,3.988,0,0,1,46.4,3.988v0a3.988,3.988,0,0,1-3.988,3.988H3.988A3.988,3.988,0,0,1,0,3.988v0A3.988,3.988,0,0,1,3.988,0Z" fill="#3063a4"/>
        </g>
      </g>
    </g>
  </g>
</svg>
