<?xml version="1.0" encoding="iso-8859-1"?>
<!-- Generator: Adobe Illustrator 19.0.0, SVG Export Plug-In . SVG Version: 6.00 Build 0)  -->
<svg version="1.1" id="Layer_1" xmlns="http://www.w3.org/2000/svg" xmlns:xlink="http://www.w3.org/1999/xlink" x="0px" y="0px"
	 viewBox="0 0 512 512" style="enable-background:new 0 0 512 512;" xml:space="preserve">
<path style="fill:#00D9DF;" d="M512,250.643c0,66.948-26.072,129.899-73.413,177.24c-40.478,40.468-94.055,66.048-150.876,72.022
	c-8.621,0.9-17.242,1.36-25.863,1.371c-44.862,0.042-89.264-11.937-127.838-34.693L0,512l45.406-134.011
	C18.288,332.008,6.466,277.73,12.084,224.279c5.974-56.82,31.554-110.397,72.032-150.865C131.458,26.072,194.398,0,261.346,0h0.502
	c66.77,0.126,129.512,26.187,176.738,73.413C485.928,120.755,512,183.696,512,250.643z"/>
<path style="fill:#00B7BF;" d="M512,250.643c0,66.948-26.072,129.899-73.413,177.24c-40.478,40.468-94.055,66.048-150.876,72.022
	c-8.621,0.9-17.242,1.36-25.863,1.371V0c66.77,0.126,129.512,26.187,176.738,73.413C485.928,120.755,512,183.696,512,250.643z"/>
<path style="fill:#FFFFFF;" d="M261.848,74.543c-96.514,0-175.033,78.519-175.033,175.033s78.519,175.033,175.033,175.033
	s175.033-78.519,175.033-175.033S358.362,74.543,261.848,74.543z M404.637,233.883h-64.939
	c-4.436-48.723-28.206-95.531-45.856-124.364C352.734,122.962,397.962,172.71,404.637,233.883z M261.848,117.71
	c15.683,24.251,41.263,69.888,46.306,116.172h-92.925c5.085-46.212,30.843-91.942,46.599-116.204
	C261.838,117.689,261.838,117.7,261.848,117.71z M229.75,109.55c-17.744,28.834-41.619,75.631-46.076,124.333H119.06
	C125.735,172.752,170.911,123.025,229.75,109.55z M119.06,265.27h64.615c4.457,48.702,28.332,95.499,46.076,124.333
	C170.911,376.117,125.735,326.39,119.06,265.27z M261.796,381.463c-15.756-24.22-41.504-69.898-46.567-116.193h92.915
	c-5.043,46.149-30.612,91.827-46.295,116.11C261.827,381.411,261.817,381.432,261.796,381.463z M293.842,389.623
	c17.65-28.823,41.42-75.642,45.856-124.354h64.939C397.962,326.432,352.734,376.179,293.842,389.623z"/>
<path style="fill:#E1E1E4;" d="M261.848,74.543v43.167c15.683,24.251,41.263,69.888,46.306,116.172h-46.306v31.387h46.295
	c-5.043,46.149-30.612,91.827-46.295,116.11v43.23c96.514,0,175.033-78.519,175.033-175.033S358.362,74.543,261.848,74.543z
	 M293.842,109.518c58.892,13.444,104.12,63.192,110.795,124.364h-64.939C335.262,185.16,311.492,138.352,293.842,109.518z
	 M293.842,389.623c17.65-28.823,41.42-75.642,45.856-124.354h64.939C397.962,326.432,352.734,376.179,293.842,389.623z"/>
<g>
</g>
<g>
</g>
<g>
</g>
<g>
</g>
<g>
</g>
<g>
</g>
<g>
</g>
<g>
</g>
<g>
</g>
<g>
</g>
<g>
</g>
<g>
</g>
<g>
</g>
<g>
</g>
<g>
</g>
</svg>
