<svg xmlns="http://www.w3.org/2000/svg" xmlns:xlink="http://www.w3.org/1999/xlink" width="19" height="19.494" viewBox="0 0 19 19.494">
  <defs>
    <linearGradient id="linear-gradient" x1="0.232" y1="0.749" x2="0.234" y2="0.5" gradientUnits="objectBoundingBox">
      <stop offset="0"/>
      <stop offset="1" stop-opacity="0.188"/>
    </linearGradient>
    <clipPath id="clip-path">
      <path id="c-d-x-PDX_a_82obo-unsplash" d="M1.551,0h15.9C18.306,0,19,1.027,19,2.293V17.2c0,1.267-.694,2.293-1.551,2.293H1.551C.694,19.494,0,18.467,0,17.2V2.293C0,1.027.694,0,1.551,0Z" transform="translate(192 509)" opacity="0.52" fill="url(#linear-gradient)"/>
    </clipPath>
  </defs>
  <g id="Mask_Group_1" data-name="Mask Group 1" transform="translate(-192 -509)" clip-path="url(#clip-path)">
    <g id="live-chat" transform="translate(192 509.898)">
      <g id="Group_2319" data-name="Group 2319" transform="translate(0 2.981)">
        <g id="Group_2318" data-name="Group 2318">
          <g id="Group_2317" data-name="Group 2317">
            <path id="Path_1232" data-name="Path 1232" d="M13.851,29.441H1.575A1.575,1.575,0,0,0,0,31.017v8.594a1.575,1.575,0,0,0,1.342,1.558.25.25,0,0,1,.213.248V42.2a.465.465,0,0,0,.559-.069l.269-.264a1.774,1.774,0,0,1,1.241-.506h.867a.575.575,0,0,1,.416-.178H13.85a1.026,1.026,0,0,0,1.026-1.026V30.467a1.026,1.026,0,0,0-1.025-1.026Z" transform="translate(0 -29.441)" fill="#fff"/>
            <g id="Group_2316" data-name="Group 2316" transform="translate(1.555)">
              <path id="Path_1233" data-name="Path 1233" d="M13.127,125.145l-.523.511v1.651a.3.3,0,0,0,.514.216l2.831-2.769a.4.4,0,0,1,.283-.115H14.367A1.774,1.774,0,0,0,13.127,125.145Z" transform="translate(-12.604 -112.894)" fill="#fff"/>
              <path id="Path_1234" data-name="Path 1234" d="M110.882,29.441h-1.873a1.026,1.026,0,0,1,1.026,1.026v9.694a1.026,1.026,0,0,1-1.026,1.026h1.873a1.575,1.575,0,0,0,1.575-1.575V31.017A1.576,1.576,0,0,0,110.882,29.441Z" transform="translate(-97.115 -29.441)" fill="#fff"/>
            </g>
          </g>
        </g>
      </g>
      <g id="Group_2320" data-name="Group 2320" transform="translate(2.819 6.868)">
        <path id="Path_1235" data-name="Path 1235" d="M24.545,64.965h0c-.336,0-.821,0-1.12,0V61.233a.287.287,0,0,0-.573,0v4.019a.287.287,0,0,0,.238.283,4.349,4.349,0,0,0,.477.008l.982,0a.287.287,0,0,0,0-.573Z" transform="translate(-22.85 -60.946)" fill="#3063a4"/>
        <path id="Path_1236" data-name="Path 1236" d="M47.946,60.946a.287.287,0,0,0-.287.287v4.022a.287.287,0,1,0,.573,0V61.233A.287.287,0,0,0,47.946,60.946Z" transform="translate(-44.598 -60.946)" fill="#3063a4"/>
        <path id="Path_1237" data-name="Path 1237" d="M97.816,65.081H96.423V63.662h1.269a.287.287,0,1,0,0-.573H96.423V61.669h1.393a.287.287,0,1,0,0-.573H96.136a.287.287,0,0,0-.287.287v3.985a.287.287,0,0,0,.287.287h1.679a.287.287,0,0,0,0-.573Z" transform="translate(-86.843 -61.077)" fill="#3063a4"/>
        <path id="Path_1238" data-name="Path 1238" d="M64.033,60.967a.287.287,0,0,0-.362.182l-1.131,3.405-1.186-3.416a.287.287,0,0,0-.542.188l1.376,3.964a.378.378,0,0,0,.356.251h0a.378.378,0,0,0,.355-.258l1.313-3.953A.287.287,0,0,0,64.033,60.967Z" transform="translate(-56.114 -60.945)" fill="#3063a4"/>
      </g>
      <g id="Group_2328" data-name="Group 2328" transform="translate(12.396 0)">
        <path id="Path_1239" data-name="Path 1239" d="M104.811,9.984a3.487,3.487,0,0,0-1.752-3.026.607.607,0,0,0-.531-.032,3.3,3.3,0,0,0,.279,6.216A3.489,3.489,0,0,0,104.811,9.984Z" transform="translate(-100.473 -6.682)" fill="#fff"/>
        <path id="Path_1240" data-name="Path 1240" d="M118.415,5.28a3.293,3.293,0,0,0-1.242.241,3.3,3.3,0,0,1,0,6.121,3.3,3.3,0,1,0,1.242-6.363Z" transform="translate(-115.113 -5.28)" fill="#fff"/>
        <g id="Group_2324" data-name="Group 2324" transform="translate(0.915 1.769)">
          <g id="Group_2321" data-name="Group 2321">
            <path id="Path_1241" data-name="Path 1241" d="M108.176,21.061a.287.287,0,0,1-.2-.489,3.257,3.257,0,0,1,4.606,0,.287.287,0,0,1-.406.406,2.684,2.684,0,0,0-3.8,0A.286.286,0,0,1,108.176,21.061Z" transform="translate(-107.889 -19.617)" fill="#3063a4"/>
          </g>
          <g id="Group_2322" data-name="Group 2322" transform="translate(1.589 2.424)">
            <path id="Path_1242" data-name="Path 1242" d="M122.075,40.05a.286.286,0,0,1-.2-.084.437.437,0,0,0-.618,0,.287.287,0,0,1-.406-.406,1.012,1.012,0,0,1,1.429,0,.287.287,0,0,1-.2.49Z" transform="translate(-120.764 -39.265)" fill="#92d6e2"/>
          </g>
          <g id="Group_2323" data-name="Group 2323" transform="translate(0.787 1.209)">
            <path id="Path_1243" data-name="Path 1243" d="M117.179,30.534a.286.286,0,0,1-.2-.084,1.573,1.573,0,0,0-2.222,0,.287.287,0,0,1-.406-.406,2.147,2.147,0,0,1,3.033,0,.287.287,0,0,1-.2.49Z" transform="translate(-114.265 -29.417)" fill="#92d6e2"/>
          </g>
        </g>
        <g id="Group_2327" data-name="Group 2327" transform="translate(1.702 1.801)">
          <path id="Path_1244" data-name="Path 1244" d="M132.8,20.8a3.233,3.233,0,0,0-1.845-.922,3.28,3.28,0,0,1,.245.634,2.668,2.668,0,0,1,1.194.693.287.287,0,1,0,.405-.406Z" transform="translate(-128.894 -19.876)" fill="#3063a4"/>
          <g id="Group_2325" data-name="Group 2325" transform="translate(0.802 2.392)">
            <path id="Path_1245" data-name="Path 1245" d="M122.075,40.05a.286.286,0,0,1-.2-.084.437.437,0,0,0-.618,0,.287.287,0,0,1-.406-.406,1.012,1.012,0,0,1,1.429,0,.287.287,0,0,1-.2.49Z" transform="translate(-120.764 -39.265)" fill="#3063a4"/>
          </g>
          <path id="Path_1246" data-name="Path 1246" d="M130.657,41.516a.287.287,0,0,0,0-.406,1.019,1.019,0,0,0-.087-.077,3.289,3.289,0,0,1-.247.535.287.287,0,0,0,.334-.052Z" transform="translate(-128.342 -38.423)" fill="#3063a4"/>
          <g id="Group_2326" data-name="Group 2326" transform="translate(0 1.177)">
            <path id="Path_1247" data-name="Path 1247" d="M117.179,30.534a.286.286,0,0,1-.2-.084,1.573,1.573,0,0,0-2.222,0,.287.287,0,0,1-.406-.406,2.147,2.147,0,0,1,3.033,0,.287.287,0,0,1-.2.49Z" transform="translate(-114.265 -29.417)" fill="#3063a4"/>
          </g>
          <path id="Path_1248" data-name="Path 1248" d="M133.643,30.713q0,.082,0,.164a3.337,3.337,0,0,1-.032.46,1.568,1.568,0,0,1,.324.249.287.287,0,0,0,.406-.406A2.134,2.134,0,0,0,133.643,30.713Z" transform="translate(-131.228 -29.376)" fill="#3063a4"/>
        </g>
      </g>
    </g>
  </g>
</svg>
