<svg xmlns="http://www.w3.org/2000/svg" width="172.534" height="151.333" viewBox="0 0 172.534 151.333">
  <g id="Group_2195" data-name="Group 2195" transform="translate(-39.605 -58.73)">
    <g id="Background_Complete" data-name="Background Complete" transform="translate(39.605 58.73)">
      <g id="Group_2160" data-name="Group 2160">
        <path id="Path_917" data-name="Path 917" d="M120.358,173.61H41.92a2.319,2.319,0,0,1-2.315-2.32V61.029a2.32,2.32,0,0,1,2.315-2.3h78.438a2.32,2.32,0,0,1,2.32,2.32h0V171.291A2.32,2.32,0,0,1,120.358,173.61ZM41.92,58.811a2.218,2.218,0,0,0-2.214,2.218V171.291a2.218,2.218,0,0,0,2.214,2.218h78.438a2.222,2.222,0,0,0,2.218-2.218V61.029a2.222,2.222,0,0,0-2.218-2.218Z" transform="translate(-39.605 -58.73)" fill="#e6e6e6"/>
        <path id="Path_918" data-name="Path 918" d="M336.656,173.61H258.215a2.323,2.323,0,0,1-2.32-2.32V61.029a2.324,2.324,0,0,1,2.32-2.3h78.442a2.32,2.32,0,0,1,2.311,2.3V171.291A2.319,2.319,0,0,1,336.656,173.61Zm-78.442-114.8A2.222,2.222,0,0,0,256,61.029V171.291a2.222,2.222,0,0,0,2.218,2.218h78.442a2.222,2.222,0,0,0,2.218-2.218V61.029a2.222,2.222,0,0,0-2.218-2.218Z" transform="translate(-168.033 -58.73)" fill="#e6e6e6"/>
      </g>
      <g id="Group_2170" data-name="Group 2170" transform="translate(108.599 40.24)">
        <g id="Group_2161" data-name="Group 2161">
          <rect id="Rectangle_398" data-name="Rectangle 398" width="54.184" height="95.073" fill="#f5f5f5"/>
          <rect id="Rectangle_399" data-name="Rectangle 399" width="46.247" height="91.336" transform="translate(4.003 3.737)" fill="#e0e0e0"/>
        </g>
        <g id="Group_2169" data-name="Group 2169" transform="translate(4.686 4.477)">
          <g id="Group_2162" data-name="Group 2162" transform="translate(0 89.785)">
            <path id="Path_919" data-name="Path 919" d="M319.088,391.051a.586.586,0,0,1-.236-.049.569.569,0,0,1-.195-.13.533.533,0,0,1-.134-.2.61.61,0,0,1,.682-.829c.037.009.078.021.114.033a.614.614,0,0,1,.2.134.427.427,0,0,1,.073.093.437.437,0,0,1,.056.106.535.535,0,0,1,.037.114.552.552,0,0,1,.012.118.56.56,0,0,1-.049.231.574.574,0,0,1-.13.2A.616.616,0,0,1,319.088,391.051Z" transform="translate(-318.479 -389.834)" fill="#fff"/>
          </g>
          <g id="Group_2163" data-name="Group 2163" transform="translate(0 14.965)">
            <path id="Path_920" data-name="Path 920" d="M318.479,266.112a.609.609,0,0,1,.609-.609h0a.608.608,0,0,1,.609.609h0a.608.608,0,0,1-.609.609h0A.609.609,0,0,1,318.479,266.112Zm0-14.961a.609.609,0,0,1,.609-.609h0a.608.608,0,0,1,.609.609h0a.611.611,0,0,1-.609.609h0A.611.611,0,0,1,318.479,251.151Zm0-14.966a.609.609,0,0,1,.609-.609h0a.608.608,0,0,1,.609.609h0a.608.608,0,0,1-.609.609h0A.609.609,0,0,1,318.479,236.185Zm0-14.965a.611.611,0,0,1,.609-.609h0a.611.611,0,0,1,.609.609h0a.608.608,0,0,1-.609.609h0A.609.609,0,0,1,318.479,221.221Zm0-14.961a.609.609,0,0,1,.609-.609h0a.608.608,0,0,1,.609.609h0a.608.608,0,0,1-.609.609h0A.609.609,0,0,1,318.479,206.259Z" transform="translate(-318.479 -205.65)" fill="#fff"/>
          </g>
          <g id="Group_2164" data-name="Group 2164">
            <path id="Path_921" data-name="Path 921" d="M319.088,170.029a.6.6,0,0,1-.43-.179.445.445,0,0,1-.078-.093.87.87,0,0,1-.056-.1.411.411,0,0,1-.032-.118.55.55,0,0,1-.013-.118.616.616,0,0,1,.179-.431.539.539,0,0,1,.089-.077.523.523,0,0,1,.105-.053.633.633,0,0,1,.114-.037.593.593,0,0,1,.239,0,.622.622,0,0,1,.114.037.526.526,0,0,1,.106.053.858.858,0,0,1,.093.077.617.617,0,0,1,.178.431.554.554,0,0,1-.012.118.66.66,0,0,1-.037.118.5.5,0,0,1-.056.1.427.427,0,0,1-.073.093A.616.616,0,0,1,319.088,170.029Z" transform="translate(-318.479 -168.81)" fill="#fff"/>
          </g>
          <g id="Group_2165" data-name="Group 2165" transform="translate(14.503)">
            <path id="Path_922" data-name="Path 922" d="M368.682,169.419a.609.609,0,0,1,.609-.609h0a.609.609,0,0,1,.609.609h0a.609.609,0,0,1-.609.609h0A.608.608,0,0,1,368.682,169.419Zm-14.5,0a.609.609,0,0,1,.609-.609h0a.609.609,0,0,1,.609.609h0a.608.608,0,0,1-.609.609h0A.609.609,0,0,1,354.18,169.419Z" transform="translate(-354.18 -168.81)" fill="#fff"/>
          </g>
          <g id="Group_2166" data-name="Group 2166" transform="translate(43.507)">
            <path id="Path_923" data-name="Path 923" d="M426.189,170.029a.575.575,0,0,1-.118-.012.932.932,0,0,1-.114-.032.878.878,0,0,1-.106-.057.861.861,0,0,1-.093-.077.609.609,0,0,1-.179-.431.616.616,0,0,1,.179-.431.53.53,0,0,1,.093-.073.383.383,0,0,1,.106-.057.533.533,0,0,1,.114-.037.6.6,0,0,1,.24,0,.738.738,0,0,1,.114.037.361.361,0,0,1,.1.057.425.425,0,0,1,.093.073.616.616,0,0,1,.179.431.615.615,0,0,1-.272.508.823.823,0,0,1-.1.057c-.041.012-.077.024-.114.032A.619.619,0,0,1,426.189,170.029Z" transform="translate(-425.58 -168.81)" fill="#fff"/>
          </g>
          <g id="Group_2167" data-name="Group 2167" transform="translate(43.507 14.965)">
            <path id="Path_924" data-name="Path 924" d="M425.58,266.112a.608.608,0,0,1,.609-.609h0a.609.609,0,0,1,.609.609h0a.609.609,0,0,1-.609.609h0A.609.609,0,0,1,425.58,266.112Zm0-14.961a.608.608,0,0,1,.609-.609h0a.609.609,0,0,1,.609.609h0a.611.611,0,0,1-.609.609h0A.611.611,0,0,1,425.58,251.151Zm0-14.966a.609.609,0,0,1,.609-.609h0a.609.609,0,0,1,.609.609h0a.609.609,0,0,1-.609.609h0A.608.608,0,0,1,425.58,236.185Zm0-14.965a.608.608,0,0,1,.609-.609h0a.609.609,0,0,1,.609.609h0a.609.609,0,0,1-.609.609h0A.608.608,0,0,1,425.58,221.221Zm0-14.961a.608.608,0,0,1,.609-.609h0a.609.609,0,0,1,.609.609h0a.608.608,0,0,1-.609.609h0A.608.608,0,0,1,425.58,206.259Z" transform="translate(-425.58 -205.65)" fill="#fff"/>
          </g>
          <g id="Group_2168" data-name="Group 2168" transform="translate(43.507 89.783)">
            <path id="Path_925" data-name="Path 925" d="M426.189,391.048a.609.609,0,0,1-.431-1.04.868.868,0,0,1,.093-.077.828.828,0,0,1,.106-.057,1.018,1.018,0,0,1,.114-.033.6.6,0,0,1,.24,0c.036.009.077.021.114.033a.776.776,0,0,1,.1.057.618.618,0,0,1,.093.077.609.609,0,0,1,.179.431.593.593,0,0,1-.179.431A.61.61,0,0,1,426.189,391.048Z" transform="translate(-425.58 -389.829)" fill="#fff"/>
          </g>
        </g>
      </g>
      <g id="Group_2171" data-name="Group 2171" transform="translate(5.762 134.655)">
        <rect id="Rectangle_400" data-name="Rectangle 400" width="16.741" height="0.102" transform="translate(0 0.812)" fill="#e0e0e0"/>
        <rect id="Rectangle_401" data-name="Rectangle 401" width="16.789" height="0.102" transform="translate(34.074)" fill="#e0e0e0"/>
        <rect id="Rectangle_402" data-name="Rectangle 402" width="4.062" height="0.102" transform="translate(68.648)" fill="#e0e0e0"/>
        <rect id="Rectangle_403" data-name="Rectangle 403" width="18.788" height="0.102" transform="translate(13.32 3.469)" fill="#e0e0e0"/>
        <rect id="Rectangle_404" data-name="Rectangle 404" width="8.774" height="0.102" transform="translate(88.317 0.76)" fill="#e0e0e0"/>
        <rect id="Rectangle_405" data-name="Rectangle 405" width="11.346" height="0.102" transform="translate(100.707 0.76)" fill="#e0e0e0"/>
        <rect id="Rectangle_406" data-name="Rectangle 406" width="25.365" height="0.102" transform="translate(141.407 2.478)" fill="#e0e0e0"/>
      </g>
    </g>
    <g id="Verified" transform="translate(159.142 116.521)">
      <g id="Group_2181" data-name="Group 2181">
        <g id="Group_2180" data-name="Group 2180">
          <g id="Group_2174" data-name="Group 2174" transform="translate(11.404 17.498)">
            <g id="Group_2172" data-name="Group 2172">
              <rect id="Rectangle_407" data-name="Rectangle 407" width="1.6" height="0.406" fill="#407bff"/>
            </g>
            <g id="Group_2173" data-name="Group 2173" transform="translate(3.259)">
              <rect id="Rectangle_408" data-name="Rectangle 408" width="5.222" height="0.406" fill="#407bff"/>
            </g>
          </g>
          <g id="Group_2179" data-name="Group 2179">
            <g id="Group_2175" data-name="Group 2175" transform="translate(3.758)">
              <path id="Path_926" data-name="Path 926" d="M368.8,211.557l-1.013,11.579a2.1,2.1,0,0,1-2.055,1.89,1.7,1.7,0,0,1-1.724-1.89l1.013-11.579a6.124,6.124,0,0,0-6.188-6.784h-4.143a7.561,7.561,0,0,0-7.375,6.784l-.414,4.728h-3.779l.414-4.728a11.774,11.774,0,0,1,11.485-10.563h4.143A9.534,9.534,0,0,1,368.8,211.557Z" transform="translate(-343.119 -200.994)" fill="#407bff"/>
            </g>
            <g id="Group_2176" data-name="Group 2176" transform="translate(3.758)" opacity="0.5" style="isolation: isolate">
              <path id="Path_927" data-name="Path 927" d="M368.8,211.557l-1.013,11.579a2.1,2.1,0,0,1-2.055,1.89,1.7,1.7,0,0,1-1.724-1.89l1.013-11.579a6.124,6.124,0,0,0-6.188-6.784h-4.143a7.561,7.561,0,0,0-7.375,6.784l-.414,4.728h-3.779l.414-4.728a11.774,11.774,0,0,1,11.485-10.563h4.143A9.534,9.534,0,0,1,368.8,211.557Z" transform="translate(-343.119 -200.994)" fill="#fff"/>
            </g>
            <g id="Group_2178" data-name="Group 2178" transform="translate(0 19.136)">
              <g id="Group_2177" data-name="Group 2177">
                <path id="Path_928" data-name="Path 928" d="M363.578,250.683,361.6,273.244a2.873,2.873,0,0,1-2.808,2.583H336.235a2.329,2.329,0,0,1-2.357-2.583l1.974-22.561a2.871,2.871,0,0,1,1.4-2.187,2.74,2.74,0,0,1,1.406-.395h22.56a2.414,2.414,0,0,1,1.3.37A2.34,2.34,0,0,1,363.578,250.683Z" transform="translate(-333.868 -248.101)" fill="#3063a4"/>
              </g>
            </g>
          </g>
        </g>
        <path id="Path_929" data-name="Path 929" d="M349.248,263.166l5.861,9.023,19.333-19.333a.191.191,0,0,0-.254-.286l-18.424,14.441-3.479-5.61Z" transform="translate(-343 -231.593)" fill="#fff"/>
      </g>
    </g>
    <g id="Character" transform="translate(81.961 87.381)">
      <path id="Path_930" data-name="Path 930" d="M271.548,190.273l.141.167.186.214c.134.142.264.292.41.431.28.293.585.576.893.867a23.776,23.776,0,0,0,1.94,1.6c.686.509,1.407.979,2.132,1.441.394.219.739.451,1.121.661l.883.487a.577.577,0,0,0,.405.024,17.5,17.5,0,0,0,2.437-2.3,44.689,44.689,0,0,0,3.841-4.538l1.073,1.451a23.8,23.8,0,0,1-2.628,5.135,11.536,11.536,0,0,1-2.07,2.319,5.818,5.818,0,0,1-1.595.955,3.834,3.834,0,0,1-2.305.173,3.626,3.626,0,0,1-.583-.193l-.365-.16-.658-.3c-.444-.2-.87-.43-1.3-.647a26.731,26.731,0,0,1-2.5-1.515,25.517,25.517,0,0,1-2.334-1.811c-.387-.336-.733-.678-1.085-1.049-.177-.181-.352-.375-.524-.572l-.254-.308c-.091-.115-.159-.2-.287-.375Z" transform="translate(-217.884 -164.929)" fill="#ffb573"/>
      <path id="Path_931" data-name="Path 931" d="M311.037,183.992l1.886-4.03,1.8,3.224s-1.181,2.036-2.465,2.033Z" transform="translate(-243.13 -159.365)" fill="#ffb573"/>
      <path id="Path_932" data-name="Path 932" d="M317.8,175.844l1.9,2.444-2.224,2.448-1.8-3.22Z" transform="translate(-245.887 -156.92)" fill="#ffb573"/>
      <g id="Group_2182" data-name="Group 2182" transform="translate(70.914 17.076)">
        <path id="Path_933" data-name="Path 933" d="M318.778,179.149h2.992a.339.339,0,0,0,.337-.309l.628-7.178a.339.339,0,0,0-.337-.368h-2.992a.338.338,0,0,0-.337.309l-.628,7.178A.339.339,0,0,0,318.778,179.149Z" transform="translate(-318.44 -171.295)" fill="#407bff"/>
        <path id="Path_934" data-name="Path 934" d="M319.347,179.481h3l.561-6.415h-3Z" transform="translate(-318.979 -172.347)" fill="#fff" opacity="0.3"/>
      </g>
      <path id="Path_935" data-name="Path 935" d="M316.114,184.585h0l.533-.274a3.319,3.319,0,0,0,.741-.52l.1-.355a.506.506,0,0,0-.567-.228l-.442.12-2.2.167-.055.925.641.994.223.009A1,1,0,0,0,316.114,184.585Z" transform="translate(-245.025 -161.282)" fill="#ffb573"/>
      <path id="Path_936" data-name="Path 936" d="M263.181,181.946c1.522-.276,12.267,9.041,12.267,9.041l-3.185,4.671s-11.75-8.181-11.388-10.157C261.248,183.444,260.959,182.352,263.181,181.946Z" transform="translate(-213.34 -160.54)" fill="#263238"/>
      <path id="Path_937" data-name="Path 937" d="M269.728,189.331l-.117,4.891c1.221.947,5.624,4.323,5.624,4.323Z" transform="translate(-218.533 -164.929)" opacity="0.2" style="isolation: isolate"/>
      <path id="Path_938" data-name="Path 938" d="M248.93,408.093l3.6.356,1.142-8.356-3.6-.356Z" transform="translate(-206.253 -289.862)" fill="#ffb573"/>
      <path id="Path_939" data-name="Path 939" d="M160.251,299.606l-.924,3.51,7.8,3.36,1.615-3.561Z" transform="translate(-153.049 -230.407)" fill="#ffb573"/>
      <g id="Group_2183" data-name="Group 2183" transform="translate(47.647 117.527)">
        <path id="Path_940" data-name="Path 940" d="M262.385,421.647a1.378,1.378,0,0,0,.889-.2.479.479,0,0,0,.165-.414.276.276,0,0,0-.138-.234c-.437-.26-1.909.438-2.073.517a.093.093,0,0,0-.05.087.086.086,0,0,0,.068.071A6.27,6.27,0,0,0,262.385,421.647Zm.656-.729a.31.31,0,0,1,.16.036.11.11,0,0,1,.057.095.325.325,0,0,1-.108.274,2.338,2.338,0,0,1-1.625.049,4.7,4.7,0,0,1,1.527-.456Z" transform="translate(-261.172 -419.863)" fill="#407bff"/>
        <path id="Path_941" data-name="Path 941" d="M261.256,420.2l.031-.008c.441-.181,1.319-.94,1.262-1.353-.024-.095-.076-.22-.314-.252a.612.612,0,0,0-.485.121,2.446,2.446,0,0,0-.585,1.381.093.093,0,0,0,.021.083A.086.086,0,0,0,261.256,420.2Zm.9-1.446.051-.013c.157.024.163.085.165.106.037.25-.563.848-1.014,1.09a1.952,1.952,0,0,1,.495-1.107.444.444,0,0,1,.311-.078Z" transform="translate(-261.163 -418.575)" fill="#407bff"/>
      </g>
      <path id="Path_942" data-name="Path 942" d="M251.042,417.6l-3.265.135a.284.284,0,0,0-.28.259l-.779,4.533a.589.589,0,0,0,.555.621.629.629,0,0,0,.068,0c1.417-.073,2.1-.178,3.895-.24,1.1-.037,4.486.362,5.971.019s1.223-1.831.574-1.822a7.726,7.726,0,0,1-5.706-2.911C251.9,418.063,251.268,417.59,251.042,417.6Z" transform="translate(-204.939 -300.471)" fill="#263238"/>
      <path id="Path_943" data-name="Path 943" d="M151.807,300l1.657-2.816a.284.284,0,0,0-.065-.376l-3.386-3.114a.589.589,0,0,0-.823.13.574.574,0,0,0-.037.056c-.707,1.23-.989,1.861-1.911,3.4-.566.944-2.737,3.572-3.255,5.006s.875,2.021,1.219,1.471a7.725,7.725,0,0,1,5.541-3.214C150.958,300.469,151.7,300.2,151.807,300Z" transform="translate(-143.872 -226.831)" fill="#263238"/>
      <path id="Path_944" data-name="Path 944" d="M254.485,400.1l-.589,4.307-3.6-.352.585-4.307Z" transform="translate(-207.061 -289.868)" opacity="0.2"/>
      <path id="Path_945" data-name="Path 945" d="M178.626,306.906l-1.665,3.759-5.018-2.216,1.28-3.582Z" transform="translate(-160.54 -233.531)" opacity="0.2"/>
      <path id="Path_946" data-name="Path 946" d="M245.341,182.888c2.06,3.5-.458,6.456-2.56,16.92l-13.578.036c.22-5.639.2-10.2-2.21-21.291a1.873,1.873,0,0,1,1.824-2.277c1.123,0,2.533.04,3.965.186a49.23,49.23,0,0,1,6.723,1.017,28.874,28.874,0,0,1,3.537,1.1C243.738,178.821,244.579,180.721,245.341,182.888Z" transform="translate(-193.201 -157.177)" fill="#263238"/>
      <path id="Path_947" data-name="Path 947" d="M252.069,235.667s7.624,22.046,7.44,32.646c-.1,6.073-.562,17.389-2.394,25.349-1.5,6.494-7.587,10.642-7.587,10.642l-4.886-.289S242,294.1,242.463,290.159c.913-7.851,3.621-13.751,3.3-20.96-.522-11.807-4.014-33.722-4.014-33.722Z" transform="translate(-201.986 -192.329)" fill="#3063a4"/>
      <path id="Path_948" data-name="Path 948" d="M246.223,403.859l6.884.408.629-2.069-7.694-.711Z" transform="translate(-204.538 -290.901)" fill="#263238"/>
      <path id="Path_949" data-name="Path 949" d="M248.633,292.789c.009-.01.015-.041.038-.039,4.327.424,7.321-5.82,6.6-14.346l-2.3-21.731Z" transform="translate(-206.076 -204.915)" opacity="0.2" style="isolation: isolate"/>
      <path id="Path_950" data-name="Path 950" d="M209.008,235.459s6.058,38.767-6.543,43.13c-6.648,2.519-12.244-.212-18.868-3.144-3.829-1.7-8.615-6.281-8.615-6.281l1.84-5.009a24.011,24.011,0,0,1,10.142-.513c6.46,1,6.732,2.83,9.028,1.454,4.825-11.93-3.478-21.358,2.165-29.656Z" transform="translate(-162.344 -192.307)" fill="#3063a4"/>
      <path id="Path_951" data-name="Path 951" d="M176.8,303.793l-2.459,6.494,1.812,1.385,2.921-7.728Z" transform="translate(-161.965 -232.893)" fill="#263238"/>
      <g id="Group_2184" data-name="Group 2184" transform="translate(7.075 30.056)">
        <path id="Path_952" data-name="Path 952" d="M171.489,212.351c-.615.907-3.725.294-3.725.294l-.66-3.855,3.819,1.531Z" transform="translate(-164.742 -206.539)" fill="#ffb573"/>
        <path id="Path_953" data-name="Path 953" d="M164.415,208.3l.6,4.006-2.3.344a.511.511,0,0,1-.542-.4l-.877-2.869a.263.263,0,0,1,.19-.312Z" transform="translate(-161.289 -206.245)" fill="#ffb573"/>
        <path id="Path_954" data-name="Path 954" d="M166.164,207.117l1.311.232,1.236-.932-.478-.341a1.622,1.622,0,0,1-.639-.962,6.814,6.814,0,0,1-.167-1.239l0-.139a.567.567,0,0,0-.479-.488l-.325.241a3.3,3.3,0,0,0-.085,1.3l-.052.672-.525.227Z" transform="translate(-164.061 -203.248)" fill="#ffb573"/>
      </g>
      <path id="Path_955" data-name="Path 955" d="M196.793,180l-7.685,10.574-14.125,2.774v2.317s13.268.984,16.244-.754,7.984-12.254,7.984-12.254Z" transform="translate(-162.344 -159.389)" fill="#ffb573"/>
      <path id="Path_956" data-name="Path 956" d="M212.973,129.556c-3.224-1.082-6.966.921-8.443,3.984a10.825,10.825,0,0,0,.7,9.789,30.174,30.174,0,0,1,1.507,2.68,4.222,4.222,0,0,1,.28,2.994c-.331.971-.673,1.593-1.876,1.436,0,0-.015-.666.459-.585h0s-.972.541-1.355.187c.44.684,1.621.434,2-.286a1.863,1.863,0,0,0-1.694-2.522,2.388,2.388,0,0,0-2.169,2.461,3.348,3.348,0,0,0,2.047,2.8,1.515,1.515,0,0,1-1.64-.877,3.454,3.454,0,0,0,3.88,1.8,9.217,9.217,0,0,0,4-2.25c1.608-1.332,3.287-3.015,3.236-5.1-.037-1.555-1.037-2.892-1.876-4.2s-1.577-2.913-1.043-4.373c.453-1.239,1.677-1.986,2.76-2.739.78-.542,2.363-1.749,2.177-2.889C215.755,130.8,213.886,129.863,212.973,129.556Z" transform="translate(-178.615 -129.26)" fill="#263238"/>
      <path id="Path_957" data-name="Path 957" d="M207.45,193.657l-2.128-5.633.488.04a2.058,2.058,0,0,0,1.969-1.046c1.618-2.892,5.822-10.235,7-10.6,1.686-.5,3.42.849,4.074,2.839.481,1.468-4.46,7.754-6.753,11.33C210.074,193.753,207.45,193.657,207.45,193.657Z" transform="translate(-180.359 -157.199)" fill="#263238"/>
      <g id="Group_2185" data-name="Group 2185" transform="translate(6.309 73.49)">
        <path id="Path_958" data-name="Path 958" d="M159.421,311.7l0,.044a.492.492,0,0,0,.364.311.293.293,0,0,0,.289-.065c.344-.309.124-1.62.1-1.752a.082.082,0,0,0-.065-.069.09.09,0,0,0-.087.032C159.751,310.593,159.311,311.287,159.421,311.7Zm.626-1.225c.075.522.106,1.227-.082,1.391a.129.129,0,0,1-.131.021.329.329,0,0,1-.245-.2,1.718,1.718,0,0,1,.457-1.2Z" transform="translate(-159.404 -310.169)" fill="#407bff"/>
        <path id="Path_959" data-name="Path 959" d="M160.907,310.428c.108.438.52,1.187.885,1.273a.3.3,0,0,0,.336-.171.446.446,0,0,0,.022-.381c-.165-.5-1.126-.917-1.165-.936a.081.081,0,0,0-.085,0,.1.1,0,0,0-.033.079A1.217,1.217,0,0,0,160.907,310.428Zm1.1.794a.269.269,0,0,1-.033.214c-.054.095-.108.1-.148.089-.249-.051-.628-.664-.749-1.09.312.157.819.456.919.762a.052.052,0,0,0,.011.025Z" transform="translate(-160.272 -310.186)" fill="#407bff"/>
      </g>
      <g id="Group_2186" data-name="Group 2186" transform="translate(35.565 41.849)">
        <path id="Path_960" data-name="Path 960" d="M231.809,232.408l-.375,1.321c-.051.1.069.208.24.206l14.013-.019c.134.008.244-.067.253-.147l.131-1.323c.005-.089-.108-.169-.255-.166l-13.769.017A.265.265,0,0,0,231.809,232.408Z" transform="translate(-231.422 -232.279)" fill="#407bff"/>
        <path id="Path_961" data-name="Path 961" d="M231.809,232.408l-.375,1.321c-.051.1.069.208.24.206l14.013-.019c.134.008.244-.067.253-.147l.131-1.323c.005-.089-.108-.169-.255-.166l-13.769.017A.265.265,0,0,0,231.809,232.408Z" transform="translate(-231.422 -232.279)" fill="#fff" opacity="0.5" style="isolation: isolate"/>
      </g>
      <g id="Group_2187" data-name="Group 2187" transform="translate(38.087 41.719)">
        <path id="Path_962" data-name="Path 962" d="M238.171,233.877h-.407c-.077,0-.14-.041-.133-.089l.183-1.719c0-.048.074-.089.156-.088l.407,0c.077,0,.14.041.133.093l-.183,1.714C238.32,233.833,238.248,233.878,238.171,233.877Z" transform="translate(-237.631 -231.97)" fill="#407bff"/>
        <path id="Path_963" data-name="Path 963" d="M263.077,233.878h-.407c-.077,0-.14-.041-.133-.089l.183-1.714c0-.053.074-.093.152-.093h.407c.077,0,.14.041.133.089l-.183,1.715C263.225,233.838,263.158,233.878,263.077,233.878Z" transform="translate(-252.419 -231.972)" fill="#407bff"/>
        <path id="Path_964" data-name="Path 964" d="M251.671,233.856h-.407c-.077,0-.14-.041-.133-.089l.183-1.715c0-.053.075-.093.152-.093h.407c.077,0,.14.041.133.089l-.183,1.715C251.819,233.815,251.752,233.856,251.671,233.856Z" transform="translate(-245.646 -231.959)" fill="#407bff"/>
      </g>
      <path id="Path_965" data-name="Path 965" d="M241.921,158.534c.431,2.211.853,6.208-.646,7.413,0,0,.6,2.27,4.615,2.874,4.437.67,2.108-1.857,2.108-1.857-2.414-.957-2.355-2.7-1.938-4.31Z" transform="translate(-201.707 -146.642)" fill="#ffb573"/>
      <path id="Path_966" data-name="Path 966" d="M238.706,176.485a42.931,42.931,0,0,1,6.366.886l3.039.9c.542,1.09-.344,3.329-2.889,3.754a7.629,7.629,0,0,1-8.3-5.712Z" transform="translate(-199.125 -157.199)" fill="#ffb573"/>
      <path id="Path_967" data-name="Path 967" d="M246.631,162.677l2.448,2.436a6.291,6.291,0,0,0-.2,1.152c-.924-.271-2.41-1.29-2.511-2.265A3.32,3.32,0,0,1,246.631,162.677Z" transform="translate(-204.73 -149.102)" opacity="0.2" style="isolation: isolate"/>
      <path id="Path_968" data-name="Path 968" d="M235.833,142.22c1.086,3.437,1.471,4.917,3.7,6.27,3.327,2.032,7.328-.05,7.274-3.741-.031-3.322-1.8-8.384-5.575-8.925a4.916,4.916,0,0,0-5.4,6.4Z" transform="translate(-198.331 -133.126)" fill="#ffb573"/>
      <path id="Path_969" data-name="Path 969" d="M256.375,150.328a7.765,7.765,0,0,0,1.388,1.633,1.273,1.273,0,0,1-.987.4Z" transform="translate(-210.673 -141.77)" fill="#ed893e"/>
      <path id="Path_970" data-name="Path 970" d="M252.748,158.839a2.527,2.527,0,0,0,.412-.077.082.082,0,0,0,.06-.1v0a.089.089,0,0,0-.1-.063,2.3,2.3,0,0,1-2.054-.423.087.087,0,1,0-.117.127A2.437,2.437,0,0,0,252.748,158.839Z" transform="translate(-207.433 -146.414)" fill="#263238"/>
      <path id="Path_971" data-name="Path 971" d="M231.055,134.508a3.343,3.343,0,0,0-1.522,2.664,1.266,1.266,0,0,0,.094.594.579.579,0,0,0,.464.345c.31.017.538-.274.708-.534l.785-1.2a6.1,6.1,0,0,0,.823-1.3C232.662,134.261,231.536,134.2,231.055,134.508Z" transform="translate(-194.735 -132.275)" fill="#407bff"/>
      <path id="Path_972" data-name="Path 972" d="M231.837,133.41c-2.159,2.493-3.123,9.4,3.195,11.32,1.056-.836-.65-2.358-1.373-4.284-.474-1.261,1.933-3.613,2.874-4.577s1.8-2.36,3.13-2.136a1.808,1.808,0,0,0,1.038.028c1.052-.476.542-1.106.013-1.546a5.446,5.446,0,0,0-2.863-1.048A7.037,7.037,0,0,0,231.837,133.41Z" transform="translate(-195.131 -130.367)" fill="#263238"/>
      <path id="Path_973" data-name="Path 973" d="M237.583,133.758c2.536,2.116-.824,2.169-2.588,3.509-1.7,1.286-.509,3.4-3.388,4.373-2.353.688-2.9.275-3.548-.18a3.708,3.708,0,0,0,3.058-3.331C231.319,136.59,234.68,131.3,237.583,133.758Z" transform="translate(-193.86 -131.55)" fill="#263238"/>
      <path id="Path_974" data-name="Path 974" d="M234.88,155.974a2.652,2.652,0,0,0,1.689,1.1c.91.16,1.261-.674.947-1.486-.295-.73-1.121-1.694-2-1.486a1.182,1.182,0,0,0-.636,1.875Z" transform="translate(-197.76 -143.991)" fill="#ffb573"/>
      <path id="Path_975" data-name="Path 975" d="M250.2,133.386c.492,1.25,1.909,1.085,2.959,2.393.645.8,1.911-1.694.187-2.683S249.424,131.428,250.2,133.386Z" transform="translate(-206.91 -130.965)" fill="#263238"/>
      <path id="Path_976" data-name="Path 976" d="M246.523,146.219a.167.167,0,0,0,.173-.1,1.978,1.978,0,0,1,1.343-.929.171.171,0,0,0-.063-.337,2.346,2.346,0,0,0-1.594,1.133.171.171,0,0,0,.082.227h0Z" transform="translate(-204.729 -138.517)" fill="#263238"/>
      <path id="Path_977" data-name="Path 977" d="M257.471,143.64a.166.166,0,0,0,.151-.076.171.171,0,0,0-.044-.237l0,0a1.714,1.714,0,0,0-1.559-.2.173.173,0,1,0,.136.317h0a1.35,1.35,0,0,1,1.231.171A.238.238,0,0,0,257.471,143.64Z" transform="translate(-210.398 -137.432)" fill="#263238"/>
      <g id="Group_2188" data-name="Group 2188" transform="translate(58.923 28.445)">
        <path id="Path_978" data-name="Path 978" d="M293.771,199.283l-2.376,1.353-2.474,5.32s2.389,1.521,4.271.29S293.771,199.283,293.771,199.283Z" transform="translate(-288.921 -199.283)" fill="#407bff"/>
        <path id="Path_979" data-name="Path 979" d="M293.771,199.283l-2.376,1.353-2.474,5.32s2.389,1.521,4.271.29S293.771,199.283,293.771,199.283Z" transform="translate(-288.921 -199.283)" fill="#fff" opacity="0.5" style="isolation: isolate"/>
      </g>
      <g id="Group_2191" data-name="Group 2191" transform="translate(21.997 30.09)">
        <g id="Group_2189" data-name="Group 2189">
          <path id="Path_980" data-name="Path 980" d="M198.171,203.331l2.816.8,2.669,5.522a3.4,3.4,0,0,1-4.466.088C197.448,208.314,198.171,203.331,198.171,203.331Z" transform="translate(-198.023 -203.331)" fill="#407bff"/>
        </g>
        <g id="Group_2190" data-name="Group 2190" opacity="0.5" style="isolation: isolate">
          <path id="Path_981" data-name="Path 981" d="M198.171,203.331l2.816.8,2.669,5.522a3.4,3.4,0,0,1-4.466.088C197.448,208.314,198.171,203.331,198.171,203.331Z" transform="translate(-198.023 -203.331)" fill="#fff"/>
        </g>
      </g>
      <g id="Group_2192" data-name="Group 2192" transform="translate(46.635 7.288)">
        <path id="Path_982" data-name="Path 982" d="M258.947,147.925c.2-.037.4.183.451.483s-.065.577-.26.609-.4-.183-.451-.483S258.753,147.962,258.947,147.925Z" transform="translate(-258.673 -147.629)" fill="#263238"/>
        <path id="Path_983" data-name="Path 983" d="M259.824,147.2l-.687.337C259.552,147.831,259.824,147.2,259.824,147.2Z" transform="translate(-258.949 -147.201)" fill="#263238"/>
      </g>
      <g id="Group_2193" data-name="Group 2193" transform="translate(43.234 7.985)">
        <path id="Path_984" data-name="Path 984" d="M250.576,149.639c.195-.037.4.183.451.483s-.065.577-.26.609-.4-.183-.451-.483S250.38,149.676,250.576,149.639Z" transform="translate(-250.301 -149.343)" fill="#263238"/>
        <path id="Path_985" data-name="Path 985" d="M251.453,148.915l-.687.337C251.18,149.545,251.453,148.915,251.453,148.915Z" transform="translate(-250.577 -148.915)" fill="#263238"/>
      </g>
      <g id="Group_2194" data-name="Group 2194" transform="translate(23.542 0.468)">
        <path id="Path_986" data-name="Path 986" d="M204.6,153.769a2.959,2.959,0,0,1-1.118-.211c-1.258-.515-1.845-1.825-1.608-3.6a.2.2,0,1,1,.4.054c-.21,1.573.286,2.728,1.36,3.167a3.131,3.131,0,0,0,3.515-1.08c1.018-1.358.689-3.284-.9-5.281-4.159-5.22-3.881-8-3.294-10.188.854-3.185,3.353-6.835,10.421-6.133a.2.2,0,0,1-.041.4c-6.778-.675-9.175,2.8-9.987,5.834-.588,2.192-.823,4.757,3.219,9.83,2.438,3.059,1.449,5.06.912,5.778A3.675,3.675,0,0,1,204.6,153.769Z" transform="translate(-201.824 -130.411)" fill="#263238"/>
      </g>
    </g>
  </g>
</svg>
