<svg id="Group_2395" data-name="Group 2395" xmlns="http://www.w3.org/2000/svg" width="16.224" height="21.59" viewBox="0 0 16.224 21.59">
  <g id="Group_2121" data-name="Group 2121" transform="translate(0 14.01)">
    <rect id="Rectangle_392" data-name="Rectangle 392" width="4.182" height="1.54" transform="translate(6.02 1.815)" fill="#6bb1c5"/>
    <path id="Path_817" data-name="Path 817" d="M72.458,122.094h-3.4a7.458,7.458,0,0,1-.33,2.769h4.1A7.712,7.712,0,0,1,72.458,122.094Z" transform="translate(-62.668 -122.094)" fill="#f5af80"/>
    <path id="Path_818" data-name="Path 818" d="M70.27,123.715a3.616,3.616,0,0,0,1.79.475,4.256,4.256,0,0,0,1.734-.388,13.821,13.821,0,0,1-.083-1.708h-3.4A13.689,13.689,0,0,1,70.27,123.715Z" transform="translate(-63.921 -122.094)" fill="#f7dcd7" style="mix-blend-mode: multiply;isolation: isolate"/>
    <g id="Group_2117" data-name="Group 2117" transform="translate(0 2.489)">
      <path id="Path_819" data-name="Path 819" d="M50.906,137.2l-4.932-1.767H42.7L37.77,137.2s-1.727.568-1.525,3.325H52.431C52.667,137.6,50.906,137.2,50.906,137.2Z" transform="translate(-36.228 -135.438)" fill="#f5af80"/>
    </g>
    <g id="Group_2118" data-name="Group 2118" transform="translate(0 2.788)">
      <path id="Path_820" data-name="Path 820" d="M50.906,138.512l-4.031-1.444-2.534,1.767-2.475-1.79-4.1,1.467s-1.727.568-1.525,3.325H52.431C52.667,138.911,50.906,138.512,50.906,138.512Z" transform="translate(-36.228 -137.045)" fill="#3063a4"/>
    </g>
    <g id="Group_2119" data-name="Group 2119" transform="translate(4.914 1.815)">
      <path id="Path_821" data-name="Path 821" d="M69.483,134.59l-.332-1.7-1.76-1.064-.256,1.071Z" transform="translate(-66.284 -131.827)" fill="#6bb1c5"/>
      <path id="Path_822" data-name="Path 822" d="M65.444,132.891l-.832,1.524-2.034-1.382,1.106-1.207Z" transform="translate(-62.578 -131.827)" fill="#c2e3e5"/>
    </g>
    <g id="Group_2120" data-name="Group 2120" transform="translate(8.112 1.815)">
      <path id="Path_823" data-name="Path 823" d="M79.725,134.59l.332-1.7,1.76-1.064.256,1.071Z" transform="translate(-79.725 -131.827)" fill="#6bb1c5"/>
      <path id="Path_824" data-name="Path 824" d="M81.507,132.891l.832,1.524,2.034-1.382-1.106-1.207Z" transform="translate(-81.175 -131.827)" fill="#c2e3e5"/>
    </g>
  </g>
  <g id="Group_2132" data-name="Group 2132" transform="translate(3.083 8.791)">
    <g id="Group_2126" data-name="Group 2126" transform="translate(8.718)">
      <g id="Group_2125" data-name="Group 2125">
        <path id="Path_825" data-name="Path 825" d="M99.536,95.3c-.117.724.086,1.368.453,1.437s.759-.461.876-1.186-.087-1.368-.454-1.437S99.652,94.578,99.536,95.3Z" transform="translate(-99.503 -94.11)" fill="#f5af80"/>
        <g id="Group_2124" data-name="Group 2124" transform="translate(0.286 0.282)">
          <g id="Group_2122" data-name="Group 2122" transform="translate(0.185)">
            <path id="Path_826" data-name="Path 826" d="M102.033,96.336s.005-.04.02-.107a1.314,1.314,0,0,1,.088-.261c.046-.1.12-.208.214-.214a.2.2,0,0,1,.071.01.353.353,0,0,1,.036.018.256.256,0,0,1,.026.022.374.374,0,0,1,.089.158.933.933,0,0,1,.043.206,1.01,1.01,0,0,1,0,.208c-.012.073-.015.147-.028.21l-.035.182c-.015.056-.026.109-.037.156s-.024.086-.033.119c-.019.066-.028.105-.028.105s.019-.033.049-.094c.014-.031.035-.067.053-.111s.04-.094.061-.15.038-.121.058-.188.03-.137.044-.211a.962.962,0,0,0,.009-.248,1.113,1.113,0,0,0-.047-.245.508.508,0,0,0-.128-.212.26.26,0,0,0-.052-.038.33.33,0,0,0-.05-.02.28.28,0,0,0-.111-.005.289.289,0,0,0-.18.128.688.688,0,0,0-.087.182,1.157,1.157,0,0,0-.049.291A.719.719,0,0,0,102.033,96.336Z" transform="translate(-102.03 -95.622)" fill="#f1986d"/>
          </g>
          <path id="Path_827" data-name="Path 827" d="M101.537,99.034s-.034-.077.208-.1c0,0,.27.05.111.41a1.175,1.175,0,0,0-.081.243c-.024.121.019.285-.046.392-.084.139-.3.06-.309-.1a.913.913,0,0,1,.172-.416A.324.324,0,0,0,101.537,99.034Z" transform="translate(-101.348 -98.32)" fill="#f1986d"/>
          <g id="Group_2123" data-name="Group 2123" transform="translate(0 1.55)">
            <path id="Path_828" data-name="Path 828" d="M101.108,103.933a.121.121,0,0,0-.019.02.23.23,0,0,0-.036.068.223.223,0,0,0-.012.051.184.184,0,0,0,0,.06c0,.021,0,.043.006.065a.5.5,0,0,0,.02.06.274.274,0,0,0,.027.055.473.473,0,0,0,.036.042.155.155,0,0,0,.074.052.223.223,0,0,0,.082.02.54.54,0,0,0-.038-.087.22.22,0,0,0-.02-.034c-.006-.013-.01-.028-.017-.04a.353.353,0,0,0-.02-.038.2.2,0,0,1-.016-.04.425.425,0,0,1-.029-.079.336.336,0,0,1-.01-.04c0-.014-.008-.027-.009-.039C101.113,103.977,101.108,103.933,101.108,103.933Z" transform="translate(-101.036 -103.933)" fill="#f1986d"/>
          </g>
        </g>
      </g>
    </g>
    <g id="Group_2131" data-name="Group 2131">
      <g id="Group_2130" data-name="Group 2130">
        <path id="Path_829" data-name="Path 829" d="M54.121,95.3c.117.724-.086,1.368-.454,1.437s-.759-.461-.876-1.186.087-1.368.454-1.437S54,94.578,54.121,95.3Z" transform="translate(-52.759 -94.11)" fill="#f5af80"/>
        <g id="Group_2129" data-name="Group 2129" transform="translate(0.214 0.282)">
          <g id="Group_2127" data-name="Group 2127">
            <path id="Path_830" data-name="Path 830" d="M54.614,96.336s-.006-.04-.02-.107a1.314,1.314,0,0,0-.088-.261c-.046-.1-.12-.208-.213-.214a.2.2,0,0,0-.071.01.374.374,0,0,0-.035.018.238.238,0,0,0-.026.022.372.372,0,0,0-.089.158.943.943,0,0,0-.043.206,1.008,1.008,0,0,0,0,.208c.011.073.015.147.028.21l.035.182c.015.056.026.109.037.156s.024.086.033.119c.019.066.028.105.028.105s-.019-.033-.049-.094c-.014-.031-.035-.067-.053-.111s-.04-.094-.061-.15-.038-.121-.058-.188-.03-.137-.044-.211a.963.963,0,0,1-.009-.248,1.091,1.091,0,0,1,.047-.245.507.507,0,0,1,.128-.212.254.254,0,0,1,.052-.038.322.322,0,0,1,.05-.02.28.28,0,0,1,.111-.005.288.288,0,0,1,.18.128.671.671,0,0,1,.087.182,1.16,1.16,0,0,1,.049.291A.731.731,0,0,1,54.614,96.336Z" transform="translate(-53.908 -95.622)" fill="#f1986d"/>
          </g>
          <path id="Path_831" data-name="Path 831" d="M56.084,99.034s.034-.077-.208-.1c0,0-.27.05-.111.41a1.186,1.186,0,0,1,.081.243c.024.121-.019.285.046.392.084.139.3.06.309-.1a.911.911,0,0,0-.172-.416A.324.324,0,0,1,56.084,99.034Z" transform="translate(-55.378 -98.32)" fill="#f1986d"/>
          <g id="Group_2128" data-name="Group 2128" transform="translate(0.649 1.55)">
            <path id="Path_832" data-name="Path 832" d="M57.562,103.933a.108.108,0,0,1,.018.02.225.225,0,0,1,.036.068.222.222,0,0,1,.012.051.184.184,0,0,1,0,.06.607.607,0,0,1-.006.065.416.416,0,0,1-.02.06.274.274,0,0,1-.027.055.444.444,0,0,1-.036.042.155.155,0,0,1-.074.052.223.223,0,0,1-.083.02.56.56,0,0,1,.038-.087.274.274,0,0,1,.02-.034c.006-.013.01-.028.017-.04a.3.3,0,0,1,.02-.038.181.181,0,0,0,.015-.04.413.413,0,0,0,.029-.079.3.3,0,0,0,.01-.04c0-.014.008-.027.009-.039C57.557,103.977,57.562,103.933,57.562,103.933Z" transform="translate(-57.388 -103.933)" fill="#f1986d"/>
          </g>
        </g>
      </g>
    </g>
  </g>
  <path id="Path_833" data-name="Path 833" d="M61.349,58.592h-.116c-2.92.026-4.561.857-4.112,6.18l.5,4.24a1.764,1.764,0,0,0,.938,1.236l1.586,1.176a2.322,2.322,0,0,0,2.289,0l1.586-1.176a1.764,1.764,0,0,0,.938-1.236l.529-4.142C65.937,59.547,64.269,58.617,61.349,58.592Z" transform="translate(-53.165 -56.424)" fill="#f5af80"/>
  <g id="Group_2139" data-name="Group 2139" transform="translate(5.885 8.192)">
    <g id="Group_2135" data-name="Group 2135">
      <g id="Group_2133" data-name="Group 2133" transform="translate(0.09)">
        <path id="Path_834" data-name="Path 834" d="M68.267,91.4c0,.276.157.5.347.5s.342-.226.341-.5-.157-.5-.347-.5S68.265,91.126,68.267,91.4Z" transform="translate(-68.267 -90.9)" fill="#29180d"/>
      </g>
      <g id="Group_2134" data-name="Group 2134" transform="translate(0 0.195)">
        <path id="Path_835" data-name="Path 835" d="M68.081,92.093a.149.149,0,1,1-.149-.149A.149.149,0,0,1,68.081,92.093Z" transform="translate(-67.784 -91.944)" fill="#fff"/>
      </g>
    </g>
    <g id="Group_2138" data-name="Group 2138" transform="translate(3.731)">
      <g id="Group_2136" data-name="Group 2136">
        <path id="Path_836" data-name="Path 836" d="M88.478,91.4c0,.276-.157.5-.347.5s-.342-.226-.341-.5.157-.5.347-.5S88.479,91.126,88.478,91.4Z" transform="translate(-87.79 -90.9)" fill="#29180d"/>
      </g>
      <g id="Group_2137" data-name="Group 2137" transform="translate(0.48 0.195)">
        <path id="Path_837" data-name="Path 837" d="M90.365,92.093a.149.149,0,1,0,.149-.149A.149.149,0,0,0,90.365,92.093Z" transform="translate(-90.365 -91.944)" fill="#fff"/>
      </g>
    </g>
  </g>
  <g id="Group_2141" data-name="Group 2141" transform="translate(7.361 9.692)">
    <g id="Group_2140" data-name="Group 2140">
      <path id="Path_838" data-name="Path 838" d="M77.122,100.748a.776.776,0,0,1-.267.216,1.084,1.084,0,0,1-.163.065,1.233,1.233,0,0,1-.176.036.949.949,0,0,1-.366-.028.936.936,0,0,1-.175-.064,1.437,1.437,0,0,1-.161-.092l-.118-.069.032-.14c.067-.294.145-.586.237-.875.021-.073.047-.144.071-.216s.048-.144.077-.215c.054-.143.111-.285.18-.425.007.156,0,.309,0,.461,0,.076-.01.152-.015.228s-.011.152-.021.227c-.031.3-.075.6-.131.9l-.086-.209c.039.019.075.044.114.061a1.082,1.082,0,0,0,.117.05c.039.017.081.025.123.04s.085.022.13.027a.9.9,0,0,0,.138.019c.047,0,.1.009.146.009s.1,0,.154,0S77.064,100.751,77.122,100.748Z" transform="translate(-75.696 -98.942)" fill="#e9946b"/>
    </g>
  </g>
  <path id="Path_839" data-name="Path 839" d="M65.32,86.643a.241.241,0,0,1-.273.184,2.645,2.645,0,0,0-1.389.116.249.249,0,0,1-.3-.137h0a.22.22,0,0,1,.12-.31,3.126,3.126,0,0,1,1.636-.145.244.244,0,0,1,.2.291Z" transform="translate(-58.281 -78.968)" fill="#8b473c"/>
  <path id="Path_840" data-name="Path 840" d="M85.036,86.643a.241.241,0,0,0,.272.184,2.646,2.646,0,0,1,1.389.116.249.249,0,0,0,.3-.137h0a.22.22,0,0,0-.121-.31,3.125,3.125,0,0,0-1.636-.145.244.244,0,0,0-.2.291Z" transform="translate(-75.929 -78.968)" fill="#8b473c"/>
  <path id="Path_841" data-name="Path 841" d="M61.938,56.571c-.137-.279-.044-.726-.105-1.038-.076-.388-.25-.729-.366-1.118-.275-.921.411-2.054-.5-2.728-.442-.329-1.508.036-2.65.112-1.429.1-2.13-.747-2.754-.441a.961.961,0,0,0-.625.708c-.174.459-.558.808-.693,1.286-.312,1.107.123,1.283-.234,2.892,0,0,.042-.284-.34-.479,0,0-.352-.072-.483.2.092-.188-.095-.836-.108-1.043a8.042,8.042,0,0,1-.028-1.525c.068-.543.136-1.064.151-1.613a4.086,4.086,0,0,1,.409-1.742,3.054,3.054,0,0,1,.173-.294c.3-.455.73-.5.941-1,.285-.684.326-1.154,1.05-1.419a3.1,3.1,0,0,1,2.479-.159,12.083,12.083,0,0,0,1.472.585,6.8,6.8,0,0,1,1.628.284,3.672,3.672,0,0,1,1.633,2.694,12.518,12.518,0,0,1,.019,2.869c0,.5-.135,1.247-.226,2.173-.018.181-.468.059-.661.276a2.418,2.418,0,0,0-.193.582Z" transform="translate(-49.893 -46.973)"/>
  <g id="Group_2142" data-name="Group 2142" transform="translate(7.06 12.602)">
    <path id="Path_842" data-name="Path 842" d="M76.242,114.545s-1.612.437-2.159,0" transform="translate(-74.083 -114.545)" fill="none" stroke="#e59174" stroke-linecap="round" stroke-linejoin="round" stroke-width="1.5"/>
    <path id="Path_843" data-name="Path 843" d="M79.259,118.118a.352.352,0,0,1-.149,0,.072.072,0,0,0,.082.078S79.25,118.2,79.259,118.118Z" transform="translate(-78.172 -117.449)" fill="#e59174"/>
    <path id="Path_844" data-name="Path 844" d="M78.325,116.967a1.512,1.512,0,0,1-.775.006" transform="translate(-76.903 -116.515)" fill="none" stroke="#e59174" stroke-linecap="round" stroke-linejoin="round" stroke-width="1.5"/>
  </g>
</svg>
