<svg xmlns="http://www.w3.org/2000/svg" width="19" height="28.627" viewBox="0 0 19 28.627">
  <g id="man" transform="translate(-78.028 0)">
    <path id="Path_1330" data-name="Path 1330" d="M97.028,25.711v2.422a.493.493,0,0,1-.494.494H78.522a.493.493,0,0,1-.493-.494V25.711a4.6,4.6,0,0,1,4.6-4.6,2.554,2.554,0,0,0,2.144-1.163,2.9,2.9,0,0,0,.41-1.808l.009-.023a6.108,6.108,0,0,1-3.772-5.644v-.193a1.522,1.522,0,0,1-1.542-1.514V8.2a8.539,8.539,0,0,1,2.295-6.232C84.817-.579,89.007-.37,92.042.993a.124.124,0,0,1,0,.227l-.791.326a.123.123,0,0,0,.034.237l.384.041a6.225,6.225,0,0,1,4.646,2.918.038.038,0,0,1-.006.045A3.731,3.731,0,0,0,95.239,7.4v3.277a1.6,1.6,0,0,1-1.6,1.6v.193a6.108,6.108,0,0,1-3.772,5.644l.009.023a2.9,2.9,0,0,0,.41,1.808,2.554,2.554,0,0,0,2.144,1.163,4.6,4.6,0,0,1,4.6,4.6Z" transform="translate(0 0)" fill="#ffd6a6"/>
    <path id="Path_1331" data-name="Path 1331" d="M124.423,4.742a.038.038,0,0,1-.006.045A3.734,3.734,0,0,0,123.351,7.4v3.277a1.6,1.6,0,0,1-1.6,1.6c0-1.867,0-2.842,0-3.367a.493.493,0,0,0-.636-.472,6.627,6.627,0,0,1-3.374.2c-2.146-.466-2.753-1.307-4.5-1.727a3,3,0,0,0-3.717,2.945c0,.63.014,1.417.015,2.422a1.522,1.522,0,0,1-1.542-1.514V8.2a8.539,8.539,0,0,1,2.295-6.232c2.644-2.548,6.834-2.34,9.869-.976a.124.124,0,0,1,0,.227l-.792.326a.123.123,0,0,0,.034.237l.384.041a6.224,6.224,0,0,1,4.646,2.918Z" transform="translate(-28.112 -0.001)" fill="#172cff"/>
    <path id="Path_1332" data-name="Path 1332" d="M144.37,112.267a.493.493,0,0,1,.636.471c0,.543,0,1.567,0,3.56a6.107,6.107,0,1,1-12.214,0c0-1.126-.011-1.926-.015-2.615a3,3,0,0,1,3.717-2.945c1.75.42,2.358,1.261,4.5,1.727A6.628,6.628,0,0,0,144.37,112.267Z" transform="translate(-51.371 -103.826)" fill="#ffdfba"/>
    <path id="Path_1333" data-name="Path 1333" d="M97.028,329.129v2.422a.494.494,0,0,1-.494.493H78.522a.494.494,0,0,1-.493-.493v-2.422a4.6,4.6,0,0,1,4.6-4.6,2.554,2.554,0,0,0,2.145-1.163,4.234,4.234,0,0,0,5.509,0,2.554,2.554,0,0,0,2.145,1.163,4.6,4.6,0,0,1,4.6,4.6Z" transform="translate(0 -303.418)" fill="#172cff"/>
    <path id="Path_1334" data-name="Path 1334" d="M283,432.043h-1.48a.493.493,0,1,1,0-.987H283a.493.493,0,1,1,0,.987Z" transform="translate(-190.477 -404.465)" fill="#fff"/>
    <path id="Path_1335" data-name="Path 1335" d="M85.115,326.02a2.509,2.509,0,0,1-.735.114,4.613,4.613,0,0,0-4.624,4.584v.464a.864.864,0,0,1-.864.864h-.37a.494.494,0,0,1-.493-.493v-2.422a4.6,4.6,0,0,1,4.6-4.6,2.554,2.554,0,0,0,2.145-1.163,4.272,4.272,0,0,0,.587.421A1.232,1.232,0,0,1,85.115,326.02Z" transform="translate(0 -303.418)" fill="#4d4e59"/>
    <path id="Path_1336" data-name="Path 1336" d="M258.211,326.02a2.509,2.509,0,0,0,.735.114,4.613,4.613,0,0,1,4.624,4.584v.464a.864.864,0,0,0,.864.864h.37a.494.494,0,0,0,.493-.493v-2.422a4.6,4.6,0,0,0-4.6-4.6,2.554,2.554,0,0,1-2.145-1.163,4.269,4.269,0,0,1-.587.421A1.232,1.232,0,0,0,258.211,326.02Z" transform="translate(-168.27 -303.418)" fill="#2c2c33"/>
    <path id="Path_1337" data-name="Path 1337" d="M197.726,294.722a6.124,6.124,0,0,1-4.828,0,3.823,3.823,0,0,0,.07-1.013l.009-.023a6.12,6.12,0,0,0,4.67,0l.009.023A3.821,3.821,0,0,0,197.726,294.722Z" transform="translate(-107.784 -275.569)" fill="#f7c388"/>
    <path id="Path_1338" data-name="Path 1338" d="M120.149,1.22c-.582.239-.71.323-.977.279-4.895-.806-8.749,1.754-9.276,6.755a.751.751,0,0,1-.071.253,4.4,4.4,0,0,0-.3,2.27.767.767,0,0,1-1.532.065c0-.062,0,.1,0-2.64a8.539,8.539,0,0,1,2.295-6.232c2.644-2.548,6.834-2.34,9.869-.977a.124.124,0,0,1,0,.227Z" transform="translate(-28.111 0)" fill="#4d4e59"/>
    <path id="Path_1339" data-name="Path 1339" d="M137.519,135.845a.975.975,0,0,1-.887,1.727,6.108,6.108,0,0,1-3.838-5.671c0-1.127-.011-1.923-.015-2.615a3.005,3.005,0,0,1,.494-1.675.742.742,0,0,1,1.357.441c0,.694.015,1.487.015,2.615A6.063,6.063,0,0,0,137.519,135.845Z" transform="translate(-51.373 -119.429)" fill="#ffebd2"/>
  </g>
</svg>
