<svg xmlns="http://www.w3.org/2000/svg" xmlns:xlink="http://www.w3.org/1999/xlink" width="25" height="55" viewBox="0 0 25 55">
  <defs>
    <clipPath id="clip-path">
      <rect id="Rectangle_361" data-name="Rectangle 361" width="25" height="55" transform="translate(0.035 4)" opacity="0.79"/>
    </clipPath>
  </defs>
  <g id="Mask_Group_6" data-name="Mask Group 6" transform="translate(-0.035 -4)" clip-path="url(#clip-path)">
    <g id="muted" transform="translate(0.009 18.582)">
      <path id="Path_1344" data-name="Path 1344" d="M7.58,11.182a28.894,28.894,0,0,0,2.88,3.411,28.877,28.877,0,0,0,3.411,2.88,1.2,1.2,0,0,0,1.549-.137l1.913-1.913a2.893,2.893,0,0,1,4.091,0l2.756,2.756a2.893,2.893,0,0,1,0,4.091c-2.632,2.632-6.6,3.244-10.151,2.473a16.027,16.027,0,0,1-7.763-4.656c-.218-.218-.428-.437-.642-.659s-.441-.424-.659-.642A16.028,16.028,0,0,1,.31,11.024C-.461,7.472.151,3.5,2.783.873a2.893,2.893,0,0,1,4.091,0L9.63,3.629a2.893,2.893,0,0,1,0,4.091L7.717,9.633a1.2,1.2,0,0,0-.137,1.549Zm0,0" transform="translate(0 -0.026)" fill="#2f24ae"/>
      <path id="Path_1345" data-name="Path 1345" d="M27.716,48.863a.432.432,0,0,1-.41-.3c-2.149-6.448.679-9.375.8-9.5a.432.432,0,0,1,.613.61c-.11.113-2.56,2.714-.593,8.613a.433.433,0,0,1-.41.569Zm0,0" transform="translate(-24.733 -36.35)" fill="#4fa6ba"/>
      <path id="Path_1346" data-name="Path 1346" d="M192.177,315.832a14.294,14.294,0,0,1-4.518-.8.432.432,0,1,1,.274-.82c5.9,1.967,8.505-.488,8.613-.594a.432.432,0,0,1,.609.613,7.146,7.146,0,0,1-4.978,1.6Zm0,0" transform="translate(-174.849 -292.574)" fill="#4fa6ba"/>
      <path id="Path_1347" data-name="Path 1347" d="M11.949,24.912,28.654,8.207a1.3,1.3,0,0,0,0-1.834l-.608-.608a1.3,1.3,0,0,0-1.834,0L24.637,7.34,13.981,18l-2.313,2.313L9.075,22.9,5.057,26.92a1.3,1.3,0,0,0,0,1.834l.608.608a1.3,1.3,0,0,0,1.834,0Zm0,0" transform="translate(-4.365 -5.027)" fill="#ff5364"/>
    </g>
  </g>
</svg>
