<svg xmlns="http://www.w3.org/2000/svg" width="106" height="111.223" viewBox="0 0 106 111.223">
  <g id="subscription_1_" data-name="subscription (1)" transform="translate(-11.67)">
    <path id="Path_1363" data-name="Path 1363" d="M48.931,55.34V92.576H13.542A1.871,1.871,0,0,1,11.67,90.7V55.34Z" transform="translate(0 -42.955)" fill="#eaf6ff"/>
    <path id="Path_1364" data-name="Path 1364" d="M93.548,55.34V92.576H69.15A3.88,3.88,0,0,0,73.031,88.7V55.34Z" transform="translate(-44.617 -42.955)" fill="#c8effe"/>
    <path id="Path_1365" data-name="Path 1365" d="M356.083,55.34V90.7a1.87,1.87,0,0,1-1.87,1.87H318.82V55.34Z" transform="translate(-238.413 -42.955)" fill="#eaf6ff"/>
    <path id="Path_1366" data-name="Path 1366" d="M451.045,55.34V90.7a1.87,1.87,0,0,1-1.87,1.87H441.16a4.009,4.009,0,0,0,4.01-4.01V55.34Z" transform="translate(-333.375 -42.955)" fill="#c8effe"/>
    <path id="Path_1367" data-name="Path 1367" d="M48.931,24.92v6.808H11.67V26.792a1.871,1.871,0,0,1,1.872-1.872Z" transform="translate(0 -19.343)" fill="#99e6fc"/>
    <path id="Path_1368" data-name="Path 1368" d="M93.175,24.92v6.808H72.658v-2.82A3.988,3.988,0,0,0,68.67,24.92Z" transform="translate(-44.244 -19.343)" fill="#62dbfb"/>
    <path id="Path_1369" data-name="Path 1369" d="M356.083,26.79v4.937H318.82V24.92h35.393A1.87,1.87,0,0,1,356.083,26.79Z" transform="translate(-238.413 -19.343)" fill="#99e6fc"/>
    <path id="Path_1370" data-name="Path 1370" d="M454.188,26.79v4.937h-5.874v-3.7a3.1,3.1,0,0,0-3.1-3.1h7.108A1.87,1.87,0,0,1,454.188,26.79Z" transform="translate(-336.518 -19.343)" fill="#62dbfb"/>
    <path id="Path_1371" data-name="Path 1371" d="M175.4,1.906V12.384L146.5,13.465l-28.893-1.08V1.906A1.906,1.906,0,0,1,119.516,0H173.49A1.906,1.906,0,0,1,175.4,1.906Z" transform="translate(-82.232)" fill="#5986cb"/>
    <path id="Path_1372" data-name="Path 1372" d="M334.155,1.906V12.384h-7.381V4.637A4.636,4.636,0,0,0,322.14,0h10.109a1.906,1.906,0,0,1,1.906,1.906Z" transform="translate(-240.99)" fill="#4278c3"/>
    <path id="Path_1373" data-name="Path 1373" d="M175.4,55.34V104.6a1.906,1.906,0,0,1-1.906,1.906H119.516a1.906,1.906,0,0,1-1.906-1.906V55.34Z" transform="translate(-82.232 -42.955)" fill="#eaf6ff"/>
    <path id="Path_1374" data-name="Path 1374" d="M332.579,55.34V104.6a1.906,1.906,0,0,1-1.906,1.906H320.11a5.091,5.091,0,0,0,5.089-5.091V55.34Z" transform="translate(-239.414 -42.955)" fill="#c8effe"/>
    <path id="Path_1375" data-name="Path 1375" d="M212.771,167.183v3.224a3.3,3.3,0,0,1-3.3,3.3H187.133a3.3,3.3,0,0,1-3.3-3.3v-3.224a3.3,3.3,0,0,1,3.3-3.306h22.335A3.3,3.3,0,0,1,212.771,167.183Z" transform="translate(-133.632 -127.203)" fill="#ffd064"/>
    <path id="Path_1376" data-name="Path 1376" d="M281.644,167.185v3.225a3.305,3.305,0,0,1-3.3,3.3h-5.78a3.307,3.307,0,0,0,3.305-3.3v-3.225a3.306,3.306,0,0,0-3.305-3.305h5.78A3.3,3.3,0,0,1,281.644,167.185Z" transform="translate(-202.506 -127.205)" fill="#ffc250"/>
    <path id="Path_1377" data-name="Path 1377" d="M184.034,179.613l-2.071-7.977a4.351,4.351,0,0,0-4.212-3.258h-.069a4.353,4.353,0,0,0-4.2,3.209c0,.007-.005.013-.007.02s-.008.035-.012.053c-.013.051-.024.1-.035.153-.008.036-.015.071-.022.107-.01.053-.019.107-.026.161-.005.035-.011.069-.015.1-.007.059-.013.119-.018.179,0,.03-.006.06-.008.09-.006.089-.009.179-.009.27v-1.65a4.323,4.323,0,0,0-.611-2.215,4.369,4.369,0,0,0-.638-.834l-.026-.028a4.336,4.336,0,0,0-3.076-1.274h-.686a4.349,4.349,0,0,0-4.35,4.35v-2.543a4.364,4.364,0,0,0-4.352-4.352h-.685a4.347,4.347,0,0,0-4.338,4.118c0,.078-.012.155-.012.234v1.845h0c0-.109-.005-.217-.013-.324V148.807a4.346,4.346,0,0,0-8.692,0v31.33a4.347,4.347,0,0,0-8.665-.5l-2.207,19.107a11.55,11.55,0,0,0,1.652,7.4q.184.3.387.585a11.908,11.908,0,0,0,1.9,2.095l5.966,5.136.964.83v6.864a1.7,1.7,0,0,0,1.7,1.7h29.915a1.7,1.7,0,0,0,1.7-1.7V214.8l4.692-16.711A35.419,35.419,0,0,0,184.034,179.613Z" transform="translate(-95.654 -112.132)" fill="#ffcebf"/>
    <path id="Path_1378" data-name="Path 1378" d="M312.39,281.036,307.7,297.748v6.863a1.7,1.7,0,0,1-1.7,1.7h-5.5a2.925,2.925,0,0,0,1.7-2.658v-5.9l4.693-16.713a35.415,35.415,0,0,0,.183-18.469l-2.072-7.978a4.333,4.333,0,0,0-1.5-2.307l.009-.007a4.323,4.323,0,0,1,2.706-.944h.067a4.353,4.353,0,0,1,4.214,3.258l2.07,7.978A35.415,35.415,0,0,1,312.39,281.036Z" transform="translate(-224.193 -195.085)" fill="#ffb09e"/>
    <path id="Path_1379" data-name="Path 1379" d="M159.472,288.923v11.111a1.413,1.413,0,0,1-2.486.922,7.845,7.845,0,0,1-1.875-5.2v-6.608a4,4,0,0,0-2.66-3.772,4.329,4.329,0,0,1,2.783-.918A4.423,4.423,0,0,1,159.472,288.923Z" transform="translate(-109.276 -220.8)" fill="#ffb09e"/>
    <path id="Path_1380" data-name="Path 1380" d="M168.764,92.4H157.695a1.092,1.092,0,0,1-1.092-1.092V85.826a1.092,1.092,0,0,1,1.092-1.092h11.069a1.092,1.092,0,0,1,1.092,1.092v5.482A1.091,1.091,0,0,1,168.764,92.4Z" transform="translate(-112.499 -65.771)" fill="#5986cb"/>
    <g id="Group_2381" data-name="Group 2381" transform="translate(52.861 4.596)">
      <path id="Path_1381" data-name="Path 1381" d="M216.873,23.893H197.41a1.678,1.678,0,1,1,0-3.357h19.463a1.678,1.678,0,1,1,0,3.357Z" transform="translate(-195.732 -20.536)" fill="#61a2f9"/>
    </g>
    <g id="Group_2382" data-name="Group 2382" transform="translate(98.206 22.877)">
      <path id="Path_1382" data-name="Path 1382" d="M410.006,105.584h-9.97a1.678,1.678,0,1,1,0-3.357h9.97a1.678,1.678,0,1,1,0,3.357Z" transform="translate(-398.357 -102.227)" fill="#62dbfb"/>
    </g>
    <g id="Group_2383" data-name="Group 2383" transform="translate(98.206 30.098)">
      <path id="Path_1383" data-name="Path 1383" d="M410.006,137.848h-9.97a1.678,1.678,0,1,1,0-3.357h9.97a1.678,1.678,0,1,1,0,3.357Z" transform="translate(-398.357 -134.491)" fill="#62dbfb"/>
    </g>
    <g id="Group_2384" data-name="Group 2384" transform="translate(16.765 22.877)">
      <path id="Path_1384" data-name="Path 1384" d="M46.088,105.584h-9.97a1.678,1.678,0,0,1,0-3.357h9.97a1.678,1.678,0,1,1,0,3.357Z" transform="translate(-34.439 -102.227)" fill="#62dbfb"/>
    </g>
    <g id="Group_2385" data-name="Group 2385" transform="translate(16.765 30.098)">
      <path id="Path_1385" data-name="Path 1385" d="M46.088,137.848h-9.97a1.678,1.678,0,1,1,0-3.357h9.97a1.678,1.678,0,1,1,0,3.357Z" transform="translate(-34.439 -134.491)" fill="#62dbfb"/>
    </g>
    <g id="Group_2386" data-name="Group 2386" transform="translate(64.02 21.117)">
      <path id="Path_1386" data-name="Path 1386" d="M265.079,97.718H247.273a1.678,1.678,0,0,1,0-3.357h17.806a1.678,1.678,0,0,1,0,3.357Z" transform="translate(-245.595 -94.361)" fill="#61a2f9"/>
    </g>
  </g>
</svg>
