<svg xmlns="http://www.w3.org/2000/svg" width="24.581" height="24.614" viewBox="0 0 24.581 24.614">
  <g id="question-mark" transform="translate(-0.301 0)">
    <path id="Path_1422" data-name="Path 1422" d="M22.2,22.947c-3.766,3.075-15.527,3.075-19.216,0C-.783,19.872-.4,6.728,2.984,3.269S18.818-.19,22.2,3.269,25.966,19.872,22.2,22.947Z" transform="translate(0 -0.638)" fill="#00a4fd"/>
    <path id="Path_1423" data-name="Path 1423" d="M12.866,16.928A18,18,0,0,1,2.182,21.079c-2.613-4.458-2.075-15.3,1-18.447C5.948-.213,14.634-.751,19.63,1.017,20.86,6.09,18.323,12.547,12.866,16.928Z" transform="translate(-0.197 0)" fill="#00a4fd"/>
    <path id="Path_1424" data-name="Path 1424" d="M145.994,95.145h-3.305V93.531a2.628,2.628,0,0,1,.231-1.307,5.288,5.288,0,0,1,1-1.23l1.46-1.537a1.417,1.417,0,0,0,.307-1,1.18,1.18,0,0,0-.384-1,1.035,1.035,0,0,0-.922-.384,1.1,1.1,0,0,0-.922.461A2.905,2.905,0,0,0,143,88.842h-3.459a4.891,4.891,0,0,1,1.614-3.382,5.43,5.43,0,0,1,6.687-.154,3.944,3.944,0,0,1,1.307,3.075,2.835,2.835,0,0,1-.231,1.307l-.307.615c-.077.154-.231.307-.384.538l-.461.461-1,1a2.413,2.413,0,0,0-.615.769,2.373,2.373,0,0,0-.154.845v1.23Zm-3.536,2.767a1.922,1.922,0,1,1,1.922,1.922A1.9,1.9,0,0,1,142.458,97.912Z" transform="translate(-131.711 -79.677)" fill="#fff"/>
  </g>
</svg>
