<svg xmlns="http://www.w3.org/2000/svg" width="101.074" height="160.211" viewBox="0 0 101.074 160.211">
  <g id="Group_2159" data-name="Group 2159" transform="translate(-108.755 -70.57)">
    <g id="Screen" transform="translate(145.912 70.57)">
      <g id="Group_2146" data-name="Group 2146">
        <rect id="Rectangle_395" data-name="Rectangle 395" width="2.936" height="0.472" transform="translate(22.48)" fill="#407bff"/>
        <rect id="Rectangle_396" data-name="Rectangle 396" width="7.896" height="0.472" transform="translate(63.09 26.627) rotate(-87.421)" fill="#407bff"/>
        <path id="Path_853" data-name="Path 853" d="M255.922,75.194H201.679l-5.05,112.956h54.243Z" transform="translate(-193.391 -73.068)" fill="#407bff"/>
        <path id="Path_854" data-name="Path 854" d="M252.4,78.566H198.156l-5.049,112.956H247.35Z" transform="translate(-191.488 -74.89)" fill="#fafafa" opacity="0.56"/>
        <path id="Path_855" data-name="Path 855" d="M248.877,81.938H194.634l-5.049,112.956h54.243Z" transform="translate(-189.584 -76.712)" fill="#407bff" opacity="0.07"/>
        <path id="Path_856" data-name="Path 856" d="M250.264,189.106h-46.3l-.387,8.645h46.3Z" transform="translate(-197.145 -134.615)" fill="#fff"/>
        <path id="Path_857" data-name="Path 857" d="M230.012,175.39H204.829l-.173,3.868h25.183Z" transform="translate(-197.727 -127.205)" fill="#3063a4"/>
        <path id="Path_858" data-name="Path 858" d="M248,239.849H201.7l-.386,8.645h46.3Z" transform="translate(-195.92 -162.032)" fill="#fff"/>
        <path id="Path_859" data-name="Path 859" d="M247.259,284.036H216.125l-.463,10.361H246.8Z" transform="translate(-203.674 -185.907)" fill="#3063a4" opacity="0.47"/>
        <path id="Path_860" data-name="Path 860" d="M243.21,297.759H212.075a.057.057,0,0,1-.04-.017.054.054,0,0,1-.015-.04l.463-10.361a.055.055,0,0,1,.054-.053h31.134a.055.055,0,0,1,.04.017.052.052,0,0,1,.015.04l-.463,10.361A.055.055,0,0,1,243.21,297.759Zm-31.077-.11h31.025l.458-10.252H212.59Z" transform="translate(-201.707 -187.664)" fill="#fff"/>
        <path id="Path_861" data-name="Path 861" d="M223.345,226.134H202.56L202.387,230h20.785Z" transform="translate(-196.502 -154.622)" fill="#3063a4"/>
        <path id="Path_862" data-name="Path 862" d="M255.414,114.537a12.17,12.17,0,0,1-2.558,6.92,12.364,12.364,0,0,1-9.745,4.856,11.17,11.17,0,0,1-11.245-11.776,12.434,12.434,0,0,1,12.3-11.777A11.164,11.164,0,0,1,255.414,114.537Z" transform="translate(-212.422 -87.962)" fill="#fff"/>
        <path id="Path_863" data-name="Path 863" d="M278.157,104.445a3.235,3.235,0,0,1-.679,1.839,3.286,3.286,0,0,1-2.589,1.29,2.968,2.968,0,0,1-2.988-3.129,3.3,3.3,0,0,1,3.268-3.129A2.966,2.966,0,0,1,278.157,104.445Z" transform="translate(-234.058 -87.182)" fill="#3063a4"/>
        <path id="Path_864" data-name="Path 864" d="M212.007,196.881a1.463,1.463,0,0,1-1.447,1.385,1.313,1.313,0,0,1-1.323-1.385,1.463,1.463,0,0,1,1.447-1.385A1.313,1.313,0,0,1,212.007,196.881Z" transform="translate(-200.202 -138.068)" fill="#263238"/>
        <path id="Path_865" data-name="Path 865" d="M225.494,196.881a1.462,1.462,0,0,1-1.447,1.385,1.313,1.313,0,0,1-1.323-1.385,1.462,1.462,0,0,1,1.447-1.385A1.313,1.313,0,0,1,225.494,196.881Z" transform="translate(-207.489 -138.068)" fill="#263238"/>
        <path id="Path_866" data-name="Path 866" d="M238.982,196.881a1.463,1.463,0,0,1-1.447,1.385,1.313,1.313,0,0,1-1.323-1.385,1.463,1.463,0,0,1,1.447-1.385A1.313,1.313,0,0,1,238.982,196.881Z" transform="translate(-214.776 -138.068)" fill="#263238"/>
        <path id="Path_867" data-name="Path 867" d="M209.739,247.624a1.463,1.463,0,0,1-1.447,1.386,1.313,1.313,0,0,1-1.323-1.386,1.463,1.463,0,0,1,1.447-1.385A1.313,1.313,0,0,1,209.739,247.624Z" transform="translate(-198.976 -165.485)" fill="#263238"/>
        <path id="Path_868" data-name="Path 868" d="M223.226,247.624a1.463,1.463,0,0,1-1.447,1.386,1.313,1.313,0,0,1-1.323-1.386,1.463,1.463,0,0,1,1.447-1.385A1.313,1.313,0,0,1,223.226,247.624Z" transform="translate(-206.263 -165.485)" fill="#263238"/>
        <path id="Path_869" data-name="Path 869" d="M236.713,247.624a1.463,1.463,0,0,1-1.447,1.386,1.313,1.313,0,0,1-1.323-1.386,1.463,1.463,0,0,1,1.448-1.385A1.313,1.313,0,0,1,236.713,247.624Z" transform="translate(-213.551 -165.485)" fill="#263238"/>
        <path id="Path_870" data-name="Path 870" d="M250.2,247.624a1.463,1.463,0,0,1-1.448,1.386,1.313,1.313,0,0,1-1.323-1.386,1.463,1.463,0,0,1,1.447-1.385A1.313,1.313,0,0,1,250.2,247.624Z" transform="translate(-220.838 -165.485)" fill="#263238"/>
        <path id="Path_871" data-name="Path 871" d="M263.688,247.624a1.463,1.463,0,0,1-1.447,1.386,1.313,1.313,0,0,1-1.323-1.386,1.463,1.463,0,0,1,1.447-1.385A1.313,1.313,0,0,1,263.688,247.624Z" transform="translate(-228.125 -165.485)" fill="#263238"/>
        <g id="Group_2145" data-name="Group 2145" transform="translate(21.382 15.903)">
          <ellipse id="Ellipse_10" data-name="Ellipse 10" cx="4.871" cy="4.658" rx="4.871" ry="4.658" transform="matrix(0.715, -0.699, 0.699, 0.715, 3.272, 6.81)" fill="#407bff"/>
          <path id="Path_872" data-name="Path 872" d="M255.149,139.119a12.364,12.364,0,0,1-9.745,4.856,11.169,11.169,0,0,1-9.307-4.856,13.829,13.829,0,0,1,9.688-3.67A12.681,12.681,0,0,1,255.149,139.119Z" transform="translate(-236.097 -121.527)" fill="#407bff"/>
          <ellipse id="Ellipse_11" data-name="Ellipse 11" cx="4.871" cy="4.658" rx="4.871" ry="4.658" transform="matrix(0.715, -0.699, 0.699, 0.715, 3.272, 6.81)" fill="#3063a4"/>
          <path id="Path_873" data-name="Path 873" d="M255.149,139.119a12.364,12.364,0,0,1-9.745,4.856,11.169,11.169,0,0,1-9.307-4.856,13.829,13.829,0,0,1,9.688-3.67A12.681,12.681,0,0,1,255.149,139.119Z" transform="translate(-236.097 -121.527)" fill="#3063a4"/>
        </g>
      </g>
    </g>
    <g id="Character_1" data-name="Character 1" transform="translate(108.755 110.698)">
      <g id="Group_2158" data-name="Group 2158" transform="translate(0 0)">
        <g id="Group_2153" data-name="Group 2153" transform="translate(2.438)">
          <path id="Path_874" data-name="Path 874" d="M121.574,210.528c-.435.955-.893,2.005-1.3,3.03s-.81,2.07-1.163,3.119a39.425,39.425,0,0,0-1.643,6.344l-.1.677a1.032,1.032,0,0,0,.034.342,3.524,3.524,0,0,0,.505,1.066,13.379,13.379,0,0,0,2.042,2.29,31.172,31.172,0,0,0,2.538,2.122c.882.679,1.813,1.343,2.723,1.965l-.856,1.614a32.609,32.609,0,0,1-6.2-3.535,14.81,14.81,0,0,1-2.777-2.61,6.528,6.528,0,0,1-1.1-1.964,4.4,4.4,0,0,1-.222-1.354c0-.114.009-.273.017-.349l.023-.228.046-.456a35.773,35.773,0,0,1,1.5-7.051c.359-1.135.741-2.258,1.178-3.36s.886-2.174,1.443-3.29Z" transform="translate(-114.058 -185.438)" fill="#e58a7b"/>
          <path id="Path_875" data-name="Path 875" d="M135.9,255.5l3.248-1.648-.839,3.57s-2.23.623-3.268-.46Z" transform="translate(-125.398 -209.724)" fill="#e58a7b"/>
          <path id="Path_876" data-name="Path 876" d="M145.968,254.433l-.864,2.951-2.95.033.839-3.57Z" transform="translate(-129.239 -209.724)" fill="#e58a7b"/>
          <path id="Path_877" data-name="Path 877" d="M160.432,175a9.17,9.17,0,0,0,.729,1.818.745.745,0,0,1-.729.234Z" transform="translate(-139.114 -167.123)" fill="#df5753"/>
          <ellipse id="Ellipse_12" data-name="Ellipse 12" cx="0.344" cy="0.527" rx="0.344" ry="0.527" transform="translate(20.878 6.852)" fill="#263238"/>
          <path id="Path_878" data-name="Path 878" d="M160.04,172.566l.7-.2S160.38,172.911,160.04,172.566Z" transform="translate(-138.902 -165.699)" fill="#263238"/>
          <path id="Path_879" data-name="Path 879" d="M140.122,182.336c.419,2.14.838,6.061-.659,7.489,0,0,.585,2.171,4.562,2.171,4.373,0,2.09-2.171,2.09-2.171-2.387-.57-2.325-2.34-1.909-4Z" transform="translate(-127.784 -171.086)" fill="#e58a7b"/>
          <path id="Path_880" data-name="Path 880" d="M138.361,165.574c.219,3.573.236,5.089,2.04,6.923,2.714,2.758,7.054,1.707,7.907-1.859.767-3.21.279-8.513-3.217-9.935A4.882,4.882,0,0,0,138.361,165.574Z" transform="translate(-127.184 -159.195)" fill="#e58a7b"/>
          <path id="Path_881" data-name="Path 881" d="M134.7,162.752c-1.791.653-4.181.167-3.244,5.7.993,5.855-.536,7.781-.536,7.781a36.494,36.494,0,0,0,13.741-.086s-2.119-3.707-1.525-6.41c.758-3.449.158-4.724.158-4.724S137.216,161.834,134.7,162.752Z" transform="translate(-123.168 -160.415)" fill="#263238"/>
          <path id="Path_882" data-name="Path 882" d="M155.64,174.618a3.6,3.6,0,0,0,.563,1.916c.485.745,1.059.442,1.2-.332a2.748,2.748,0,0,0-.587-2.4C156.208,173.336,155.649,173.809,155.64,174.618Z" transform="translate(-136.525 -166.376)" fill="#e58a7b"/>
          <path id="Path_883" data-name="Path 883" d="M135.675,160.826c-.517-1.446,1.939-3.669,7.133-2.745s5.422,5.245,5.422,5.245l-1.051-1.247.047,1.313-5.337,1.026Z" transform="translate(-125.701 -157.863)" fill="#263238"/>
          <g id="Group_2147" data-name="Group 2147" transform="translate(10.403 17.433)">
            <path id="Path_884" data-name="Path 884" d="M136.7,197.335h0a.809.809,0,0,1,.667-.93,31.774,31.774,0,0,1,7.143-.552c1.374.19,1.738.993,1.8,1.649a.811.811,0,0,1-.848.875l-7.994-.361A.812.812,0,0,1,136.7,197.335Z" transform="translate(-136.689 -195.786)" fill="#407bff"/>
            <path id="Path_885" data-name="Path 885" d="M136.7,197.335h0a.809.809,0,0,1,.667-.93,31.774,31.774,0,0,1,7.143-.552c1.374.19,1.738.993,1.8,1.649a.811.811,0,0,1-.848.875l-7.994-.361A.812.812,0,0,1,136.7,197.335Z" transform="translate(-136.689 -195.786)" fill="#3063a4"/>
          </g>
          <path id="Path_886" data-name="Path 886" d="M146.76,365.959l2.963,2.057,4.961-6.723-2.962-2.057Z" transform="translate(-131.727 -266.666)" fill="#e58a7b"/>
          <path id="Path_887" data-name="Path 887" d="M131.715,365.209l3.134,1.785,4.391-7.111-3.134-1.785Z" transform="translate(-123.598 -266.051)" fill="#e58a7b"/>
          <g id="Group_2148" data-name="Group 2148" transform="translate(10.241 92.048)">
            <path id="Path_888" data-name="Path 888" d="M157.5,361.295l-2.557,3.466-2.964-2.058,2.557-3.466Z" transform="translate(-144.791 -358.715)" fill="#cf6f64"/>
            <path id="Path_889" data-name="Path 889" d="M138.6,358.1l3.135,1.785-2.265,3.664-3.135-1.785Z" transform="translate(-136.336 -358.101)" fill="#cf6f64"/>
          </g>
          <g id="Group_2149" data-name="Group 2149" transform="translate(5.954 41.43)">
            <path id="Path_890" data-name="Path 890" d="M138.589,247.988s11.575,14.588,9.4,28.539c-1.754,11.268-11.912,26.526-11.912,26.526l-4.777-2.374a156.031,156.031,0,0,0,8.6-20.889,15.441,15.441,0,0,0-1.852-13.376c-5.863-8.564-15.257-3.469-8.938-18.426Z" transform="translate(-127.01 -247.988)" fill="#407bff"/>
            <path id="Path_891" data-name="Path 891" d="M138.589,247.988s11.575,14.588,9.4,28.539c-1.754,11.268-11.912,26.526-11.912,26.526l-4.777-2.374a156.031,156.031,0,0,0,8.6-20.889,15.441,15.441,0,0,0-1.852-13.376c-5.863-8.564-15.257-3.469-8.938-18.426Z" transform="translate(-127.01 -247.988)" fill="#3063a4"/>
          </g>
          <path id="Path_892" data-name="Path 892" d="M162.573,266.415l-1.682-1.672c0,.132,3.259,20.251,4.176,25.906a34.475,34.475,0,0,0,1.233-5.069C167.363,278.749,165.128,271.763,162.573,266.415Z" transform="translate(-139.362 -215.611)" fill="#3063a4"/>
          <g id="Group_2150" data-name="Group 2150" transform="translate(9.144 41.43)">
            <path id="Path_893" data-name="Path 893" d="M147.508,247.988s13.937,18.333,14.33,29.326c.328,9.212-15.182,27-15.182,27l-4.5-2.913s9.069-12.65,11.353-22.99c-.871-10.235-19.556-30.429-19.556-30.429Z" transform="translate(-133.949 -247.988)" fill="#407bff"/>
            <path id="Path_894" data-name="Path 894" d="M147.508,247.988s13.937,18.333,14.33,29.326c.328,9.212-15.182,27-15.182,27l-4.5-2.913s9.069-12.65,11.353-22.99c-.871-10.235-19.556-30.429-19.556-30.429Z" transform="translate(-133.949 -247.988)" fill="#3063a4"/>
          </g>
          <path id="Path_895" data-name="Path 895" d="M122.5,200.336c-1.493.352-2.919,5.771-2.919,5.771l5.821,3.886s1.94-4.283,1.263-6.159C125.961,201.88,124.387,199.892,122.5,200.336Z" transform="translate(-117.043 -180.778)" fill="#00a4fd"/>
          <path id="Path_896" data-name="Path 896" d="M127.933,207.994l-.406,4.721,2.167,1.45a19.4,19.4,0,0,0,1.318-4.2Z" transform="translate(-121.335 -184.949)" opacity="0.2"/>
          <path id="Path_897" data-name="Path 897" d="M144.9,199.41s1.718.605-1.723,21.767H128.529c.246-5.961.253-9.637-2.6-21.871a43.262,43.262,0,0,1,6.22-.82,46.633,46.633,0,0,1,6.651,0C141.661,198.747,144.9,199.41,144.9,199.41Z" transform="translate(-120.474 -179.747)" fill="#00a4fd"/>
          <path id="Path_898" data-name="Path 898" d="M166.309,206.2c.332.917.683,1.909,1.049,2.862q.525,1.45,1.09,2.892l1.127,2.888.285.721.143.361.072.18c.012.033.01.03.006.026a1.01,1.01,0,0,0-.322-.287,1.282,1.282,0,0,0-.6-.175,1.187,1.187,0,0,0-.511.092c-.207.1-.211.142-.206.135a.6.6,0,0,0,.1-.1,6.575,6.575,0,0,0,.657-1.071c.217-.422.423-.872.627-1.329.407-.916.777-1.872,1.153-2.83s.723-1.935,1.071-2.912l1.047-2.934,1.771.447c-.351,2.1-.8,4.154-1.344,6.216-.264,1.033-.569,2.059-.918,3.093-.174.518-.369,1.035-.592,1.562a9.6,9.6,0,0,1-.874,1.663,4.082,4.082,0,0,1-.4.5,2.563,2.563,0,0,1-.838.592,2.075,2.075,0,0,1-.892.167,2.051,2.051,0,0,1-.97-.292,2.431,2.431,0,0,1-.836-.868c-.07-.116-.13-.237-.171-.324l-.087-.178-.174-.357-.348-.714c-.454-.957-.9-1.918-1.321-2.891s-.824-1.955-1.219-2.943c-.378-1-.751-1.974-1.083-3.04Z" transform="translate(-140.395 -183.179)" fill="#e58a7b"/>
          <path id="Path_899" data-name="Path 899" d="M162.151,200.475c1.761.42,3.739,5.621,3.739,5.621l-5.232,4.459s-3.391-5.672-2.7-7.545C158.667,201.059,159.851,199.927,162.151,200.475Z" transform="translate(-137.725 -180.812)" fill="#00a4fd"/>
          <path id="Path_900" data-name="Path 900" d="M185.971,199.384l1.836-1.536,1.277,1.99-.941,1.662s-1.5,1.372-2.826.674h0A2.385,2.385,0,0,1,185.971,199.384Z" transform="translate(-152.451 -179.467)" fill="#e58a7b"/>
          <path id="Path_901" data-name="Path 901" d="M194.3,197.853l-.137.5-2.909.489-.287-.994Z" transform="translate(-155.614 -179.467)" fill="#e58a7b"/>
          <path id="Path_902" data-name="Path 902" d="M156.232,365.141l-5.249-3.4.94-1.634,5.9,3.626Z" transform="translate(-134.009 -267.139)" fill="#407bff"/>
          <path id="Path_903" data-name="Path 903" d="M141.4,375.929a3.147,3.147,0,0,1-1.3-.45.085.085,0,0,1-.043-.083.086.086,0,0,1,.059-.073c.142-.045,1.387-.426,1.74-.13a.291.291,0,0,1,.1.277.483.483,0,0,1-.259.4A.65.65,0,0,1,141.4,375.929Zm-1.034-.5c.571.291,1.031.4,1.252.288a.321.321,0,0,0,.167-.268.121.121,0,0,0-.039-.123C141.565,375.168,140.874,375.289,140.37,375.428Z" transform="translate(-128.108 -275.227)" fill="#263238"/>
          <path id="Path_904" data-name="Path 904" d="M140.146,374.3a.085.085,0,0,1-.082-.108c.012-.042.3-1.041.771-1.268a.445.445,0,0,1,.379-.011.3.3,0,0,1,.211.308c-.032.413-.874.984-1.259,1.078Zm.891-1.254a.3.3,0,0,0-.128.031c-.281.136-.518.674-.63,1,.4-.171.957-.621.976-.873,0-.041-.006-.094-.108-.137A.28.28,0,0,0,141.037,373.042Z" transform="translate(-128.108 -274.033)" fill="#263238"/>
          <path id="Path_905" data-name="Path 905" d="M155.319,379.814c-.518,0-1.239-.665-1.634-1.074a.086.086,0,0,1-.015-.1.093.093,0,0,1,.087-.047c.182.024,1.781.24,2.007.691a.277.277,0,0,1-.011.269.474.474,0,0,1-.364.254A.579.579,0,0,1,155.319,379.814Zm-1.332-1.012c.581.565,1.089.877,1.38.838a.308.308,0,0,0,.237-.169.105.105,0,0,0,.006-.108C155.488,379.117,154.634,378.906,153.987,378.8Z" transform="translate(-135.455 -277.126)" fill="#263238"/>
          <path id="Path_906" data-name="Path 906" d="M154.038,377.842a1.738,1.738,0,0,1-.308-.023.086.086,0,0,1-.05-.138c.026-.032.648-.781,1.236-.833a.621.621,0,0,1,.473.149c.181.155.168.293.126.381C155.369,377.683,154.575,377.842,154.038,377.842Zm-.119-.172c.513.028,1.334-.142,1.442-.366.009-.019.036-.076-.083-.177a.448.448,0,0,0-.347-.108A1.975,1.975,0,0,0,153.919,377.67Z" transform="translate(-135.456 -276.18)" fill="#263238"/>
          <path id="Path_907" data-name="Path 907" d="M133.935,373.609l-3.9-1.1a.286.286,0,0,0-.344.159l-1.316,2.959a.58.58,0,0,0,.382.775c1.366.361,2.044.466,3.758.951,1.055.3,2.565.844,4.022,1.255,1.425.4,1.941-1.007,1.372-1.309a7.058,7.058,0,0,1-3.455-3.31A.941.941,0,0,0,133.935,373.609Z" transform="translate(-121.77 -273.83)"/>
          <path id="Path_908" data-name="Path 908" d="M146.828,374.964l-3.328-2.311a.285.285,0,0,0-.377.039l-2.207,2.37a.579.579,0,0,0,.109.856c1.174.786,1.78,1.106,3.244,2.122.9.625,2.7,2.012,3.941,2.875,1.216.844,2.163-.32,1.723-.791a9.777,9.777,0,0,1-2.737-4.634A.943.943,0,0,0,146.828,374.964Z" transform="translate(-128.492 -273.886)"/>
          <path id="Path_909" data-name="Path 909" d="M141.02,363.021l-6-2.983.621-1.624,6.406,3.14Z" transform="translate(-125.383 -266.222)" fill="#407bff"/>
          <g id="Group_2151" data-name="Group 2151" transform="translate(7.316 40.46)">
            <path id="Path_910" data-name="Path 910" d="M130.493,245.989l-.508,1.311c-.051.1.069.205.239.205h15.209c.132,0,.241-.064.25-.148l.132-1.311c.009-.091-.105-.168-.25-.168H130.732A.267.267,0,0,0,130.493,245.989Z" transform="translate(-129.973 -245.879)" fill="#407bff"/>
            <path id="Path_911" data-name="Path 911" d="M130.493,245.989l-.508,1.311c-.051.1.069.205.239.205h15.209c.132,0,.241-.064.25-.148l.132-1.311c.009-.091-.105-.168-.25-.168H130.732A.267.267,0,0,0,130.493,245.989Z" transform="translate(-129.973 -245.879)" fill="#fff" opacity="0.4"/>
          </g>
          <g id="Group_2152" data-name="Group 2152" transform="translate(9.696 40.344)">
            <path id="Path_912" data-name="Path 912" d="M135.683,247.511h-.4c-.079,0-.139-.04-.134-.091l.186-1.7c.006-.05.075-.091.154-.091h.4c.079,0,.139.041.134.091l-.186,1.7C135.831,247.47,135.762,247.511,135.683,247.511Z" transform="translate(-135.151 -245.626)" fill="#407bff"/>
            <path id="Path_913" data-name="Path 913" d="M156.089,247.511h-.4c-.079,0-.139-.04-.134-.091l.187-1.7c.006-.05.074-.091.154-.091h.4c.079,0,.14.041.134.091l-.187,1.7C156.238,247.47,156.168,247.511,156.089,247.511Z" transform="translate(-146.177 -245.626)" fill="#407bff"/>
          </g>
        </g>
        <g id="Group_2157" data-name="Group 2157" transform="translate(0 53.531)">
          <g id="Group_2154" data-name="Group 2154" transform="translate(0 4.575)">
            <ellipse id="Ellipse_13" data-name="Ellipse 13" cx="12.316" cy="0.894" rx="12.316" ry="0.894" transform="translate(0 60.188)" fill="#f5f5f5" style="mix-blend-mode: multiply;isolation: isolate"/>
            <path id="Path_914" data-name="Path 914" d="M133.7,344.088a30.005,30.005,0,0,1-6.061-2.315c-.041-.024-.085-.041-.127-.063V331.86h4.383a1.312,1.312,0,1,0,0-2.624h-4.383V284.267h-2.624v44.969H120.5a1.312,1.312,0,1,0,0,2.624h4.383v9.851c-.042.022-.086.039-.127.063a30.006,30.006,0,0,1-6.061,2.315.643.643,0,0,0,.18,1.26h14.64A.643.643,0,0,0,133.7,344.088Z" transform="translate(-113.876 -284.267)" fill="#e0e0e0"/>
          </g>
          <g id="Group_2156" data-name="Group 2156" transform="translate(1.765)">
            <rect id="Rectangle_397" data-name="Rectangle 397" width="21.111" height="9.623" rx="4.811" fill="#292929"/>
            <g id="Group_2155" data-name="Group 2155" transform="translate(2.231 9.623)">
              <path id="Path_915" data-name="Path 915" d="M117.448,295.247v.837c0,.69.75,1.254,1.668,1.254H132.43c.917,0,1.668-.564,1.668-1.254v-.837Z" transform="translate(-117.448 -295.247)" fill="#3063a4"/>
              <path id="Path_916" data-name="Path 916" d="M117.448,295.247v.837c0,.69.75,1.254,1.668,1.254H132.43c.917,0,1.668-.564,1.668-1.254v-.837Z" transform="translate(-117.448 -295.247)" fill="#3063a4" opacity="0.3"/>
            </g>
          </g>
        </g>
      </g>
    </g>
  </g>
</svg>
