<svg xmlns="http://www.w3.org/2000/svg" width="20.875" height="20.875" viewBox="0 0 20.875 20.875">
  <g id="settings" transform="translate(0 0)">
    <path id="Path_1429" data-name="Path 1429" d="M19.658,11.763l1.217-.191V9.3l-1.217-.191a1.231,1.231,0,0,1-.57-2.138l.918-.756-1.13-1.956-1.124.421a1.223,1.223,0,0,1-1.56-1.56L16.614,2,14.658.869l-.756.918a1.231,1.231,0,0,1-2.138-.57L11.572,0H9.3L9.112,1.217a1.231,1.231,0,0,1-2.138.57L6.217.869,4.261,2l.421,1.124a1.223,1.223,0,0,1-1.56,1.56L2,4.261.869,6.217l.918.756a1.231,1.231,0,0,1-.57,2.138L0,9.3v2.269l1.217.191a1.231,1.231,0,0,1,.57,2.138l-.918.756L2,16.614l1.124-.421a1.223,1.223,0,0,1,1.56,1.56l-.421,1.124,1.956,1.13.756-.918a1.231,1.231,0,0,1,2.138.57L9.3,20.875h2.269l.191-1.217a1.231,1.231,0,0,1,2.138-.57l.756.918,1.956-1.13-.421-1.124a1.223,1.223,0,0,1,1.56-1.56l1.124.421,1.13-1.956-.918-.756A1.231,1.231,0,0,1,19.658,11.763Zm-9.221,3.771a5.1,5.1,0,1,1,5.1-5.1A5.1,5.1,0,0,1,10.438,15.534Z" transform="translate(0 0)" fill="#3063a4"/>
    <path id="Path_1430" data-name="Path 1430" d="M264.651,13.9l.918.756-1.13,1.956-1.124-.421a1.223,1.223,0,0,0-1.56,1.56l.421,1.124-1.956,1.13-.756-.918a1.231,1.231,0,0,0-2.138.57l-.191,1.217H256V15.534a5.1,5.1,0,0,0,0-10.193V0h1.135l.191,1.217a1.231,1.231,0,0,0,2.138.57l.756-.918L262.177,2l-.421,1.124a1.223,1.223,0,0,0,1.56,1.56l1.124-.421,1.13,1.956-.918.756a1.231,1.231,0,0,0,.57,2.138l1.217.191v2.269l-1.217.191a1.231,1.231,0,0,0-.57,2.138Z" transform="translate(-245.563)" fill="#3063a4"/>
    <path id="Path_1431" data-name="Path 1431" d="M126.5,121a5.5,5.5,0,1,0,5.5,5.5A5.51,5.51,0,0,0,126.5,121Zm0,8.562a3.058,3.058,0,1,1,3.058-3.058A3.061,3.061,0,0,1,126.5,129.562Z" transform="translate(-116.067 -116.067)" fill="#00a4fd"/>
    <path id="Path_1432" data-name="Path 1432" d="M261.5,126.5a5.51,5.51,0,0,1-5.5,5.5v-2.446a3.058,3.058,0,0,0,0-6.116V121A5.51,5.51,0,0,1,261.5,126.5Z" transform="translate(-245.562 -116.067)" fill="#00a4fd"/>
  </g>
</svg>
