<svg xmlns="http://www.w3.org/2000/svg" width="115.529" height="110.578" viewBox="0 0 115.529 110.578">
  <g id="star" transform="translate(0 -10.971)">
    <path id="Path_1443" data-name="Path 1443" d="M140.519,47.788l-30.178-2.8L98.353,17.153a2.418,2.418,0,0,0-4.442,0L81.924,44.989l-30.178,2.8a2.418,2.418,0,0,0-1.373,4.225l22.769,20-6.663,29.566a2.418,2.418,0,0,0,3.594,2.611l26.06-15.474,26.06,15.474a2.418,2.418,0,0,0,3.594-2.611l-6.664-29.566,22.77-20A2.418,2.418,0,0,0,140.519,47.788Z" transform="translate(-38.367 -3.655)" fill="#ffc107"/>
    <g id="Group_2401" data-name="Group 2401" transform="translate(0 10.971)">
      <path id="Path_1444" data-name="Path 1444" d="M95.824,12.54c1.538,2.137,5.881,11.314,8.363,16.662a.839.839,0,0,1-1.338.963C98.565,26.114,91.24,19.085,89.7,16.948a3.772,3.772,0,1,1,6.123-4.408Z" transform="translate(-68.91 -10.971)" fill="#ffc107"/>
      <path id="Path_1445" data-name="Path 1445" d="M363.732,12.54c-1.538,2.137-5.881,11.314-8.363,16.662a.839.839,0,0,0,1.338.963c4.284-4.051,11.61-11.08,13.148-13.217a3.772,3.772,0,0,0-6.123-4.408Z" transform="translate(-275.117 -10.971)" fill="#ffc107"/>
      <path id="Path_1446" data-name="Path 1446" d="M434.009,285.633c-2.5-.816-12.566-2.165-18.415-2.905a.839.839,0,0,0-.511,1.568c5.161,2.851,14.084,7.694,16.587,8.511a3.772,3.772,0,0,0,2.339-7.173Z" transform="translate(-321.084 -221.402)" fill="#ffc107"/>
      <path id="Path_1447" data-name="Path 1447" d="M2.6,285.633c2.5-.816,12.566-2.165,18.415-2.905a.839.839,0,0,1,.511,1.568c-5.161,2.851-14.084,7.694-16.587,8.511A3.772,3.772,0,0,1,2.6,285.633Z" transform="translate(0 -221.402)" fill="#ffc107"/>
      <path id="Path_1448" data-name="Path 1448" d="M239.794,418.794c0-2.633,1.838-12.618,2.948-18.408a.839.839,0,0,1,1.649,0c1.11,5.791,2.948,15.775,2.948,18.408a3.772,3.772,0,0,1-7.545,0Z" transform="translate(-185.686 -311.988)" fill="#ffc107"/>
    </g>
    <path id="Path_1449" data-name="Path 1449" d="M102.712,27.276,98.353,17.153a2.418,2.418,0,0,0-4.442,0L81.924,44.989l-30.178,2.8a2.418,2.418,0,0,0-1.373,4.225l22.769,20-6.663,29.566a2.418,2.418,0,0,0,3.594,2.611l3.468-2.059A187.737,187.737,0,0,1,102.712,27.276Z" transform="translate(-38.367 -3.655)" fill="#ffc107"/>
  </g>
</svg>
