<svg xmlns="http://www.w3.org/2000/svg" width="206.155" height="104.496" viewBox="0 0 206.155 104.496">
  <g id="star" transform="translate(0)">
    <path id="Path_1443" data-name="Path 1443" d="M135.068,45.865,106.7,43.234,95.429,17.066a2.273,2.273,0,0,0-4.176,0L79.984,43.234l-28.37,2.631a2.273,2.273,0,0,0-1.291,3.972l21.4,18.8L65.465,96.435a2.273,2.273,0,0,0,3.379,2.455l24.5-14.547,24.5,14.547a2.273,2.273,0,0,0,3.378-2.455l-6.264-27.794,21.405-18.8A2.273,2.273,0,0,0,135.068,45.865Z" transform="translate(-39.038 -14.69)" fill="#ffc107"/>
    <path id="Path_1458" data-name="Path 1458" d="M135.068,45.865,106.7,43.234,95.429,17.066a2.273,2.273,0,0,0-4.176,0L79.984,43.234l-28.37,2.631a2.273,2.273,0,0,0-1.291,3.972l21.4,18.8L65.465,96.435a2.273,2.273,0,0,0,3.379,2.455l24.5-14.547,24.5,14.547a2.273,2.273,0,0,0,3.378-2.455l-6.264-27.794,21.405-18.8A2.273,2.273,0,0,0,135.068,45.865Z" transform="translate(52.399 -14.69)" fill="#ffc107"/>
    <g id="Group_2401" data-name="Group 2401" transform="translate(0 0)">
      <path id="Path_1444" data-name="Path 1444" d="M95.415,12.446c1.446,2.009,5.528,10.636,7.862,15.664a.789.789,0,0,1-1.258.906C97.992,25.207,91.1,18.6,89.659,16.59a3.546,3.546,0,1,1,5.756-4.144Z" transform="translate(-70.113 -10.971)" fill="#ffc107"/>
      <path id="Path_1461" data-name="Path 1461" d="M95.415,12.446c1.446,2.009,5.528,10.636,7.862,15.664a.789.789,0,0,1-1.258.906C97.992,25.207,91.1,18.6,89.659,16.59a3.546,3.546,0,1,1,5.756-4.144Z" transform="translate(22.35 -5.486)" fill="#ffc107"/>
      <path id="Path_1447" data-name="Path 1447" d="M2.448,285.458c2.353-.767,11.813-2.035,17.312-2.731a.789.789,0,0,1,.481,1.474c-4.852,2.68-13.24,7.233-15.593,8a3.546,3.546,0,0,1-2.2-6.743Z" transform="translate(0 -225.075)" fill="#ffc107"/>
    </g>
    <g id="Group_2408" data-name="Group 2408" transform="translate(139.617 102.159) rotate(-76)">
      <path id="Path_1447-2" data-name="Path 1447" d="M2.448,2.738C4.8,1.971,14.261.7,19.759.007a.789.789,0,0,1,.481,1.474C15.388,4.161,7,8.714,4.647,9.482a3.546,3.546,0,0,1-2.2-6.743Z" transform="translate(0)" fill="#ffc107"/>
    </g>
    <g id="Group_2409" data-name="Group 2409" transform="translate(75.747 1.001)">
      <path id="Path_1444-2" data-name="Path 1444" d="M96.931,12.446C95.485,14.455,91.4,23.082,89.069,28.11a.789.789,0,0,0,1.258.906c4.028-3.808,10.914-10.416,12.36-12.425a3.546,3.546,0,1,0-5.756-4.144Z" transform="translate(8.175 -10.971)" fill="#ffc107"/>
      <path id="Path_1462" data-name="Path 1462" d="M96.931,12.446C95.485,14.455,91.4,23.082,89.069,28.11a.789.789,0,0,0,1.258.906c4.028-3.808,10.914-10.416,12.36-12.425a3.546,3.546,0,1,0-5.756-4.144Z" transform="translate(-88.99 -10.971)" fill="#ffc107"/>
      <path id="Path_1447-3" data-name="Path 1447" d="M18.2,285.458c-2.353-.767-11.813-2.035-17.312-2.731A.789.789,0,0,0,.411,284.2c4.852,2.68,13.24,7.233,15.593,8a3.546,3.546,0,0,0,2.2-6.743Z" transform="translate(109.756 -225.075)" fill="#ffc107"/>
    </g>
    <path id="Path_1449" data-name="Path 1449" d="M99.527,26.582l-4.1-9.516a2.273,2.273,0,0,0-4.176,0L79.984,43.234,51.614,45.865a2.273,2.273,0,0,0-1.291,3.972l21.4,18.8L65.465,96.435a2.273,2.273,0,0,0,3.379,2.455L72.1,96.954A176.488,176.488,0,0,1,99.527,26.582Z" transform="translate(-39.038 -14.69)" fill="#ffc107"/>
  </g>
</svg>
