<svg xmlns="http://www.w3.org/2000/svg" width="176.483" height="117.673" viewBox="0 0 176.483 117.673">
  <g id="crown" transform="translate(0)">
    <path id="Path_1463" data-name="Path 1463" d="M14.683,100a14.709,14.709,0,0,1,14.709,14.709,14.551,14.551,0,0,1-.735,4.538l11.929,7.583a18.387,18.387,0,0,0,24.108-3.861l11.694-14.3a14.54,14.54,0,0,1-2.868-8.664,14.709,14.709,0,1,1,29.418,0,14.54,14.54,0,0,1-2.868,8.664l11.694,14.3a18.386,18.386,0,0,0,24.1,3.861l11.936-7.583a14.53,14.53,0,0,1-.735-4.538,14.709,14.709,0,1,1,16,14.65l-8.693,52.144a3.677,3.677,0,0,1-3.626,3.074H25.715a3.677,3.677,0,0,1-3.626-3.074L13.4,129.364A14.709,14.709,0,0,1,14.683,100Z" transform="translate(0 -85.296)" fill="#ffc107"/>
    <ellipse id="Ellipse_25" data-name="Ellipse 25" cx="62.514" cy="18.386" rx="62.514" ry="18.386" transform="translate(25.715 77.223)" fill="#ffa000"/>
    <path id="Path_1464" data-name="Path 1464" d="M130.191,342.756c32.9,0,66.191-7.575,66.191-22.064s-33.294-22.064-66.191-22.064S64,306.2,64,320.693,97.294,342.756,130.191,342.756Zm0-36.773c38.626,0,58.836,9.561,58.836,14.709S168.817,335.4,130.191,335.4s-58.837-9.561-58.837-14.709S91.565,305.983,130.191,305.983Z" transform="translate(-41.962 -225.084)" fill="#ffd54f"/>
  </g>
</svg>
