<svg id="like_1_" data-name="like (1)" xmlns="http://www.w3.org/2000/svg" width="25.31" height="26.172" viewBox="0 0 25.31 26.172">
  <path id="Path_1300" data-name="Path 1300" d="M206.667,87.821h-6.644a.768.768,0,0,1-.391-1.43c2.895-1.711,4.4-3.706,4.6-6.1a1.651,1.651,0,0,1,1.649-1.484,3.247,3.247,0,0,1,3.2,3.246h0v.258a8.493,8.493,0,0,1-1.766,5.165A.768.768,0,0,1,206.667,87.821Z" transform="translate(-189.5 -74.779)" fill="#ffc380"/>
  <path id="Path_1301" data-name="Path 1301" d="M155.624,227.49a2.41,2.41,0,0,0-2.407-2.407h-12.38a.768.768,0,0,0-.391.107c-.869.514-1.747.937-2.452,1.277-.246.119-.478.23-.689.336a.768.768,0,0,0-.425.687v9.833a.768.768,0,0,0,.425.687A17.7,17.7,0,0,0,146,239.75c.466,0,.942,0,1.432-.009.542-.005,1.1-.01,1.69-.01h2.429a2.406,2.406,0,0,0,2.072-3.63,2.405,2.405,0,0,0,.819-3.278,2.4,2.4,0,0,0,.524-3.676A2.39,2.39,0,0,0,155.624,227.49Z" transform="translate(-130.314 -213.577)" fill="#ffcf99"/>
  <g id="Group_2368" data-name="Group 2368" transform="translate(9.833 0)">
    <path id="Path_1302" data-name="Path 1302" d="M427.622,112.6h-1.639a.768.768,0,0,1,0-1.536h1.639a.768.768,0,0,1,0,1.536Z" transform="translate(-413.743 -105.384)" fill="#29ccb1"/>
    <path id="Path_1303" data-name="Path 1303" d="M203.2,112.6h-1.639a.768.768,0,1,1,0-1.536H203.2a.768.768,0,1,1,0,1.536Z" transform="translate(-200.796 -105.384)" fill="#29ccb1"/>
    <path id="Path_1304" data-name="Path 1304" d="M266.5,2.957a.768.768,0,0,1-.666-.384l-.819-1.419a.768.768,0,0,1,1.331-.768l.819,1.419a.768.768,0,0,1-.664,1.152Z" transform="translate(-261.637 -0.001)" fill="#29ccb1"/>
    <path id="Path_1305" data-name="Path 1305" d="M377.891,2.956a.768.768,0,0,1-.664-1.152l.819-1.419a.768.768,0,1,1,1.331.768l-.819,1.419A.768.768,0,0,1,377.891,2.956Z" transform="translate(-368.11 0)" fill="#29ccb1"/>
  </g>
  <path id="SVGCleanerId_0" d="M74.093,418.4v4.046H72.557V418.4a.768.768,0,1,1,1.536,0Z" transform="translate(-69.279 -396.283)" fill="#73c3ff"/>
  <g id="Group_2369" data-name="Group 2369" transform="translate(9.833 0)">
    <path id="Path_1306" data-name="Path 1306" d="M427.622,112.6h-1.639a.768.768,0,0,1,0-1.536h1.639a.768.768,0,0,1,0,1.536Z" transform="translate(-413.743 -105.384)" fill="#29ccb1"/>
    <path id="Path_1307" data-name="Path 1307" d="M203.2,112.6h-1.639a.768.768,0,1,1,0-1.536H203.2a.768.768,0,1,1,0,1.536Z" transform="translate(-200.796 -105.384)" fill="#29ccb1"/>
    <path id="Path_1308" data-name="Path 1308" d="M266.5,2.957a.768.768,0,0,1-.666-.384l-.819-1.419a.768.768,0,0,1,1.331-.768l.819,1.419a.768.768,0,0,1-.664,1.152Z" transform="translate(-261.637 -0.001)" fill="#29ccb1"/>
    <path id="Path_1309" data-name="Path 1309" d="M377.891,2.956a.768.768,0,0,1-.664-1.152l.819-1.419a.768.768,0,1,1,1.331.768l-.819,1.419A.768.768,0,0,1,377.891,2.956Z" transform="translate(-368.11 0)" fill="#29ccb1"/>
  </g>
  <g id="Group_2370" data-name="Group 2370" transform="translate(3.278 21.349)">
    <path id="SVGCleanerId_0_1_" d="M74.093,418.4v4.046H72.557V418.4a.768.768,0,1,1,1.536,0Z" transform="translate(-72.557 -417.632)" fill="#73c3ff"/>
  </g>
  <path id="Path_1310" data-name="Path 1310" d="M15.762,225.083H9.206a.769.769,0,0,0-.768.768v13.111a.783.783,0,0,0,.768.778h4.916a2.435,2.435,0,0,0,2.154-1.343,2.387,2.387,0,0,0,.253-1.074V225.851A.768.768,0,0,0,15.762,225.083Z" transform="translate(-8.438 -213.577)" fill="#44a4ec"/>
  <path id="Path_1311" data-name="Path 1311" d="M74.093,417.4v4.1H72.557v-4.1a.768.768,0,0,1,1.536,0Z" transform="translate(-69.279 -395.333)" fill="#73c3ff"/>
</svg>
