<svg xmlns="http://www.w3.org/2000/svg" width="23.005" height="23.005" viewBox="0 0 23.005 23.005">
  <g id="logout" transform="translate(0 -0.004)">
    <path id="Path_1426" data-name="Path 1426" d="M38.887,12.465a2.876,2.876,0,0,1,0-5.751H40.8V2.88A2.879,2.879,0,0,0,37.928,0h-10.3a.958.958,0,0,0-.9,1.3l6.949,18.212a.957.957,0,0,0,.9.617h3.355A2.879,2.879,0,0,0,40.8,17.258V12.465Zm0,0" transform="translate(-25.467)" fill="#00a4fd"/>
    <path id="Path_1427" data-name="Path 1427" d="M282.716,116.179a.96.96,0,0,1-.591-.886v-2.876h-3.834a.958.958,0,1,1,0-1.917h3.834v-2.876a.958.958,0,0,1,1.636-.678l3.834,3.834a.958.958,0,0,1,0,1.355l-3.834,3.834A.959.959,0,0,1,282.716,116.179Zm0,0" transform="translate(-264.871 -101.869)" fill="#607d8b"/>
    <path id="Path_1428" data-name="Path 1428" d="M8.288,2.082,2.528.162A1.93,1.93,0,0,0,0,1.984V19.238a1.927,1.927,0,0,0,1.3,1.819l5.759,1.92a2.028,2.028,0,0,0,.612.095,1.919,1.919,0,0,0,1.917-1.917V3.9a1.927,1.927,0,0,0-1.3-1.819Zm0,0" transform="translate(0 -0.063)" fill="#00a4fd"/>
  </g>
</svg>
